<svg width="193" height="167" viewBox="0 0 193 167" fill="none" xmlns="http://www.w3.org/2000/svg">
<g opacity="0.31">
<mask id="path-1-outside-1_113_91" maskUnits="userSpaceOnUse" x="-2" y="-2" width="197" height="171" fill="black">
<rect fill="white" x="-2" y="-2" width="197" height="171"/>
<path d="M106.214 83.4702C106.214 96.5073 105.226 108.153 103.248 118.407C101.271 128.661 98.1577 137.34 93.9097 144.444C89.6616 151.549 84.1685 156.969 77.4302 160.704C70.6919 164.366 62.5986 166.197 53.1504 166.197C41.2119 166.197 31.3242 162.938 23.4873 156.419C15.7236 149.901 9.90088 140.489 6.01904 128.185C2.21045 115.807 0.306152 100.902 0.306152 83.4702C0.306152 66.3315 2.02734 51.6099 5.46973 39.3052C8.98535 26.9272 14.625 17.4424 22.3887 10.8506C30.1523 4.18555 40.4062 0.853027 53.1504 0.853027C65.2354 0.853027 75.1963 4.14893 83.0332 10.7407C90.8701 17.2593 96.6929 26.7075 100.501 39.0854C104.31 51.3901 106.214 66.1851 106.214 83.4702ZM18.6533 83.4702C18.6533 98.4116 19.7886 110.863 22.0591 120.824C24.3296 130.785 27.9917 138.255 33.0454 143.236C38.1724 148.143 44.874 150.597 53.1504 150.597C61.4268 150.597 68.0918 148.143 73.1455 143.236C78.2725 138.329 81.9712 130.895 84.2417 120.934C86.5854 110.973 87.7573 98.4849 87.7573 83.4702C87.7573 68.7485 86.6221 56.4438 84.3516 46.5562C82.0811 36.5952 78.4189 29.1245 73.3652 24.144C68.3115 19.0903 61.5732 16.5635 53.1504 16.5635C44.7275 16.5635 37.9893 19.0903 32.9355 24.144C27.8818 29.1245 24.2197 36.5952 21.9492 46.5562C19.752 56.4438 18.6533 68.7485 18.6533 83.4702ZM192.242 164H174.444V50.1816C174.444 45.8604 174.444 42.1616 174.444 39.0854C174.517 35.936 174.59 33.0796 174.664 30.5161C174.81 27.8794 174.993 25.2061 175.213 22.4961C172.942 24.8398 170.818 26.854 168.841 28.5386C166.863 30.1499 164.41 32.1641 161.48 34.5811L143.133 49.3027L133.575 36.8882L177.081 3.37988H192.242V164Z"/>
</mask>
<path d="M77.4302 160.704L78.3852 162.461L78.3925 162.457L78.3998 162.453L77.4302 160.704ZM23.4873 156.419L22.2012 157.951L22.2084 157.957L23.4873 156.419ZM6.01904 128.185L4.10748 128.773L4.10957 128.78L4.11171 128.786L6.01904 128.185ZM5.46973 39.3052L3.54581 38.7587L3.54368 38.7663L5.46973 39.3052ZM22.3887 10.8506L23.6832 12.3752L23.6914 12.3681L22.3887 10.8506ZM83.0332 10.7407L81.7458 12.2713L81.7542 12.2783L83.0332 10.7407ZM100.501 39.0854L98.5899 39.6736L98.5909 39.6768L100.501 39.0854ZM33.0454 143.236L31.6416 144.66L31.652 144.671L31.6625 144.681L33.0454 143.236ZM73.1455 143.236L71.7626 141.791L71.7574 141.796L71.7522 141.801L73.1455 143.236ZM84.2417 120.934L82.2948 120.476L82.2917 120.489L84.2417 120.934ZM84.3516 46.5562L82.4016 47.0006L82.4023 47.0038L84.3516 46.5562ZM73.3652 24.144L71.951 25.5583L71.9562 25.5634L71.9614 25.5685L73.3652 24.144ZM32.9355 24.144L34.3394 25.5685L34.3446 25.5634L34.3498 25.5583L32.9355 24.144ZM21.9492 46.5562L19.9992 46.1117L19.9968 46.1223L21.9492 46.5562ZM104.214 83.4702C104.214 96.41 103.233 107.925 101.284 118.028L105.212 118.785C107.219 108.381 108.214 96.6046 108.214 83.4702H104.214ZM101.284 118.028C99.3398 128.111 96.295 136.558 92.1931 143.418L95.6262 145.471C100.02 138.122 103.201 129.211 105.212 118.785L101.284 118.028ZM92.1931 143.418C88.1121 150.243 82.8676 155.403 76.4605 158.955L78.3998 162.453C85.4693 158.534 91.2112 152.854 95.6262 145.471L92.1931 143.418ZM76.4752 158.947C70.0905 162.417 62.3415 164.197 53.1504 164.197V168.197C62.8558 168.197 71.2933 166.316 78.3852 162.461L76.4752 158.947ZM53.1504 164.197C41.5952 164.197 32.1843 161.052 24.7663 154.882L22.2084 157.957C30.4641 164.824 40.8286 168.197 53.1504 168.197V164.197ZM24.7733 154.888C17.3708 148.672 11.7247 139.623 7.92638 127.583L4.11171 128.786C8.07705 141.356 14.0764 151.129 22.2013 157.951L24.7733 154.888ZM7.9306 127.596C4.19693 115.462 2.30615 100.767 2.30615 83.4702H-1.69385C-1.69385 101.037 0.223972 116.151 4.10748 128.773L7.9306 127.596ZM2.30615 83.4702C2.30615 66.4559 4.01591 51.9252 7.39577 39.844L3.54368 38.7663C0.0387745 51.2945 -1.69385 66.2072 -1.69385 83.4702H2.30615ZM7.39363 39.8516C10.8295 27.7546 16.2923 18.6504 23.6831 12.3752L21.0942 9.326C12.9577 16.2343 7.14124 26.0999 3.54582 38.7587L7.39363 39.8516ZM23.6914 12.3681C31.0099 6.08523 40.7629 2.85303 53.1504 2.85303V-1.14697C40.0496 -1.14697 29.2948 2.28587 21.0859 9.33308L23.6914 12.3681ZM53.1504 2.85303C64.8533 2.85303 74.3321 6.03542 81.7458 12.2713L84.3206 9.21016C76.0605 2.26243 65.6174 -1.14697 53.1504 -1.14697V2.85303ZM81.7542 12.2783C89.2213 18.4893 94.8648 27.5671 98.5899 39.6736L102.413 38.4973C98.5209 25.848 92.5189 16.0293 84.3122 9.2031L81.7542 12.2783ZM98.5909 39.6768C102.324 51.7373 104.214 66.3217 104.214 83.4702H108.214C108.214 66.0484 106.296 51.043 102.412 38.4941L98.5909 39.6768ZM16.6533 83.4702C16.6533 98.4992 17.7939 111.111 20.1091 121.268L24.0091 120.379C21.7832 110.614 20.6533 98.3241 20.6533 83.4702H16.6533ZM20.1091 121.268C22.429 131.446 26.2213 139.319 31.6416 144.66L34.4493 141.811C29.7621 137.192 26.2302 130.123 24.0091 120.379L20.1091 121.268ZM31.6625 144.681C37.2231 150.003 44.4506 152.597 53.1504 152.597V148.597C45.2974 148.597 39.1216 146.283 34.4283 141.791L31.6625 144.681ZM53.1504 152.597C61.8494 152.597 69.0472 150.003 74.5388 144.671L71.7522 141.801C67.1364 146.283 61.0041 148.597 53.1504 148.597V152.597ZM74.5284 144.681C80.0371 139.408 83.8706 131.561 86.1917 121.378L82.2917 120.489C80.0718 130.228 76.5078 137.249 71.7626 141.791L74.5284 144.681ZM86.1885 121.392C88.5798 111.229 89.7573 98.5745 89.7573 83.4702H85.7573C85.7573 98.3952 84.5911 110.717 82.2949 120.476L86.1885 121.392ZM89.7573 83.4702C89.7573 68.659 88.6164 56.1926 86.3008 46.1085L82.4023 47.0038C84.6277 56.6951 85.7573 68.8381 85.7573 83.4702H89.7573ZM86.3015 46.1117C83.9816 35.934 80.1893 28.0612 74.7691 22.7195L71.9614 25.5685C76.6486 30.1878 80.1805 37.2565 82.4016 47.0006L86.3015 46.1117ZM74.7794 22.7298C69.2843 17.2346 62.0018 14.5635 53.1504 14.5635V18.5635C61.1447 18.5635 67.3388 20.946 71.951 25.5583L74.7794 22.7298ZM53.1504 14.5635C44.299 14.5635 37.0165 17.2346 31.5213 22.7298L34.3498 25.5583C38.962 20.946 45.1561 18.5635 53.1504 18.5635V14.5635ZM31.5317 22.7195C26.1114 28.0612 22.3191 35.934 19.9992 46.1117L23.8992 47.0006C26.1203 37.2565 29.6522 30.1878 34.3394 25.5685L31.5317 22.7195ZM19.9968 46.1223C17.7572 56.2007 16.6533 68.662 16.6533 83.4702H20.6533C20.6533 68.835 21.7467 56.687 23.9016 46.99L19.9968 46.1223ZM192.242 164V166H194.242V164H192.242ZM174.444 164H172.444V166H174.444V164ZM174.444 39.0854L172.444 39.0389L172.444 39.0622V39.0854H174.444ZM174.664 30.5161L172.667 30.4052L172.665 30.4321L172.664 30.459L174.664 30.5161ZM175.213 22.4961L177.206 22.6577L177.657 17.0986L173.776 21.1045L175.213 22.4961ZM168.841 28.5386L170.104 30.089L170.121 30.0752L170.138 30.0611L168.841 28.5386ZM161.48 34.5811L162.732 36.141L162.742 36.1325L162.753 36.1238L161.48 34.5811ZM143.133 49.3027L141.548 50.5228L142.793 52.1397L144.384 50.8626L143.133 49.3027ZM133.575 36.8882L132.354 35.3037L130.77 36.5238L131.99 38.1083L133.575 36.8882ZM177.081 3.37988V1.37988H176.4L175.86 1.79538L177.081 3.37988ZM192.242 3.37988H194.242V1.37988H192.242V3.37988ZM192.242 162H174.444V166H192.242V162ZM176.444 164V50.1816H172.444V164H176.444ZM176.444 50.1816C176.444 50.1732 176.444 50.1648 176.444 50.1563C176.444 50.1479 176.444 50.1395 176.444 50.131C176.444 50.1226 176.444 50.1142 176.444 50.1057C176.444 50.0973 176.444 50.0889 176.444 50.0805C176.444 50.0721 176.444 50.0636 176.444 50.0552C176.444 50.0468 176.444 50.0384 176.444 50.03C176.444 50.0216 176.444 50.0132 176.444 50.0048C176.444 49.9963 176.444 49.9879 176.444 49.9795C176.444 49.9711 176.444 49.9627 176.444 49.9543C176.444 49.9459 176.444 49.9375 176.444 49.9292C176.444 49.9208 176.444 49.9124 176.444 49.904C176.444 49.8956 176.444 49.8872 176.444 49.8788C176.444 49.8704 176.444 49.8621 176.444 49.8537C176.444 49.8453 176.444 49.8369 176.444 49.8286C176.444 49.8202 176.444 49.8118 176.444 49.8034C176.444 49.7951 176.444 49.7867 176.444 49.7783C176.444 49.77 176.444 49.7616 176.444 49.7533C176.444 49.7449 176.444 49.7365 176.444 49.7282C176.444 49.7198 176.444 49.7115 176.444 49.7031C176.444 49.6948 176.444 49.6864 176.444 49.6781C176.444 49.6697 176.444 49.6614 176.444 49.6531C176.444 49.6447 176.444 49.6364 176.444 49.628C176.444 49.6197 176.444 49.6114 176.444 49.6031C176.444 49.5947 176.444 49.5864 176.444 49.5781C176.444 49.5697 176.444 49.5614 176.444 49.5531C176.444 49.5448 176.444 49.5365 176.444 49.5281C176.444 49.5198 176.444 49.5115 176.444 49.5032C176.444 49.4949 176.444 49.4866 176.444 49.4783C176.444 49.47 176.444 49.4617 176.444 49.4534C176.444 49.445 176.444 49.4368 176.444 49.4285C176.444 49.4202 176.444 49.4119 176.444 49.4036C176.444 49.3953 176.444 49.387 176.444 49.3787C176.444 49.3704 176.444 49.3621 176.444 49.3538C176.444 49.3456 176.444 49.3373 176.444 49.329C176.444 49.3207 176.444 49.3124 176.444 49.3042C176.444 49.2959 176.444 49.2876 176.444 49.2794C176.444 49.2711 176.444 49.2628 176.444 49.2546C176.444 49.2463 176.444 49.238 176.444 49.2298C176.444 49.2215 176.444 49.2132 176.444 49.205C176.444 49.1967 176.444 49.1885 176.444 49.1802C176.444 49.172 176.444 49.1637 176.444 49.1555C176.444 49.1472 176.444 49.139 176.444 49.1308C176.444 49.1225 176.444 49.1143 176.444 49.106C176.444 49.0978 176.444 49.0896 176.444 49.0814C176.444 49.0731 176.444 49.0649 176.444 49.0567C176.444 49.0484 176.444 49.0402 176.444 49.032C176.444 49.0238 176.444 49.0156 176.444 49.0073C176.444 48.9991 176.444 48.9909 176.444 48.9827C176.444 48.9745 176.444 48.9663 176.444 48.9581C176.444 48.9499 176.444 48.9417 176.444 48.9334C176.444 48.9252 176.444 48.917 176.444 48.9089C176.444 48.9007 176.444 48.8925 176.444 48.8843C176.444 48.8761 176.444 48.8679 176.444 48.8597C176.444 48.8515 176.444 48.8433 176.444 48.8351C176.444 48.827 176.444 48.8188 176.444 48.8106C176.444 48.8024 176.444 48.7942 176.444 48.7861C176.444 48.7779 176.444 48.7697 176.444 48.7615C176.444 48.7534 176.444 48.7452 176.444 48.737C176.444 48.7289 176.444 48.7207 176.444 48.7126C176.444 48.7044 176.444 48.6962 176.444 48.6881C176.444 48.6799 176.444 48.6718 176.444 48.6636C176.444 48.6555 176.444 48.6473 176.444 48.6392C176.444 48.631 176.444 48.6229 176.444 48.6148C176.444 48.6066 176.444 48.5985 176.444 48.5903C176.444 48.5822 176.444 48.5741 176.444 48.5659C176.444 48.5578 176.444 48.5497 176.444 48.5415C176.444 48.5334 176.444 48.5253 176.444 48.5172C176.444 48.5091 176.444 48.5009 176.444 48.4928C176.444 48.4847 176.444 48.4766 176.444 48.4685C176.444 48.4604 176.444 48.4523 176.444 48.4441C176.444 48.436 176.444 48.4279 176.444 48.4198C176.444 48.4117 176.444 48.4036 176.444 48.3955C176.444 48.3874 176.444 48.3793 176.444 48.3712C176.444 48.3632 176.444 48.3551 176.444 48.347C176.444 48.3389 176.444 48.3308 176.444 48.3227C176.444 48.3146 176.444 48.3065 176.444 48.2985C176.444 48.2904 176.444 48.2823 176.444 48.2742C176.444 48.2662 176.444 48.2581 176.444 48.25C176.444 48.242 176.444 48.2339 176.444 48.2258C176.444 48.2178 176.444 48.2097 176.444 48.2016C176.444 48.1936 176.444 48.1855 176.444 48.1775C176.444 48.1694 176.444 48.1614 176.444 48.1533C176.444 48.1452 176.444 48.1372 176.444 48.1292C176.444 48.1211 176.444 48.1131 176.444 48.105C176.444 48.097 176.444 48.089 176.444 48.0809C176.444 48.0729 176.444 48.0648 176.444 48.0568C176.444 48.0488 176.444 48.0407 176.444 48.0327C176.444 48.0247 176.444 48.0167 176.444 48.0087C176.444 48.0006 176.444 47.9926 176.444 47.9846C176.444 47.9766 176.444 47.9686 176.444 47.9605C176.444 47.9525 176.444 47.9445 176.444 47.9365C176.444 47.9285 176.444 47.9205 176.444 47.9125C176.444 47.9045 176.444 47.8965 176.444 47.8885C176.444 47.8805 176.444 47.8725 176.444 47.8645C176.444 47.8565 176.444 47.8485 176.444 47.8405C176.444 47.8326 176.444 47.8246 176.444 47.8166C176.444 47.8086 176.444 47.8006 176.444 47.7926C176.444 47.7847 176.444 47.7767 176.444 47.7687C176.444 47.7607 176.444 47.7528 176.444 47.7448C176.444 47.7368 176.444 47.7288 176.444 47.7209C176.444 47.7129 176.444 47.705 176.444 47.697C176.444 47.689 176.444 47.6811 176.444 47.6731C176.444 47.6652 176.444 47.6572 176.444 47.6493C176.444 47.6413 176.444 47.6334 176.444 47.6254C176.444 47.6175 176.444 47.6095 176.444 47.6016C176.444 47.5936 176.444 47.5857 176.444 47.5778C176.444 47.5698 176.444 47.5619 176.444 47.554C176.444 47.546 176.444 47.5381 176.444 47.5302C176.444 47.5222 176.444 47.5143 176.444 47.5064C176.444 47.4985 176.444 47.4906 176.444 47.4826C176.444 47.4747 176.444 47.4668 176.444 47.4589C176.444 47.451 176.444 47.4431 176.444 47.4352C176.444 47.4273 176.444 47.4193 176.444 47.4114C176.444 47.4035 176.444 47.3956 176.444 47.3877C176.444 47.3798 176.444 47.3719 176.444 47.3641C176.444 47.3562 176.444 47.3483 176.444 47.3404C176.444 47.3325 176.444 47.3246 176.444 47.3167C176.444 47.3088 176.444 47.301 176.444 47.2931C176.444 47.2852 176.444 47.2773 176.444 47.2694C176.444 47.2616 176.444 47.2537 176.444 47.2458C176.444 47.238 176.444 47.2301 176.444 47.2222C176.444 47.2144 176.444 47.2065 176.444 47.1986C176.444 47.1908 176.444 47.1829 176.444 47.1751C176.444 47.1672 176.444 47.1594 176.444 47.1515C176.444 47.1437 176.444 47.1358 176.444 47.128C176.444 47.1201 176.444 47.1123 176.444 47.1044C176.444 47.0966 176.444 47.0887 176.444 47.0809C176.444 47.0731 176.444 47.0652 176.444 47.0574C176.444 47.0496 176.444 47.0417 176.444 47.0339C176.444 47.0261 176.444 47.0183 176.444 47.0104C176.444 47.0026 176.444 46.9948 176.444 46.987C176.444 46.9792 176.444 46.9713 176.444 46.9635C176.444 46.9557 176.444 46.9479 176.444 46.9401C176.444 46.9323 176.444 46.9245 176.444 46.9167C176.444 46.9089 176.444 46.9011 176.444 46.8933C176.444 46.8855 176.444 46.8777 176.444 46.8699C176.444 46.8621 176.444 46.8543 176.444 46.8465C176.444 46.8387 176.444 46.8309 176.444 46.8232C176.444 46.8154 176.444 46.8076 176.444 46.7998C176.444 46.792 176.444 46.7842 176.444 46.7765C176.444 46.7687 176.444 46.7609 176.444 46.7532C176.444 46.7454 176.444 46.7376 176.444 46.7299C176.444 46.7221 176.444 46.7143 176.444 46.7066C176.444 46.6988 176.444 46.691 176.444 46.6833C176.444 46.6755 176.444 46.6678 176.444 46.66C176.444 46.6523 176.444 46.6445 176.444 46.6368C176.444 46.629 176.444 46.6213 176.444 46.6135C176.444 46.6058 176.444 46.5981 176.444 46.5903C176.444 46.5826 176.444 46.5749 176.444 46.5671C176.444 46.5594 176.444 46.5517 176.444 46.5439C176.444 46.5362 176.444 46.5285 176.444 46.5208C176.444 46.513 176.444 46.5053 176.444 46.4976C176.444 46.4899 176.444 46.4822 176.444 46.4744C176.444 46.4667 176.444 46.459 176.444 46.4513C176.444 46.4436 176.444 46.4359 176.444 46.4282C176.444 46.4205 176.444 46.4128 176.444 46.4051C176.444 46.3974 176.444 46.3897 176.444 46.382C176.444 46.3743 176.444 46.3666 176.444 46.3589C176.444 46.3512 176.444 46.3436 176.444 46.3359C176.444 46.3282 176.444 46.3205 176.444 46.3128C176.444 46.3051 176.444 46.2975 176.444 46.2898C176.444 46.2821 176.444 46.2744 176.444 46.2668C176.444 46.2591 176.444 46.2514 176.444 46.2438C176.444 46.2361 176.444 46.2284 176.444 46.2208C176.444 46.2131 176.444 46.2055 176.444 46.1978C176.444 46.1901 176.444 46.1825 176.444 46.1748C176.444 46.1672 176.444 46.1595 176.444 46.1519C176.444 46.1442 176.444 46.1366 176.444 46.129C176.444 46.1213 176.444 46.1137 176.444 46.106C176.444 46.0984 176.444 46.0908 176.444 46.0831C176.444 46.0755 176.444 46.0679 176.444 46.0602C176.444 46.0526 176.444 46.045 176.444 46.0374C176.444 46.0297 176.444 46.0221 176.444 46.0145C176.444 46.0069 176.444 45.9993 176.444 45.9917C176.444 45.984 176.444 45.9764 176.444 45.9688C176.444 45.9612 176.444 45.9536 176.444 45.946C176.444 45.9384 176.444 45.9308 176.444 45.9232C176.444 45.9156 176.444 45.908 176.444 45.9004C176.444 45.8928 176.444 45.8852 176.444 45.8776C176.444 45.87 176.444 45.8625 176.444 45.8549C176.444 45.8473 176.444 45.8397 176.444 45.8321C176.444 45.8245 176.444 45.817 176.444 45.8094C176.444 45.8018 176.444 45.7942 176.444 45.7867C176.444 45.7791 176.444 45.7715 176.444 45.764C176.444 45.7564 176.444 45.7488 176.444 45.7413C176.444 45.7337 176.444 45.7262 176.444 45.7186C176.444 45.711 176.444 45.7035 176.444 45.6959C176.444 45.6884 176.444 45.6808 176.444 45.6733C176.444 45.6657 176.444 45.6582 176.444 45.6507C176.444 45.6431 176.444 45.6356 176.444 45.628C176.444 45.6205 176.444 45.613 176.444 45.6054C176.444 45.5979 176.444 45.5904 176.444 45.5828C176.444 45.5753 176.444 45.5678 176.444 45.5603C176.444 45.5527 176.444 45.5452 176.444 45.5377C176.444 45.5302 176.444 45.5227 176.444 45.5151C176.444 45.5076 176.444 45.5001 176.444 45.4926C176.444 45.4851 176.444 45.4776 176.444 45.4701C176.444 45.4626 176.444 45.4551 176.444 45.4476C176.444 45.4401 176.444 45.4326 176.444 45.4251C176.444 45.4176 176.444 45.4101 176.444 45.4026C176.444 45.3951 176.444 45.3876 176.444 45.3801C176.444 45.3727 176.444 45.3652 176.444 45.3577C176.444 45.3502 176.444 45.3427 176.444 45.3353C176.444 45.3278 176.444 45.3203 176.444 45.3129C176.444 45.3054 176.444 45.2979 176.444 45.2904C176.444 45.283 176.444 45.2755 176.444 45.2681C176.444 45.2606 176.444 45.2531 176.444 45.2457C176.444 45.2382 176.444 45.2308 176.444 45.2233C176.444 45.2159 176.444 45.2084 176.444 45.201C176.444 45.1935 176.444 45.1861 176.444 45.1786C176.444 45.1712 176.444 45.1637 176.444 45.1563C176.444 45.1489 176.444 45.1414 176.444 45.134C176.444 45.1266 176.444 45.1191 176.444 45.1117C176.444 45.1043 176.444 45.0969 176.444 45.0894C176.444 45.082 176.444 45.0746 176.444 45.0672C176.444 45.0597 176.444 45.0523 176.444 45.0449C176.444 45.0375 176.444 45.0301 176.444 45.0227C176.444 45.0153 176.444 45.0079 176.444 45.0005C176.444 44.9931 176.444 44.9856 176.444 44.9783C176.444 44.9709 176.444 44.9635 176.444 44.9561C176.444 44.9487 176.444 44.9413 176.444 44.9339C176.444 44.9265 176.444 44.9191 176.444 44.9117C176.444 44.9043 176.444 44.8969 176.444 44.8896C176.444 44.8822 176.444 44.8748 176.444 44.8674C176.444 44.8601 176.444 44.8527 176.444 44.8453C176.444 44.8379 176.444 44.8306 176.444 44.8232C176.444 44.8158 176.444 44.8085 176.444 44.8011C176.444 44.7938 176.444 44.7864 176.444 44.779C176.444 44.7717 176.444 44.7643 176.444 44.757C176.444 44.7496 176.444 44.7423 176.444 44.7349C176.444 44.7276 176.444 44.7202 176.444 44.7129C176.444 44.7055 176.444 44.6982 176.444 44.6909C176.444 44.6835 176.444 44.6762 176.444 44.6689C176.444 44.6615 176.444 44.6542 176.444 44.6469C176.444 44.6395 176.444 44.6322 176.444 44.6249C176.444 44.6176 176.444 44.6102 176.444 44.6029C176.444 44.5956 176.444 44.5883 176.444 44.581C176.444 44.5737 176.444 44.5663 176.444 44.559C176.444 44.5517 176.444 44.5444 176.444 44.5371C176.444 44.5298 176.444 44.5225 176.444 44.5152C176.444 44.5079 176.444 44.5006 176.444 44.4933C176.444 44.486 176.444 44.4787 176.444 44.4714C176.444 44.4641 176.444 44.4569 176.444 44.4496C176.444 44.4423 176.444 44.435 176.444 44.4277C176.444 44.4204 176.444 44.4132 176.444 44.4059C176.444 44.3986 176.444 44.3913 176.444 44.3841C176.444 44.3768 176.444 44.3695 176.444 44.3623C176.444 44.355 176.444 44.3477 176.444 44.3405C176.444 44.3332 176.444 44.3259 176.444 44.3187C176.444 44.3114 176.444 44.3042 176.444 44.2969C176.444 44.2897 176.444 44.2824 176.444 44.2752C176.444 44.2679 176.444 44.2607 176.444 44.2534C176.444 44.2462 176.444 44.2389 176.444 44.2317C176.444 44.2245 176.444 44.2172 176.444 44.21C176.444 44.2028 176.444 44.1955 176.444 44.1883C176.444 44.1811 176.444 44.1739 176.444 44.1666C176.444 44.1594 176.444 44.1522 176.444 44.145C176.444 44.1377 176.444 44.1305 176.444 44.1233C176.444 44.1161 176.444 44.1089 176.444 44.1017C176.444 44.0945 176.444 44.0873 176.444 44.08C176.444 44.0728 176.444 44.0656 176.444 44.0584C176.444 44.0512 176.444 44.044 176.444 44.0368C176.444 44.0297 176.444 44.0225 176.444 44.0153C176.444 44.0081 176.444 44.0009 176.444 43.9937C176.444 43.9865 176.444 43.9793 176.444 43.9722C176.444 43.965 176.444 43.9578 176.444 43.9506C176.444 43.9434 176.444 43.9363 176.444 43.9291C176.444 43.9219 176.444 43.9147 176.444 43.9076C176.444 43.9004 176.444 43.8932 176.444 43.8861C176.444 43.8789 176.444 43.8718 176.444 43.8646C176.444 43.8575 176.444 43.8503 176.444 43.8431C176.444 43.836 176.444 43.8288 176.444 43.8217C176.444 43.8145 176.444 43.8074 176.444 43.8003C176.444 43.7931 176.444 43.786 176.444 43.7788C176.444 43.7717 176.444 43.7646 176.444 43.7574C176.444 43.7503 176.444 43.7432 176.444 43.736C176.444 43.7289 176.444 43.7218 176.444 43.7147C176.444 43.7075 176.444 43.7004 176.444 43.6933C176.444 43.6862 176.444 43.679 176.444 43.6719C176.444 43.6648 176.444 43.6577 176.444 43.6506C176.444 43.6435 176.444 43.6364 176.444 43.6293C176.444 43.6222 176.444 43.6151 176.444 43.608C176.444 43.6009 176.444 43.5938 176.444 43.5867C176.444 43.5796 176.444 43.5725 176.444 43.5654C176.444 43.5583 176.444 43.5512 176.444 43.5441C176.444 43.537 176.444 43.53 176.444 43.5229C176.444 43.5158 176.444 43.5087 176.444 43.5016C176.444 43.4946 176.444 43.4875 176.444 43.4804C176.444 43.4733 176.444 43.4663 176.444 43.4592C176.444 43.4521 176.444 43.4451 176.444 43.438C176.444 43.4309 176.444 43.4239 176.444 43.4168C176.444 43.4098 176.444 43.4027 176.444 43.3957C176.444 43.3886 176.444 43.3816 176.444 43.3745C176.444 43.3675 176.444 43.3604 176.444 43.3534C176.444 43.3463 176.444 43.3393 176.444 43.3322C176.444 43.3252 176.444 43.3182 176.444 43.3111C176.444 43.3041 176.444 43.2971 176.444 43.29C176.444 43.283 176.444 43.276 176.444 43.269C176.444 43.2619 176.444 43.2549 176.444 43.2479C176.444 43.2409 176.444 43.2339 176.444 43.2268C176.444 43.2198 176.444 43.2128 176.444 43.2058C176.444 43.1988 176.444 43.1918 176.444 43.1848C176.444 43.1778 176.444 43.1708 176.444 43.1638C176.444 43.1568 176.444 43.1498 176.444 43.1428C176.444 43.1358 176.444 43.1288 176.444 43.1218C176.444 43.1148 176.444 43.1078 176.444 43.1008C176.444 43.0938 176.444 43.0869 176.444 43.0799C176.444 43.0729 176.444 43.0659 176.444 43.0589C176.444 43.052 176.444 43.045 176.444 43.038C176.444 43.031 176.444 43.0241 176.444 43.0171C176.444 43.0101 176.444 43.0032 176.444 42.9962C176.444 42.9892 176.444 42.9823 176.444 42.9753C176.444 42.9684 176.444 42.9614 176.444 42.9545C176.444 42.9475 176.444 42.9406 176.444 42.9336C176.444 42.9267 176.444 42.9197 176.444 42.9128C176.444 42.9058 176.444 42.8989 176.444 42.8919C176.444 42.885 176.444 42.8781 176.444 42.8711C176.444 42.8642 176.444 42.8573 176.444 42.8503C176.444 42.8434 176.444 42.8365 176.444 42.8296C176.444 42.8226 176.444 42.8157 176.444 42.8088C176.444 42.8019 176.444 42.7949 176.444 42.788C176.444 42.7811 176.444 42.7742 176.444 42.7673C176.444 42.7604 176.444 42.7535 176.444 42.7466C176.444 42.7397 176.444 42.7328 176.444 42.7259C176.444 42.719 176.444 42.7121 176.444 42.7052C176.444 42.6983 176.444 42.6914 176.444 42.6845C176.444 42.6776 176.444 42.6707 176.444 42.6638C176.444 42.6569 176.444 42.65 176.444 42.6432C176.444 42.6363 176.444 42.6294 176.444 42.6225C176.444 42.6156 176.444 42.6088 176.444 42.6019C176.444 42.595 176.444 42.5882 176.444 42.5813C176.444 42.5744 176.444 42.5676 176.444 42.5607C176.444 42.5538 176.444 42.547 176.444 42.5401C176.444 42.5332 176.444 42.5264 176.444 42.5195C176.444 42.5127 176.444 42.5058 176.444 42.499C176.444 42.4921 176.444 42.4853 176.444 42.4784C176.444 42.4716 176.444 42.4648 176.444 42.4579C176.444 42.4511 176.444 42.4442 176.444 42.4374C176.444 42.4306 176.444 42.4237 176.444 42.4169C176.444 42.4101 176.444 42.4033 176.444 42.3964C176.444 42.3896 176.444 42.3828 176.444 42.376C176.444 42.3691 176.444 42.3623 176.444 42.3555C176.444 42.3487 176.444 42.3419 176.444 42.3351C176.444 42.3283 176.444 42.3214 176.444 42.3146C176.444 42.3078 176.444 42.301 176.444 42.2942C176.444 42.2874 176.444 42.2806 176.444 42.2738C176.444 42.267 176.444 42.2602 176.444 42.2534C176.444 42.2467 176.444 42.2399 176.444 42.2331C176.444 42.2263 176.444 42.2195 176.444 42.2127C176.444 42.2059 176.444 42.1992 176.444 42.1924C176.444 42.1856 176.444 42.1788 176.444 42.1721C176.444 42.1653 176.444 42.1585 176.444 42.1517C176.444 42.145 176.444 42.1382 176.444 42.1315C176.444 42.1247 176.444 42.1179 176.444 42.1112C176.444 42.1044 176.444 42.0977 176.444 42.0909C176.444 42.0841 176.444 42.0774 176.444 42.0706C176.444 42.0639 176.444 42.0572 176.444 42.0504C176.444 42.0437 176.444 42.0369 176.444 42.0302C176.444 42.0234 176.444 42.0167 176.444 42.01C176.444 42.0032 176.444 41.9965 176.444 41.9898C176.444 41.983 176.444 41.9763 176.444 41.9696C176.444 41.9629 176.444 41.9561 176.444 41.9494C176.444 41.9427 176.444 41.936 176.444 41.9293C176.444 41.9225 176.444 41.9158 176.444 41.9091C176.444 41.9024 176.444 41.8957 176.444 41.889C176.444 41.8823 176.444 41.8756 176.444 41.8689C176.444 41.8622 176.444 41.8555 176.444 41.8488C176.444 41.8421 176.444 41.8354 176.444 41.8287C176.444 41.822 176.444 41.8153 176.444 41.8086C176.444 41.8019 176.444 41.7953 176.444 41.7886C176.444 41.7819 176.444 41.7752 176.444 41.7685C176.444 41.7619 176.444 41.7552 176.444 41.7485C176.444 41.7418 176.444 41.7352 176.444 41.7285C176.444 41.7218 176.444 41.7152 176.444 41.7085C176.444 41.7018 176.444 41.6952 176.444 41.6885C176.444 41.6819 176.444 41.6752 176.444 41.6685C176.444 41.6619 176.444 41.6552 176.444 41.6486C176.444 41.6419 176.444 41.6353 176.444 41.6287C176.444 41.622 176.444 41.6154 176.444 41.6087C176.444 41.6021 176.444 41.5955 176.444 41.5888C176.444 41.5822 176.444 41.5755 176.444 41.5689C176.444 41.5623 176.444 41.5557 176.444 41.549C176.444 41.5424 176.444 41.5358 176.444 41.5292C176.444 41.5225 176.444 41.5159 176.444 41.5093C176.444 41.5027 176.444 41.4961 176.444 41.4895C176.444 41.4829 176.444 41.4762 176.444 41.4696C176.444 41.463 176.444 41.4564 176.444 41.4498C176.444 41.4432 176.444 41.4366 176.444 41.43C176.444 41.4234 176.444 41.4168 176.444 41.4102C176.444 41.4036 176.444 41.3971 176.444 41.3905C176.444 41.3839 176.444 41.3773 176.444 41.3707C176.444 41.3641 176.444 41.3576 176.444 41.351C176.444 41.3444 176.444 41.3378 176.444 41.3313C176.444 41.3247 176.444 41.3181 176.444 41.3115C176.444 41.305 176.444 41.2984 176.444 41.2918C176.444 41.2853 176.444 41.2787 176.444 41.2722C176.444 41.2656 176.444 41.259 176.444 41.2525C176.444 41.2459 176.444 41.2394 176.444 41.2328C176.444 41.2263 176.444 41.2197 176.444 41.2132C176.444 41.2066 176.444 41.2001 176.444 41.1936C176.444 41.187 176.444 41.1805 176.444 41.1739C176.444 41.1674 176.444 41.1609 176.444 41.1543C176.444 41.1478 176.444 41.1413 176.444 41.1348C176.444 41.1282 176.444 41.1217 176.444 41.1152C176.444 41.1087 176.444 41.1021 176.444 41.0956C176.444 41.0891 176.444 41.0826 176.444 41.0761C176.444 41.0696 176.444 41.0631 176.444 41.0566C176.444 41.0501 176.444 41.0436 176.444 41.037C176.444 41.0305 176.444 41.024 176.444 41.0176C176.444 41.0111 176.444 41.0046 176.444 40.9981C176.444 40.9916 176.444 40.9851 176.444 40.9786C176.444 40.9721 176.444 40.9656 176.444 40.9591C176.444 40.9527 176.444 40.9462 176.444 40.9397C176.444 40.9332 176.444 40.9267 176.444 40.9203C176.444 40.9138 176.444 40.9073 176.444 40.9009C176.444 40.8944 176.444 40.8879 176.444 40.8815C176.444 40.875 176.444 40.8685 176.444 40.8621C176.444 40.8556 176.444 40.8492 176.444 40.8427C176.444 40.8362 176.444 40.8298 176.444 40.8233C176.444 40.8169 176.444 40.8104 176.444 40.804C176.444 40.7976 176.444 40.7911 176.444 40.7847C176.444 40.7782 176.444 40.7718 176.444 40.7654C176.444 40.7589 176.444 40.7525 176.444 40.7461C176.444 40.7396 176.444 40.7332 176.444 40.7268C176.444 40.7203 176.444 40.7139 176.444 40.7075C176.444 40.7011 176.444 40.6947 176.444 40.6882C176.444 40.6818 176.444 40.6754 176.444 40.669C176.444 40.6626 176.444 40.6562 176.444 40.6498C176.444 40.6434 176.444 40.637 176.444 40.6306C176.444 40.6242 176.444 40.6178 176.444 40.6114C176.444 40.605 176.444 40.5986 176.444 40.5922C176.444 40.5858 176.444 40.5794 176.444 40.573C176.444 40.5666 176.444 40.5602 176.444 40.5538C176.444 40.5475 176.444 40.5411 176.444 40.5347C176.444 40.5283 176.444 40.5219 176.444 40.5156C176.444 40.5092 176.444 40.5028 176.444 40.4965C176.444 40.4901 176.444 40.4837 176.444 40.4774C176.444 40.471 176.444 40.4646 176.444 40.4583C176.444 40.4519 176.444 40.4456 176.444 40.4392C176.444 40.4328 176.444 40.4265 176.444 40.4201C176.444 40.4138 176.444 40.4074 176.444 40.4011C176.444 40.3948 176.444 40.3884 176.444 40.3821C176.444 40.3757 176.444 40.3694 176.444 40.3631C176.444 40.3567 176.444 40.3504 176.444 40.3441C176.444 40.3377 176.444 40.3314 176.444 40.3251C176.444 40.3187 176.444 40.3124 176.444 40.3061C176.444 40.2998 176.444 40.2935 176.444 40.2871C176.444 40.2808 176.444 40.2745 176.444 40.2682C176.444 40.2619 176.444 40.2556 176.444 40.2493C176.444 40.243 176.444 40.2367 176.444 40.2304C176.444 40.2241 176.444 40.2178 176.444 40.2114C176.444 40.2052 176.444 40.1989 176.444 40.1926C176.444 40.1863 176.444 40.18 176.444 40.1737C176.444 40.1674 176.444 40.1611 176.444 40.1548C176.444 40.1486 176.444 40.1423 176.444 40.136C176.444 40.1297 176.444 40.1234 176.444 40.1172C176.444 40.1109 176.444 40.1046 176.444 40.0983C176.444 40.0921 176.444 40.0858 176.444 40.0795C176.444 40.0733 176.444 40.067 176.444 40.0608C176.444 40.0545 176.444 40.0482 176.444 40.042C176.444 40.0357 176.444 40.0295 176.444 40.0232C176.444 40.017 176.444 40.0107 176.444 40.0045C176.444 39.9982 176.444 39.992 176.444 39.9858C176.444 39.9795 176.444 39.9733 176.444 39.967C176.444 39.9608 176.444 39.9546 176.444 39.9483C176.444 39.9421 176.444 39.9359 176.444 39.9296C176.444 39.9234 176.444 39.9172 176.444 39.911C176.444 39.9048 176.444 39.8985 176.444 39.8923C176.444 39.8861 176.444 39.8799 176.444 39.8737C176.444 39.8675 176.444 39.8613 176.444 39.855C176.444 39.8488 176.444 39.8426 176.444 39.8364C176.444 39.8302 176.444 39.824 176.444 39.8178C176.444 39.8116 176.444 39.8054 176.444 39.7992C176.444 39.793 176.444 39.7869 176.444 39.7807C176.444 39.7745 176.444 39.7683 176.444 39.7621C176.444 39.7559 176.444 39.7497 176.444 39.7436C176.444 39.7374 176.444 39.7312 176.444 39.725C176.444 39.7189 176.444 39.7127 176.444 39.7065C176.444 39.7003 176.444 39.6942 176.444 39.688C176.444 39.6818 176.444 39.6757 176.444 39.6695C176.444 39.6634 176.444 39.6572 176.444 39.6511C176.444 39.6449 176.444 39.6387 176.444 39.6326C176.444 39.6264 176.444 39.6203 176.444 39.6142C176.444 39.608 176.444 39.6019 176.444 39.5957C176.444 39.5896 176.444 39.5834 176.444 39.5773C176.444 39.5712 176.444 39.565 176.444 39.5589C176.444 39.5528 176.444 39.5466 176.444 39.5405C176.444 39.5344 176.444 39.5283 176.444 39.5221C176.444 39.516 176.444 39.5099 176.444 39.5038C176.444 39.4977 176.444 39.4915 176.444 39.4854C176.444 39.4793 176.444 39.4732 176.444 39.4671C176.444 39.461 176.444 39.4549 176.444 39.4488C176.444 39.4427 176.444 39.4366 176.444 39.4305C176.444 39.4244 176.444 39.4183 176.444 39.4122C176.444 39.4061 176.444 39.4 176.444 39.3939C176.444 39.3878 176.444 39.3818 176.444 39.3757C176.444 39.3696 176.444 39.3635 176.444 39.3574C176.444 39.3513 176.444 39.3453 176.444 39.3392C176.444 39.3331 176.444 39.327 176.444 39.321C176.444 39.3149 176.444 39.3088 176.444 39.3028C176.444 39.2967 176.444 39.2906 176.444 39.2846C176.444 39.2785 176.444 39.2725 176.444 39.2664C176.444 39.2604 176.444 39.2543 176.444 39.2482C176.444 39.2422 176.444 39.2361 176.444 39.2301C176.444 39.2241 176.444 39.218 176.444 39.212C176.444 39.2059 176.444 39.1999 176.444 39.1939C176.444 39.1878 176.444 39.1818 176.444 39.1758C176.444 39.1697 176.444 39.1637 176.444 39.1577C176.444 39.1516 176.444 39.1456 176.444 39.1396C176.444 39.1336 176.444 39.1275 176.444 39.1215C176.444 39.1155 176.444 39.1095 176.444 39.1035C176.444 39.0975 176.444 39.0915 176.444 39.0854H172.444C172.444 39.0915 172.444 39.0975 172.444 39.1035C172.444 39.1095 172.444 39.1155 172.444 39.1215C172.444 39.1275 172.444 39.1336 172.444 39.1396C172.444 39.1456 172.444 39.1516 172.444 39.1577C172.444 39.1637 172.444 39.1697 172.444 39.1758C172.444 39.1818 172.444 39.1878 172.444 39.1939C172.444 39.1999 172.444 39.2059 172.444 39.212C172.444 39.218 172.444 39.2241 172.444 39.2301C172.444 39.2361 172.444 39.2422 172.444 39.2482C172.444 39.2543 172.444 39.2604 172.444 39.2664C172.444 39.2725 172.444 39.2785 172.444 39.2846C172.444 39.2906 172.444 39.2967 172.444 39.3028C172.444 39.3088 172.444 39.3149 172.444 39.321C172.444 39.327 172.444 39.3331 172.444 39.3392C172.444 39.3453 172.444 39.3513 172.444 39.3574C172.444 39.3635 172.444 39.3696 172.444 39.3757C172.444 39.3818 172.444 39.3878 172.444 39.3939C172.444 39.4 172.444 39.4061 172.444 39.4122C172.444 39.4183 172.444 39.4244 172.444 39.4305C172.444 39.4366 172.444 39.4427 172.444 39.4488C172.444 39.4549 172.444 39.461 172.444 39.4671C172.444 39.4732 172.444 39.4793 172.444 39.4854C172.444 39.4915 172.444 39.4977 172.444 39.5038C172.444 39.5099 172.444 39.516 172.444 39.5221C172.444 39.5283 172.444 39.5344 172.444 39.5405C172.444 39.5466 172.444 39.5528 172.444 39.5589C172.444 39.565 172.444 39.5712 172.444 39.5773C172.444 39.5834 172.444 39.5896 172.444 39.5957C172.444 39.6019 172.444 39.608 172.444 39.6142C172.444 39.6203 172.444 39.6264 172.444 39.6326C172.444 39.6387 172.444 39.6449 172.444 39.6511C172.444 39.6572 172.444 39.6634 172.444 39.6695C172.444 39.6757 172.444 39.6818 172.444 39.688C172.444 39.6942 172.444 39.7003 172.444 39.7065C172.444 39.7127 172.444 39.7189 172.444 39.725C172.444 39.7312 172.444 39.7374 172.444 39.7436C172.444 39.7497 172.444 39.7559 172.444 39.7621C172.444 39.7683 172.444 39.7745 172.444 39.7807C172.444 39.7869 172.444 39.793 172.444 39.7992C172.444 39.8054 172.444 39.8116 172.444 39.8178C172.444 39.824 172.444 39.8302 172.444 39.8364C172.444 39.8426 172.444 39.8488 172.444 39.855C172.444 39.8613 172.444 39.8675 172.444 39.8737C172.444 39.8799 172.444 39.8861 172.444 39.8923C172.444 39.8985 172.444 39.9048 172.444 39.911C172.444 39.9172 172.444 39.9234 172.444 39.9296C172.444 39.9359 172.444 39.9421 172.444 39.9483C172.444 39.9546 172.444 39.9608 172.444 39.967C172.444 39.9733 172.444 39.9795 172.444 39.9858C172.444 39.992 172.444 39.9982 172.444 40.0045C172.444 40.0107 172.444 40.017 172.444 40.0232C172.444 40.0295 172.444 40.0357 172.444 40.042C172.444 40.0482 172.444 40.0545 172.444 40.0608C172.444 40.067 172.444 40.0733 172.444 40.0795C172.444 40.0858 172.444 40.0921 172.444 40.0983C172.444 40.1046 172.444 40.1109 172.444 40.1172C172.444 40.1234 172.444 40.1297 172.444 40.136C172.444 40.1423 172.444 40.1486 172.444 40.1548C172.444 40.1611 172.444 40.1674 172.444 40.1737C172.444 40.18 172.444 40.1863 172.444 40.1926C172.444 40.1989 172.444 40.2052 172.444 40.2114C172.444 40.2178 172.444 40.2241 172.444 40.2304C172.444 40.2367 172.444 40.243 172.444 40.2493C172.444 40.2556 172.444 40.2619 172.444 40.2682C172.444 40.2745 172.444 40.2808 172.444 40.2871C172.444 40.2935 172.444 40.2998 172.444 40.3061C172.444 40.3124 172.444 40.3187 172.444 40.3251C172.444 40.3314 172.444 40.3377 172.444 40.3441C172.444 40.3504 172.444 40.3567 172.444 40.3631C172.444 40.3694 172.444 40.3757 172.444 40.3821C172.444 40.3884 172.444 40.3948 172.444 40.4011C172.444 40.4074 172.444 40.4138 172.444 40.4201C172.444 40.4265 172.444 40.4328 172.444 40.4392C172.444 40.4456 172.444 40.4519 172.444 40.4583C172.444 40.4646 172.444 40.471 172.444 40.4774C172.444 40.4837 172.444 40.4901 172.444 40.4965C172.444 40.5028 172.444 40.5092 172.444 40.5156C172.444 40.5219 172.444 40.5283 172.444 40.5347C172.444 40.5411 172.444 40.5475 172.444 40.5538C172.444 40.5602 172.444 40.5666 172.444 40.573C172.444 40.5794 172.444 40.5858 172.444 40.5922C172.444 40.5986 172.444 40.605 172.444 40.6114C172.444 40.6178 172.444 40.6242 172.444 40.6306C172.444 40.637 172.444 40.6434 172.444 40.6498C172.444 40.6562 172.444 40.6626 172.444 40.669C172.444 40.6754 172.444 40.6818 172.444 40.6882C172.444 40.6947 172.444 40.7011 172.444 40.7075C172.444 40.7139 172.444 40.7203 172.444 40.7268C172.444 40.7332 172.444 40.7396 172.444 40.7461C172.444 40.7525 172.444 40.7589 172.444 40.7654C172.444 40.7718 172.444 40.7782 172.444 40.7847C172.444 40.7911 172.444 40.7976 172.444 40.804C172.444 40.8104 172.444 40.8169 172.444 40.8233C172.444 40.8298 172.444 40.8362 172.444 40.8427C172.444 40.8492 172.444 40.8556 172.444 40.8621C172.444 40.8685 172.444 40.875 172.444 40.8815C172.444 40.8879 172.444 40.8944 172.444 40.9009C172.444 40.9073 172.444 40.9138 172.444 40.9203C172.444 40.9267 172.444 40.9332 172.444 40.9397C172.444 40.9462 172.444 40.9527 172.444 40.9591C172.444 40.9656 172.444 40.9721 172.444 40.9786C172.444 40.9851 172.444 40.9916 172.444 40.9981C172.444 41.0046 172.444 41.0111 172.444 41.0176C172.444 41.024 172.444 41.0305 172.444 41.037C172.444 41.0436 172.444 41.0501 172.444 41.0566C172.444 41.0631 172.444 41.0696 172.444 41.0761C172.444 41.0826 172.444 41.0891 172.444 41.0956C172.444 41.1021 172.444 41.1087 172.444 41.1152C172.444 41.1217 172.444 41.1282 172.444 41.1348C172.444 41.1413 172.444 41.1478 172.444 41.1543C172.444 41.1609 172.444 41.1674 172.444 41.1739C172.444 41.1805 172.444 41.187 172.444 41.1936C172.444 41.2001 172.444 41.2066 172.444 41.2132C172.444 41.2197 172.444 41.2263 172.444 41.2328C172.444 41.2394 172.444 41.2459 172.444 41.2525C172.444 41.259 172.444 41.2656 172.444 41.2722C172.444 41.2787 172.444 41.2853 172.444 41.2918C172.444 41.2984 172.444 41.305 172.444 41.3115C172.444 41.3181 172.444 41.3247 172.444 41.3313C172.444 41.3378 172.444 41.3444 172.444 41.351C172.444 41.3576 172.444 41.3641 172.444 41.3707C172.444 41.3773 172.444 41.3839 172.444 41.3905C172.444 41.3971 172.444 41.4036 172.444 41.4102C172.444 41.4168 172.444 41.4234 172.444 41.43C172.444 41.4366 172.444 41.4432 172.444 41.4498C172.444 41.4564 172.444 41.463 172.444 41.4696C172.444 41.4762 172.444 41.4829 172.444 41.4895C172.444 41.4961 172.444 41.5027 172.444 41.5093C172.444 41.5159 172.444 41.5225 172.444 41.5292C172.444 41.5358 172.444 41.5424 172.444 41.549C172.444 41.5557 172.444 41.5623 172.444 41.5689C172.444 41.5755 172.444 41.5822 172.444 41.5888C172.444 41.5955 172.444 41.6021 172.444 41.6087C172.444 41.6154 172.444 41.622 172.444 41.6287C172.444 41.6353 172.444 41.6419 172.444 41.6486C172.444 41.6552 172.444 41.6619 172.444 41.6685C172.444 41.6752 172.444 41.6819 172.444 41.6885C172.444 41.6952 172.444 41.7018 172.444 41.7085C172.444 41.7152 172.444 41.7218 172.444 41.7285C172.444 41.7352 172.444 41.7418 172.444 41.7485C172.444 41.7552 172.444 41.7619 172.444 41.7685C172.444 41.7752 172.444 41.7819 172.444 41.7886C172.444 41.7953 172.444 41.8019 172.444 41.8086C172.444 41.8153 172.444 41.822 172.444 41.8287C172.444 41.8354 172.444 41.8421 172.444 41.8488C172.444 41.8555 172.444 41.8622 172.444 41.8689C172.444 41.8756 172.444 41.8823 172.444 41.889C172.444 41.8957 172.444 41.9024 172.444 41.9091C172.444 41.9158 172.444 41.9225 172.444 41.9293C172.444 41.936 172.444 41.9427 172.444 41.9494C172.444 41.9561 172.444 41.9629 172.444 41.9696C172.444 41.9763 172.444 41.983 172.444 41.9898C172.444 41.9965 172.444 42.0032 172.444 42.01C172.444 42.0167 172.444 42.0234 172.444 42.0302C172.444 42.0369 172.444 42.0437 172.444 42.0504C172.444 42.0572 172.444 42.0639 172.444 42.0706C172.444 42.0774 172.444 42.0841 172.444 42.0909C172.444 42.0977 172.444 42.1044 172.444 42.1112C172.444 42.1179 172.444 42.1247 172.444 42.1315C172.444 42.1382 172.444 42.145 172.444 42.1517C172.444 42.1585 172.444 42.1653 172.444 42.1721C172.444 42.1788 172.444 42.1856 172.444 42.1924C172.444 42.1992 172.444 42.2059 172.444 42.2127C172.444 42.2195 172.444 42.2263 172.444 42.2331C172.444 42.2399 172.444 42.2467 172.444 42.2534C172.444 42.2602 172.444 42.267 172.444 42.2738C172.444 42.2806 172.444 42.2874 172.444 42.2942C172.444 42.301 172.444 42.3078 172.444 42.3146C172.444 42.3214 172.444 42.3283 172.444 42.3351C172.444 42.3419 172.444 42.3487 172.444 42.3555C172.444 42.3623 172.444 42.3691 172.444 42.376C172.444 42.3828 172.444 42.3896 172.444 42.3964C172.444 42.4033 172.444 42.4101 172.444 42.4169C172.444 42.4237 172.444 42.4306 172.444 42.4374C172.444 42.4442 172.444 42.4511 172.444 42.4579C172.444 42.4648 172.444 42.4716 172.444 42.4784C172.444 42.4853 172.444 42.4921 172.444 42.499C172.444 42.5058 172.444 42.5127 172.444 42.5195C172.444 42.5264 172.444 42.5332 172.444 42.5401C172.444 42.547 172.444 42.5538 172.444 42.5607C172.444 42.5676 172.444 42.5744 172.444 42.5813C172.444 42.5882 172.444 42.595 172.444 42.6019C172.444 42.6088 172.444 42.6156 172.444 42.6225C172.444 42.6294 172.444 42.6363 172.444 42.6432C172.444 42.65 172.444 42.6569 172.444 42.6638C172.444 42.6707 172.444 42.6776 172.444 42.6845C172.444 42.6914 172.444 42.6983 172.444 42.7052C172.444 42.7121 172.444 42.719 172.444 42.7259C172.444 42.7328 172.444 42.7397 172.444 42.7466C172.444 42.7535 172.444 42.7604 172.444 42.7673C172.444 42.7742 172.444 42.7811 172.444 42.788C172.444 42.7949 172.444 42.8019 172.444 42.8088C172.444 42.8157 172.444 42.8226 172.444 42.8296C172.444 42.8365 172.444 42.8434 172.444 42.8503C172.444 42.8573 172.444 42.8642 172.444 42.8711C172.444 42.8781 172.444 42.885 172.444 42.8919C172.444 42.8989 172.444 42.9058 172.444 42.9128C172.444 42.9197 172.444 42.9267 172.444 42.9336C172.444 42.9406 172.444 42.9475 172.444 42.9545C172.444 42.9614 172.444 42.9684 172.444 42.9753C172.444 42.9823 172.444 42.9892 172.444 42.9962C172.444 43.0032 172.444 43.0101 172.444 43.0171C172.444 43.0241 172.444 43.031 172.444 43.038C172.444 43.045 172.444 43.052 172.444 43.0589C172.444 43.0659 172.444 43.0729 172.444 43.0799C172.444 43.0869 172.444 43.0938 172.444 43.1008C172.444 43.1078 172.444 43.1148 172.444 43.1218C172.444 43.1288 172.444 43.1358 172.444 43.1428C172.444 43.1498 172.444 43.1568 172.444 43.1638C172.444 43.1708 172.444 43.1778 172.444 43.1848C172.444 43.1918 172.444 43.1988 172.444 43.2058C172.444 43.2128 172.444 43.2198 172.444 43.2268C172.444 43.2339 172.444 43.2409 172.444 43.2479C172.444 43.2549 172.444 43.2619 172.444 43.269C172.444 43.276 172.444 43.283 172.444 43.29C172.444 43.2971 172.444 43.3041 172.444 43.3111C172.444 43.3182 172.444 43.3252 172.444 43.3322C172.444 43.3393 172.444 43.3463 172.444 43.3534C172.444 43.3604 172.444 43.3675 172.444 43.3745C172.444 43.3816 172.444 43.3886 172.444 43.3957C172.444 43.4027 172.444 43.4098 172.444 43.4168C172.444 43.4239 172.444 43.4309 172.444 43.438C172.444 43.4451 172.444 43.4521 172.444 43.4592C172.444 43.4663 172.444 43.4733 172.444 43.4804C172.444 43.4875 172.444 43.4946 172.444 43.5016C172.444 43.5087 172.444 43.5158 172.444 43.5229C172.444 43.53 172.444 43.537 172.444 43.5441C172.444 43.5512 172.444 43.5583 172.444 43.5654C172.444 43.5725 172.444 43.5796 172.444 43.5867C172.444 43.5938 172.444 43.6009 172.444 43.608C172.444 43.6151 172.444 43.6222 172.444 43.6293C172.444 43.6364 172.444 43.6435 172.444 43.6506C172.444 43.6577 172.444 43.6648 172.444 43.6719C172.444 43.679 172.444 43.6862 172.444 43.6933C172.444 43.7004 172.444 43.7075 172.444 43.7147C172.444 43.7218 172.444 43.7289 172.444 43.736C172.444 43.7432 172.444 43.7503 172.444 43.7574C172.444 43.7646 172.444 43.7717 172.444 43.7788C172.444 43.786 172.444 43.7931 172.444 43.8003C172.444 43.8074 172.444 43.8145 172.444 43.8217C172.444 43.8288 172.444 43.836 172.444 43.8431C172.444 43.8503 172.444 43.8575 172.444 43.8646C172.444 43.8718 172.444 43.8789 172.444 43.8861C172.444 43.8932 172.444 43.9004 172.444 43.9076C172.444 43.9147 172.444 43.9219 172.444 43.9291C172.444 43.9363 172.444 43.9434 172.444 43.9506C172.444 43.9578 172.444 43.965 172.444 43.9722C172.444 43.9793 172.444 43.9865 172.444 43.9937C172.444 44.0009 172.444 44.0081 172.444 44.0153C172.444 44.0225 172.444 44.0297 172.444 44.0368C172.444 44.044 172.444 44.0512 172.444 44.0584C172.444 44.0656 172.444 44.0728 172.444 44.08C172.444 44.0873 172.444 44.0945 172.444 44.1017C172.444 44.1089 172.444 44.1161 172.444 44.1233C172.444 44.1305 172.444 44.1377 172.444 44.145C172.444 44.1522 172.444 44.1594 172.444 44.1666C172.444 44.1739 172.444 44.1811 172.444 44.1883C172.444 44.1955 172.444 44.2028 172.444 44.21C172.444 44.2172 172.444 44.2245 172.444 44.2317C172.444 44.2389 172.444 44.2462 172.444 44.2534C172.444 44.2607 172.444 44.2679 172.444 44.2752C172.444 44.2824 172.444 44.2897 172.444 44.2969C172.444 44.3042 172.444 44.3114 172.444 44.3187C172.444 44.3259 172.444 44.3332 172.444 44.3405C172.444 44.3477 172.444 44.355 172.444 44.3623C172.444 44.3695 172.444 44.3768 172.444 44.3841C172.444 44.3913 172.444 44.3986 172.444 44.4059C172.444 44.4132 172.444 44.4204 172.444 44.4277C172.444 44.435 172.444 44.4423 172.444 44.4496C172.444 44.4569 172.444 44.4641 172.444 44.4714C172.444 44.4787 172.444 44.486 172.444 44.4933C172.444 44.5006 172.444 44.5079 172.444 44.5152C172.444 44.5225 172.444 44.5298 172.444 44.5371C172.444 44.5444 172.444 44.5517 172.444 44.559C172.444 44.5663 172.444 44.5737 172.444 44.581C172.444 44.5883 172.444 44.5956 172.444 44.6029C172.444 44.6102 172.444 44.6176 172.444 44.6249C172.444 44.6322 172.444 44.6395 172.444 44.6469C172.444 44.6542 172.444 44.6615 172.444 44.6689C172.444 44.6762 172.444 44.6835 172.444 44.6909C172.444 44.6982 172.444 44.7055 172.444 44.7129C172.444 44.7202 172.444 44.7276 172.444 44.7349C172.444 44.7423 172.444 44.7496 172.444 44.757C172.444 44.7643 172.444 44.7717 172.444 44.779C172.444 44.7864 172.444 44.7938 172.444 44.8011C172.444 44.8085 172.444 44.8158 172.444 44.8232C172.444 44.8306 172.444 44.8379 172.444 44.8453C172.444 44.8527 172.444 44.8601 172.444 44.8674C172.444 44.8748 172.444 44.8822 172.444 44.8896C172.444 44.8969 172.444 44.9043 172.444 44.9117C172.444 44.9191 172.444 44.9265 172.444 44.9339C172.444 44.9413 172.444 44.9487 172.444 44.9561C172.444 44.9635 172.444 44.9709 172.444 44.9783C172.444 44.9856 172.444 44.9931 172.444 45.0005C172.444 45.0079 172.444 45.0153 172.444 45.0227C172.444 45.0301 172.444 45.0375 172.444 45.0449C172.444 45.0523 172.444 45.0597 172.444 45.0672C172.444 45.0746 172.444 45.082 172.444 45.0894C172.444 45.0969 172.444 45.1043 172.444 45.1117C172.444 45.1191 172.444 45.1266 172.444 45.134C172.444 45.1414 172.444 45.1489 172.444 45.1563C172.444 45.1637 172.444 45.1712 172.444 45.1786C172.444 45.1861 172.444 45.1935 172.444 45.201C172.444 45.2084 172.444 45.2159 172.444 45.2233C172.444 45.2308 172.444 45.2382 172.444 45.2457C172.444 45.2531 172.444 45.2606 172.444 45.2681C172.444 45.2755 172.444 45.283 172.444 45.2904C172.444 45.2979 172.444 45.3054 172.444 45.3129C172.444 45.3203 172.444 45.3278 172.444 45.3353C172.444 45.3427 172.444 45.3502 172.444 45.3577C172.444 45.3652 172.444 45.3727 172.444 45.3801C172.444 45.3876 172.444 45.3951 172.444 45.4026C172.444 45.4101 172.444 45.4176 172.444 45.4251C172.444 45.4326 172.444 45.4401 172.444 45.4476C172.444 45.4551 172.444 45.4626 172.444 45.4701C172.444 45.4776 172.444 45.4851 172.444 45.4926C172.444 45.5001 172.444 45.5076 172.444 45.5151C172.444 45.5227 172.444 45.5302 172.444 45.5377C172.444 45.5452 172.444 45.5527 172.444 45.5603C172.444 45.5678 172.444 45.5753 172.444 45.5828C172.444 45.5904 172.444 45.5979 172.444 45.6054C172.444 45.613 172.444 45.6205 172.444 45.628C172.444 45.6356 172.444 45.6431 172.444 45.6507C172.444 45.6582 172.444 45.6657 172.444 45.6733C172.444 45.6808 172.444 45.6884 172.444 45.6959C172.444 45.7035 172.444 45.711 172.444 45.7186C172.444 45.7262 172.444 45.7337 172.444 45.7413C172.444 45.7488 172.444 45.7564 172.444 45.764C172.444 45.7715 172.444 45.7791 172.444 45.7867C172.444 45.7942 172.444 45.8018 172.444 45.8094C172.444 45.817 172.444 45.8245 172.444 45.8321C172.444 45.8397 172.444 45.8473 172.444 45.8549C172.444 45.8625 172.444 45.87 172.444 45.8776C172.444 45.8852 172.444 45.8928 172.444 45.9004C172.444 45.908 172.444 45.9156 172.444 45.9232C172.444 45.9308 172.444 45.9384 172.444 45.946C172.444 45.9536 172.444 45.9612 172.444 45.9688C172.444 45.9764 172.444 45.984 172.444 45.9917C172.444 45.9993 172.444 46.0069 172.444 46.0145C172.444 46.0221 172.444 46.0297 172.444 46.0374C172.444 46.045 172.444 46.0526 172.444 46.0602C172.444 46.0679 172.444 46.0755 172.444 46.0831C172.444 46.0908 172.444 46.0984 172.444 46.106C172.444 46.1137 172.444 46.1213 172.444 46.129C172.444 46.1366 172.444 46.1442 172.444 46.1519C172.444 46.1595 172.444 46.1672 172.444 46.1748C172.444 46.1825 172.444 46.1901 172.444 46.1978C172.444 46.2055 172.444 46.2131 172.444 46.2208C172.444 46.2284 172.444 46.2361 172.444 46.2438C172.444 46.2514 172.444 46.2591 172.444 46.2668C172.444 46.2744 172.444 46.2821 172.444 46.2898C172.444 46.2975 172.444 46.3051 172.444 46.3128C172.444 46.3205 172.444 46.3282 172.444 46.3359C172.444 46.3436 172.444 46.3512 172.444 46.3589C172.444 46.3666 172.444 46.3743 172.444 46.382C172.444 46.3897 172.444 46.3974 172.444 46.4051C172.444 46.4128 172.444 46.4205 172.444 46.4282C172.444 46.4359 172.444 46.4436 172.444 46.4513C172.444 46.459 172.444 46.4667 172.444 46.4744C172.444 46.4822 172.444 46.4899 172.444 46.4976C172.444 46.5053 172.444 46.513 172.444 46.5208C172.444 46.5285 172.444 46.5362 172.444 46.5439C172.444 46.5517 172.444 46.5594 172.444 46.5671C172.444 46.5749 172.444 46.5826 172.444 46.5903C172.444 46.5981 172.444 46.6058 172.444 46.6135C172.444 46.6213 172.444 46.629 172.444 46.6368C172.444 46.6445 172.444 46.6523 172.444 46.66C172.444 46.6678 172.444 46.6755 172.444 46.6833C172.444 46.691 172.444 46.6988 172.444 46.7066C172.444 46.7143 172.444 46.7221 172.444 46.7299C172.444 46.7376 172.444 46.7454 172.444 46.7532C172.444 46.7609 172.444 46.7687 172.444 46.7765C172.444 46.7842 172.444 46.792 172.444 46.7998C172.444 46.8076 172.444 46.8154 172.444 46.8232C172.444 46.8309 172.444 46.8387 172.444 46.8465C172.444 46.8543 172.444 46.8621 172.444 46.8699C172.444 46.8777 172.444 46.8855 172.444 46.8933C172.444 46.9011 172.444 46.9089 172.444 46.9167C172.444 46.9245 172.444 46.9323 172.444 46.9401C172.444 46.9479 172.444 46.9557 172.444 46.9635C172.444 46.9713 172.444 46.9792 172.444 46.987C172.444 46.9948 172.444 47.0026 172.444 47.0104C172.444 47.0183 172.444 47.0261 172.444 47.0339C172.444 47.0417 172.444 47.0496 172.444 47.0574C172.444 47.0652 172.444 47.0731 172.444 47.0809C172.444 47.0887 172.444 47.0966 172.444 47.1044C172.444 47.1123 172.444 47.1201 172.444 47.128C172.444 47.1358 172.444 47.1437 172.444 47.1515C172.444 47.1594 172.444 47.1672 172.444 47.1751C172.444 47.1829 172.444 47.1908 172.444 47.1986C172.444 47.2065 172.444 47.2144 172.444 47.2222C172.444 47.2301 172.444 47.238 172.444 47.2458C172.444 47.2537 172.444 47.2616 172.444 47.2694C172.444 47.2773 172.444 47.2852 172.444 47.2931C172.444 47.301 172.444 47.3088 172.444 47.3167C172.444 47.3246 172.444 47.3325 172.444 47.3404C172.444 47.3483 172.444 47.3562 172.444 47.3641C172.444 47.3719 172.444 47.3798 172.444 47.3877C172.444 47.3956 172.444 47.4035 172.444 47.4114C172.444 47.4193 172.444 47.4273 172.444 47.4352C172.444 47.4431 172.444 47.451 172.444 47.4589C172.444 47.4668 172.444 47.4747 172.444 47.4826C172.444 47.4906 172.444 47.4985 172.444 47.5064C172.444 47.5143 172.444 47.5222 172.444 47.5302C172.444 47.5381 172.444 47.546 172.444 47.554C172.444 47.5619 172.444 47.5698 172.444 47.5778C172.444 47.5857 172.444 47.5936 172.444 47.6016C172.444 47.6095 172.444 47.6175 172.444 47.6254C172.444 47.6334 172.444 47.6413 172.444 47.6493C172.444 47.6572 172.444 47.6652 172.444 47.6731C172.444 47.6811 172.444 47.689 172.444 47.697C172.444 47.705 172.444 47.7129 172.444 47.7209C172.444 47.7288 172.444 47.7368 172.444 47.7448C172.444 47.7528 172.444 47.7607 172.444 47.7687C172.444 47.7767 172.444 47.7847 172.444 47.7926C172.444 47.8006 172.444 47.8086 172.444 47.8166C172.444 47.8246 172.444 47.8326 172.444 47.8405C172.444 47.8485 172.444 47.8565 172.444 47.8645C172.444 47.8725 172.444 47.8805 172.444 47.8885C172.444 47.8965 172.444 47.9045 172.444 47.9125C172.444 47.9205 172.444 47.9285 172.444 47.9365C172.444 47.9445 172.444 47.9525 172.444 47.9605C172.444 47.9686 172.444 47.9766 172.444 47.9846C172.444 47.9926 172.444 48.0006 172.444 48.0087C172.444 48.0167 172.444 48.0247 172.444 48.0327C172.444 48.0407 172.444 48.0488 172.444 48.0568C172.444 48.0648 172.444 48.0729 172.444 48.0809C172.444 48.089 172.444 48.097 172.444 48.105C172.444 48.1131 172.444 48.1211 172.444 48.1292C172.444 48.1372 172.444 48.1452 172.444 48.1533C172.444 48.1614 172.444 48.1694 172.444 48.1775C172.444 48.1855 172.444 48.1936 172.444 48.2016C172.444 48.2097 172.444 48.2178 172.444 48.2258C172.444 48.2339 172.444 48.242 172.444 48.25C172.444 48.2581 172.444 48.2662 172.444 48.2742C172.444 48.2823 172.444 48.2904 172.444 48.2985C172.444 48.3065 172.444 48.3146 172.444 48.3227C172.444 48.3308 172.444 48.3389 172.444 48.347C172.444 48.3551 172.444 48.3632 172.444 48.3712C172.444 48.3793 172.444 48.3874 172.444 48.3955C172.444 48.4036 172.444 48.4117 172.444 48.4198C172.444 48.4279 172.444 48.436 172.444 48.4441C172.444 48.4523 172.444 48.4604 172.444 48.4685C172.444 48.4766 172.444 48.4847 172.444 48.4928C172.444 48.5009 172.444 48.5091 172.444 48.5172C172.444 48.5253 172.444 48.5334 172.444 48.5415C172.444 48.5497 172.444 48.5578 172.444 48.5659C172.444 48.5741 172.444 48.5822 172.444 48.5903C172.444 48.5985 172.444 48.6066 172.444 48.6148C172.444 48.6229 172.444 48.631 172.444 48.6392C172.444 48.6473 172.444 48.6555 172.444 48.6636C172.444 48.6718 172.444 48.6799 172.444 48.6881C172.444 48.6962 172.444 48.7044 172.444 48.7126C172.444 48.7207 172.444 48.7289 172.444 48.737C172.444 48.7452 172.444 48.7534 172.444 48.7615C172.444 48.7697 172.444 48.7779 172.444 48.7861C172.444 48.7942 172.444 48.8024 172.444 48.8106C172.444 48.8188 172.444 48.827 172.444 48.8351C172.444 48.8433 172.444 48.8515 172.444 48.8597C172.444 48.8679 172.444 48.8761 172.444 48.8843C172.444 48.8925 172.444 48.9007 172.444 48.9089C172.444 48.917 172.444 48.9252 172.444 48.9334C172.444 48.9417 172.444 48.9499 172.444 48.9581C172.444 48.9663 172.444 48.9745 172.444 48.9827C172.444 48.9909 172.444 48.9991 172.444 49.0073C172.444 49.0156 172.444 49.0238 172.444 49.032C172.444 49.0402 172.444 49.0484 172.444 49.0567C172.444 49.0649 172.444 49.0731 172.444 49.0814C172.444 49.0896 172.444 49.0978 172.444 49.106C172.444 49.1143 172.444 49.1225 172.444 49.1308C172.444 49.139 172.444 49.1472 172.444 49.1555C172.444 49.1637 172.444 49.172 172.444 49.1802C172.444 49.1885 172.444 49.1967 172.444 49.205C172.444 49.2132 172.444 49.2215 172.444 49.2298C172.444 49.238 172.444 49.2463 172.444 49.2546C172.444 49.2628 172.444 49.2711 172.444 49.2794C172.444 49.2876 172.444 49.2959 172.444 49.3042C172.444 49.3124 172.444 49.3207 172.444 49.329C172.444 49.3373 172.444 49.3456 172.444 49.3538C172.444 49.3621 172.444 49.3704 172.444 49.3787C172.444 49.387 172.444 49.3953 172.444 49.4036C172.444 49.4119 172.444 49.4202 172.444 49.4285C172.444 49.4368 172.444 49.445 172.444 49.4534C172.444 49.4617 172.444 49.47 172.444 49.4783C172.444 49.4866 172.444 49.4949 172.444 49.5032C172.444 49.5115 172.444 49.5198 172.444 49.5281C172.444 49.5365 172.444 49.5448 172.444 49.5531C172.444 49.5614 172.444 49.5697 172.444 49.5781C172.444 49.5864 172.444 49.5947 172.444 49.6031C172.444 49.6114 172.444 49.6197 172.444 49.628C172.444 49.6364 172.444 49.6447 172.444 49.6531C172.444 49.6614 172.444 49.6697 172.444 49.6781C172.444 49.6864 172.444 49.6948 172.444 49.7031C172.444 49.7115 172.444 49.7198 172.444 49.7282C172.444 49.7365 172.444 49.7449 172.444 49.7533C172.444 49.7616 172.444 49.77 172.444 49.7783C172.444 49.7867 172.444 49.7951 172.444 49.8034C172.444 49.8118 172.444 49.8202 172.444 49.8286C172.444 49.8369 172.444 49.8453 172.444 49.8537C172.444 49.8621 172.444 49.8704 172.444 49.8788C172.444 49.8872 172.444 49.8956 172.444 49.904C172.444 49.9124 172.444 49.9208 172.444 49.9292C172.444 49.9375 172.444 49.9459 172.444 49.9543C172.444 49.9627 172.444 49.9711 172.444 49.9795C172.444 49.9879 172.444 49.9963 172.444 50.0048C172.444 50.0132 172.444 50.0216 172.444 50.03C172.444 50.0384 172.444 50.0468 172.444 50.0552C172.444 50.0636 172.444 50.0721 172.444 50.0805C172.444 50.0889 172.444 50.0973 172.444 50.1057C172.444 50.1142 172.444 50.1226 172.444 50.131C172.444 50.1395 172.444 50.1479 172.444 50.1563C172.444 50.1648 172.444 50.1732 172.444 50.1816H176.444ZM176.443 39.132C176.516 35.9853 176.59 33.1325 176.663 30.5732L172.664 30.459C172.591 33.0267 172.518 35.8868 172.444 39.0389L176.443 39.132ZM176.66 30.6271C176.806 28.0077 176.988 25.3513 177.206 22.6577L173.219 22.3345C172.998 25.0608 172.814 27.7511 172.667 30.4052L176.66 30.6271ZM173.776 21.1045C171.54 23.4134 169.462 25.3818 167.544 27.0161L170.138 30.0611C172.174 28.3262 174.345 26.2663 176.649 23.8877L173.776 21.1045ZM167.577 26.9881C165.596 28.6029 163.139 30.6199 160.207 33.0383L162.753 36.1238C165.681 33.7083 168.131 31.6969 170.104 30.089L167.577 26.9881ZM160.228 33.0211L141.881 47.7428L144.384 50.8626L162.732 36.141L160.228 33.0211ZM144.718 48.0826L135.159 35.6681L131.99 38.1083L141.548 50.5228L144.718 48.0826ZM134.795 38.4727L178.301 4.96439L175.86 1.79538L132.354 35.3037L134.795 38.4727ZM177.081 5.37988H192.242V1.37988H177.081V5.37988ZM190.242 3.37988V164H194.242V3.37988H190.242Z" fill="#8C694F" mask="url(#path-1-outside-1_113_91)"/>
</g>
</svg>
