<svg width="230" height="167" viewBox="0 0 230 167" fill="none" xmlns="http://www.w3.org/2000/svg">
<g opacity="0.3">
<mask id="path-1-outside-1_31_79" maskUnits="userSpaceOnUse" x="-2" y="-2" width="234" height="171" fill="black">
<rect fill="white" x="-2" y="-2" width="234" height="171"/>
<path d="M106.214 83.4702C106.214 96.5073 105.226 108.153 103.248 118.407C101.271 128.661 98.1577 137.34 93.9097 144.444C89.6616 151.549 84.1685 156.969 77.4302 160.704C70.6919 164.366 62.5986 166.197 53.1504 166.197C41.2119 166.197 31.3242 162.938 23.4873 156.419C15.7236 149.901 9.90088 140.489 6.01904 128.185C2.21045 115.807 0.306152 100.902 0.306152 83.4702C0.306152 66.3315 2.02734 51.6099 5.46973 39.3052C8.98535 26.9272 14.625 17.4424 22.3887 10.8506C30.1523 4.18555 40.4062 0.853027 53.1504 0.853027C65.2354 0.853027 75.1963 4.14893 83.0332 10.7407C90.8701 17.2593 96.6929 26.7075 100.501 39.0854C104.31 51.3901 106.214 66.1851 106.214 83.4702ZM18.6533 83.4702C18.6533 98.4116 19.7886 110.863 22.0591 120.824C24.3296 130.785 27.9917 138.255 33.0454 143.236C38.1724 148.143 44.874 150.597 53.1504 150.597C61.4268 150.597 68.0918 148.143 73.1455 143.236C78.2725 138.329 81.9712 130.895 84.2417 120.934C86.5854 110.973 87.7573 98.4849 87.7573 83.4702C87.7573 68.7485 86.6221 56.4438 84.3516 46.5562C82.0811 36.5952 78.4189 29.1245 73.3652 24.144C68.3115 19.0903 61.5732 16.5635 53.1504 16.5635C44.7275 16.5635 37.9893 19.0903 32.9355 24.144C27.8818 29.1245 24.2197 36.5952 21.9492 46.5562C19.752 56.4438 18.6533 68.7485 18.6533 83.4702ZM229.595 164H124.346V148.729L167.303 105.113C175.286 97.0566 181.988 89.8789 187.408 83.5801C192.901 77.2812 197.076 71.0923 199.932 65.0132C202.789 58.8608 204.217 52.1226 204.217 44.7983C204.217 35.7163 201.507 28.7949 196.087 24.0342C190.74 19.2002 183.672 16.7832 174.883 16.7832C167.193 16.7832 160.381 18.1016 154.449 20.7383C148.516 23.375 142.437 27.1104 136.211 31.9443L126.434 19.6396C130.682 16.0508 135.296 12.8647 140.276 10.0815C145.33 7.29834 150.713 5.10107 156.426 3.48975C162.212 1.87842 168.365 1.07275 174.883 1.07275C184.771 1.07275 193.304 2.79395 200.481 6.23633C207.659 9.67871 213.189 14.5859 217.071 20.958C221.026 27.3301 223.003 34.9106 223.003 43.6997C223.003 52.1958 221.319 60.106 217.95 67.4302C214.581 74.6812 209.856 81.8955 203.777 89.0732C197.698 96.1777 190.594 103.722 182.464 111.705L147.527 146.532V147.301H229.595V164Z"/>
</mask>
<path d="M77.4302 160.704L78.3852 162.461L78.3925 162.457L78.3998 162.453L77.4302 160.704ZM23.4873 156.419L22.2012 157.951L22.2084 157.957L23.4873 156.419ZM6.01904 128.185L4.10748 128.773L4.10957 128.78L4.11171 128.786L6.01904 128.185ZM5.46973 39.3052L3.54581 38.7587L3.54368 38.7663L5.46973 39.3052ZM22.3887 10.8506L23.6832 12.3752L23.6914 12.3681L22.3887 10.8506ZM83.0332 10.7407L81.7458 12.2713L81.7542 12.2783L83.0332 10.7407ZM100.501 39.0854L98.5899 39.6736L98.5909 39.6768L100.501 39.0854ZM33.0454 143.236L31.6416 144.66L31.652 144.671L31.6625 144.681L33.0454 143.236ZM73.1455 143.236L71.7626 141.791L71.7574 141.796L71.7522 141.801L73.1455 143.236ZM84.2417 120.934L82.2948 120.476L82.2917 120.489L84.2417 120.934ZM84.3516 46.5562L82.4016 47.0006L82.4023 47.0038L84.3516 46.5562ZM73.3652 24.144L71.951 25.5583L71.9562 25.5634L71.9614 25.5685L73.3652 24.144ZM32.9355 24.144L34.3394 25.5685L34.3446 25.5634L34.3498 25.5583L32.9355 24.144ZM21.9492 46.5562L19.9992 46.1117L19.9968 46.1223L21.9492 46.5562ZM104.214 83.4702C104.214 96.41 103.233 107.925 101.284 118.028L105.212 118.785C107.219 108.381 108.214 96.6046 108.214 83.4702H104.214ZM101.284 118.028C99.3398 128.111 96.295 136.558 92.1931 143.418L95.6262 145.471C100.02 138.122 103.201 129.211 105.212 118.785L101.284 118.028ZM92.1931 143.418C88.1121 150.243 82.8676 155.403 76.4605 158.955L78.3998 162.453C85.4693 158.534 91.2112 152.854 95.6262 145.471L92.1931 143.418ZM76.4752 158.947C70.0905 162.417 62.3415 164.197 53.1504 164.197V168.197C62.8558 168.197 71.2933 166.316 78.3852 162.461L76.4752 158.947ZM53.1504 164.197C41.5952 164.197 32.1843 161.052 24.7663 154.882L22.2084 157.957C30.4641 164.824 40.8286 168.197 53.1504 168.197V164.197ZM24.7733 154.888C17.3708 148.672 11.7247 139.623 7.92638 127.583L4.11171 128.786C8.07705 141.356 14.0764 151.129 22.2013 157.951L24.7733 154.888ZM7.9306 127.596C4.19693 115.462 2.30615 100.767 2.30615 83.4702H-1.69385C-1.69385 101.037 0.223972 116.151 4.10748 128.773L7.9306 127.596ZM2.30615 83.4702C2.30615 66.4559 4.01591 51.9252 7.39577 39.844L3.54368 38.7663C0.0387745 51.2945 -1.69385 66.2072 -1.69385 83.4702H2.30615ZM7.39363 39.8516C10.8295 27.7546 16.2923 18.6504 23.6831 12.3752L21.0942 9.326C12.9577 16.2343 7.14124 26.0999 3.54582 38.7587L7.39363 39.8516ZM23.6914 12.3681C31.0099 6.08523 40.7629 2.85303 53.1504 2.85303V-1.14697C40.0496 -1.14697 29.2948 2.28587 21.0859 9.33308L23.6914 12.3681ZM53.1504 2.85303C64.8533 2.85303 74.3321 6.03542 81.7458 12.2713L84.3206 9.21016C76.0605 2.26243 65.6174 -1.14697 53.1504 -1.14697V2.85303ZM81.7542 12.2783C89.2213 18.4893 94.8648 27.5671 98.5899 39.6736L102.413 38.4973C98.5209 25.848 92.5189 16.0293 84.3122 9.2031L81.7542 12.2783ZM98.5909 39.6768C102.324 51.7373 104.214 66.3217 104.214 83.4702H108.214C108.214 66.0484 106.296 51.043 102.412 38.4941L98.5909 39.6768ZM16.6533 83.4702C16.6533 98.4992 17.7939 111.111 20.1091 121.268L24.0091 120.379C21.7832 110.614 20.6533 98.3241 20.6533 83.4702H16.6533ZM20.1091 121.268C22.429 131.446 26.2213 139.319 31.6416 144.66L34.4493 141.811C29.7621 137.192 26.2302 130.123 24.0091 120.379L20.1091 121.268ZM31.6625 144.681C37.2231 150.003 44.4506 152.597 53.1504 152.597V148.597C45.2974 148.597 39.1216 146.283 34.4283 141.791L31.6625 144.681ZM53.1504 152.597C61.8494 152.597 69.0472 150.003 74.5388 144.671L71.7522 141.801C67.1364 146.283 61.0041 148.597 53.1504 148.597V152.597ZM74.5284 144.681C80.0371 139.408 83.8706 131.561 86.1917 121.378L82.2917 120.489C80.0718 130.228 76.5078 137.249 71.7626 141.791L74.5284 144.681ZM86.1885 121.392C88.5798 111.229 89.7573 98.5745 89.7573 83.4702H85.7573C85.7573 98.3952 84.5911 110.717 82.2949 120.476L86.1885 121.392ZM89.7573 83.4702C89.7573 68.659 88.6164 56.1926 86.3008 46.1085L82.4023 47.0038C84.6277 56.6951 85.7573 68.8381 85.7573 83.4702H89.7573ZM86.3015 46.1117C83.9816 35.934 80.1893 28.0612 74.7691 22.7195L71.9614 25.5685C76.6486 30.1878 80.1805 37.2565 82.4016 47.0006L86.3015 46.1117ZM74.7794 22.7298C69.2843 17.2346 62.0018 14.5635 53.1504 14.5635V18.5635C61.1447 18.5635 67.3388 20.946 71.951 25.5583L74.7794 22.7298ZM53.1504 14.5635C44.299 14.5635 37.0165 17.2346 31.5213 22.7298L34.3498 25.5583C38.962 20.946 45.1561 18.5635 53.1504 18.5635V14.5635ZM31.5317 22.7195C26.1114 28.0612 22.3191 35.934 19.9992 46.1117L23.8992 47.0006C26.1203 37.2565 29.6522 30.1878 34.3394 25.5685L31.5317 22.7195ZM19.9968 46.1223C17.7572 56.2007 16.6533 68.662 16.6533 83.4702H20.6533C20.6533 68.835 21.7467 56.687 23.9016 46.99L19.9968 46.1223ZM229.595 164V166H231.595V164H229.595ZM124.346 164H122.346V166H124.346V164ZM124.346 148.729L122.921 147.326L122.346 147.909V148.729H124.346ZM167.303 105.113L165.882 103.706L165.878 103.71L167.303 105.113ZM187.408 83.5801L185.9 82.2655L185.892 82.2756L187.408 83.5801ZM199.932 65.0132L201.742 65.8637L201.746 65.8554L199.932 65.0132ZM196.087 24.0342L194.746 25.5177L194.756 25.5274L194.767 25.5368L196.087 24.0342ZM136.211 31.9443L134.646 33.1886L135.876 34.7369L137.438 33.524L136.211 31.9443ZM126.434 19.6396L125.143 18.1119L123.66 19.3644L124.868 20.8839L126.434 19.6396ZM140.276 10.0815L139.312 8.32961L139.301 8.33566L140.276 10.0815ZM156.426 3.48975L155.89 1.56305L155.883 1.56485L156.426 3.48975ZM217.071 20.958L215.363 21.9985L215.367 22.0056L215.372 22.0127L217.071 20.958ZM217.95 67.4302L219.763 68.2729L219.767 68.266L217.95 67.4302ZM203.777 89.0732L205.297 90.3736L205.304 90.3658L203.777 89.0732ZM182.464 111.705L181.063 110.278L181.057 110.283L181.052 110.289L182.464 111.705ZM147.527 146.532L146.115 145.115L145.527 145.701V146.532H147.527ZM147.527 147.301H145.527V149.301H147.527V147.301ZM229.595 147.301H231.595V145.301H229.595V147.301ZM229.595 162H124.346V166H229.595V162ZM126.346 164V148.729H122.346V164H126.346ZM125.771 150.132L168.728 106.517L165.878 103.71L122.921 147.326L125.771 150.132ZM168.723 106.521C176.729 98.4422 183.465 91.229 188.924 84.8846L185.892 82.2756C180.511 88.5288 173.843 95.6711 165.882 103.706L168.723 106.521ZM188.915 84.8946C194.502 78.4885 198.79 72.1459 201.742 65.8637L198.122 64.1626C195.361 70.0387 191.3 76.074 185.9 82.2655L188.915 84.8946ZM201.746 65.8554C204.735 59.4186 206.217 52.3899 206.217 44.7983H202.217C202.217 51.8552 200.842 58.3031 198.118 64.171L201.746 65.8554ZM206.217 44.7983C206.217 35.3013 203.366 27.7664 197.407 22.5315L194.767 25.5368C199.647 29.8235 202.217 36.1313 202.217 44.7983H206.217ZM197.428 22.5506C191.637 17.315 184.054 14.7832 174.883 14.7832V18.7832C183.291 18.7832 189.843 21.0854 194.746 25.5177L197.428 22.5506ZM174.883 14.7832C166.964 14.7832 159.868 16.1413 153.636 18.9107L155.261 22.5659C160.895 20.0618 167.422 18.7832 174.883 18.7832V14.7832ZM153.636 18.9107C147.529 21.6252 141.312 25.4519 134.985 30.3646L137.438 33.524C143.562 28.7688 149.503 25.1248 155.261 22.5659L153.636 18.9107ZM137.777 30.7001L127.999 18.3954L124.868 20.8839L134.646 33.1886L137.777 30.7001ZM127.724 21.1674C131.872 17.6633 136.38 14.5498 141.252 11.8274L139.301 8.33566C134.211 11.1797 129.491 14.4383 125.143 18.1119L127.724 21.1674ZM141.241 11.8334C146.158 9.12589 151.399 6.98577 156.969 5.41464L155.883 1.56485C150.028 3.21638 144.503 5.47079 139.312 8.32965L141.241 11.8334ZM156.963 5.41644C162.56 3.8577 168.531 3.07275 174.883 3.07275V-0.927246C168.199 -0.927246 161.865 -0.100868 155.89 1.56306L156.963 5.41644ZM174.883 3.07275C184.542 3.07275 192.766 4.7542 199.617 8.03966L201.346 4.433C193.841 0.833694 185 -0.927246 174.883 -0.927246V3.07275ZM199.617 8.03966C206.47 11.3264 211.696 15.9794 215.363 21.9985L218.779 19.9175C214.682 13.1925 208.849 8.031 201.346 4.433L199.617 8.03966ZM215.372 22.0127C219.098 28.0171 221.003 35.2183 221.003 43.6997H225.003C225.003 34.603 222.953 26.6431 218.77 19.9033L215.372 22.0127ZM221.003 43.6997C221.003 51.9231 219.375 59.5463 216.133 66.5944L219.767 68.266C223.263 60.6656 225.003 52.4685 225.003 43.6997H221.003ZM216.136 66.5874C212.854 73.6507 208.234 80.716 202.251 87.7807L205.304 90.3658C211.478 83.075 216.307 75.7116 219.763 68.2729L216.136 66.5874ZM202.258 87.7729C196.223 94.8253 189.16 102.327 181.063 110.278L183.865 113.132C192.028 105.117 199.173 97.5302 205.297 90.3735L202.258 87.7729ZM181.052 110.289L146.115 145.115L148.939 147.948L183.876 113.122L181.052 110.289ZM145.527 146.532V147.301H149.527V146.532H145.527ZM147.527 149.301H229.595V145.301H147.527V149.301ZM227.595 147.301V164H231.595V147.301H227.595Z" fill="#8C694F" mask="url(#path-1-outside-1_31_79)"/>
</g>
</svg>
