<svg width="229" height="167" viewBox="0 0 229 167" fill="none" xmlns="http://www.w3.org/2000/svg">
<g opacity="0.37">
<mask id="path-1-outside-1_33_106" maskUnits="userSpaceOnUse" x="-2" y="-2" width="233" height="171" fill="black">
<rect fill="white" x="-2" y="-2" width="233" height="171"/>
<path d="M106.214 83.4702C106.214 96.5073 105.226 108.153 103.248 118.407C101.271 128.661 98.1577 137.34 93.9097 144.444C89.6616 151.549 84.1685 156.969 77.4302 160.704C70.6919 164.366 62.5986 166.197 53.1504 166.197C41.2119 166.197 31.3242 162.938 23.4873 156.419C15.7236 149.901 9.90088 140.489 6.01904 128.185C2.21045 115.807 0.306152 100.902 0.306152 83.4702C0.306152 66.3315 2.02734 51.6099 5.46973 39.3052C8.98535 26.9272 14.625 17.4424 22.3887 10.8506C30.1523 4.18555 40.4062 0.853027 53.1504 0.853027C65.2354 0.853027 75.1963 4.14893 83.0332 10.7407C90.8701 17.2593 96.6929 26.7075 100.501 39.0854C104.31 51.3901 106.214 66.1851 106.214 83.4702ZM18.6533 83.4702C18.6533 98.4116 19.7886 110.863 22.0591 120.824C24.3296 130.785 27.9917 138.255 33.0454 143.236C38.1724 148.143 44.874 150.597 53.1504 150.597C61.4268 150.597 68.0918 148.143 73.1455 143.236C78.2725 138.329 81.9712 130.895 84.2417 120.934C86.5854 110.973 87.7573 98.4849 87.7573 83.4702C87.7573 68.7485 86.6221 56.4438 84.3516 46.5562C82.0811 36.5952 78.4189 29.1245 73.3652 24.144C68.3115 19.0903 61.5732 16.5635 53.1504 16.5635C44.7275 16.5635 37.9893 19.0903 32.9355 24.144C27.8818 29.1245 24.2197 36.5952 21.9492 46.5562C19.752 56.4438 18.6533 68.7485 18.6533 83.4702ZM223.663 40.8433C223.663 48.021 222.271 54.2466 219.488 59.52C216.705 64.7935 212.823 69.1147 207.842 72.4839C202.862 75.7798 197.002 78.0869 190.264 79.4053V80.2842C203.008 81.8955 212.566 85.9971 218.938 92.5889C225.384 99.1807 228.606 107.823 228.606 118.517C228.606 127.818 226.409 136.058 222.015 143.236C217.693 150.414 211.028 156.053 202.02 160.155C193.084 164.183 181.622 166.197 167.632 166.197C159.136 166.197 151.263 165.501 144.012 164.11C136.834 162.792 129.949 160.558 123.357 157.408V140.27C130.022 143.565 137.273 146.166 145.11 148.07C152.947 149.901 160.528 150.816 167.852 150.816C182.5 150.816 193.084 147.923 199.603 142.137C206.121 136.278 209.38 128.294 209.38 118.187C209.38 111.229 207.549 105.626 203.887 101.378C200.298 97.0566 195.098 93.9072 188.287 91.9297C181.548 89.8789 173.418 88.8535 163.897 88.8535H147.857V73.2529H164.007C172.723 73.2529 180.12 71.9712 186.199 69.4077C192.278 66.8442 196.893 63.2554 200.042 58.6411C203.265 53.9536 204.876 48.4238 204.876 42.0518C204.876 33.9219 202.166 27.6597 196.746 23.2651C191.326 18.7974 183.965 16.5635 174.664 16.5635C168.951 16.5635 163.75 17.1494 159.063 18.3213C154.375 19.4932 149.981 21.1045 145.879 23.1553C141.778 25.2061 137.676 27.5864 133.575 30.2964L124.346 17.772C130.206 13.231 137.347 9.3125 145.77 6.0166C154.192 2.7207 163.75 1.07275 174.444 1.07275C190.85 1.07275 203.155 4.80811 211.358 12.2788C219.561 19.7495 223.663 29.271 223.663 40.8433Z"/>
</mask>
<path d="M77.4302 160.704L78.3852 162.461L78.3925 162.457L78.3998 162.453L77.4302 160.704ZM23.4873 156.419L22.2012 157.951L22.2084 157.957L23.4873 156.419ZM6.01904 128.185L4.10749 128.773L4.10957 128.78L4.11171 128.786L6.01904 128.185ZM5.46973 39.3052L3.54581 38.7587L3.54368 38.7663L5.46973 39.3052ZM22.3887 10.8506L23.6832 12.3752L23.6914 12.3681L22.3887 10.8506ZM83.0332 10.7407L81.7458 12.2713L81.7542 12.2783L83.0332 10.7407ZM100.501 39.0854L98.5899 39.6736L98.5909 39.6768L100.501 39.0854ZM33.0454 143.236L31.6416 144.66L31.652 144.671L31.6625 144.681L33.0454 143.236ZM73.1455 143.236L71.7626 141.791L71.7574 141.796L71.7522 141.801L73.1455 143.236ZM84.2417 120.934L82.2948 120.476L82.2917 120.489L84.2417 120.934ZM84.3516 46.5562L82.4016 47.0006L82.4023 47.0038L84.3516 46.5562ZM73.3652 24.144L71.951 25.5583L71.9562 25.5634L71.9614 25.5685L73.3652 24.144ZM32.9355 24.144L34.3394 25.5685L34.3446 25.5634L34.3498 25.5583L32.9355 24.144ZM21.9492 46.5562L19.9992 46.1117L19.9968 46.1223L21.9492 46.5562ZM104.214 83.4702C104.214 96.41 103.233 107.925 101.284 118.028L105.212 118.785C107.219 108.381 108.214 96.6046 108.214 83.4702H104.214ZM101.284 118.028C99.3398 128.111 96.295 136.558 92.1931 143.418L95.6262 145.471C100.02 138.122 103.201 129.211 105.212 118.785L101.284 118.028ZM92.1931 143.418C88.1121 150.243 82.8676 155.403 76.4605 158.955L78.3998 162.453C85.4693 158.534 91.2112 152.854 95.6262 145.471L92.1931 143.418ZM76.4752 158.947C70.0905 162.417 62.3415 164.197 53.1504 164.197V168.197C62.8558 168.197 71.2933 166.316 78.3852 162.461L76.4752 158.947ZM53.1504 164.197C41.5952 164.197 32.1843 161.052 24.7663 154.882L22.2084 157.957C30.4641 164.824 40.8287 168.197 53.1504 168.197V164.197ZM24.7733 154.888C17.3708 148.672 11.7247 139.623 7.92638 127.583L4.11171 128.786C8.07705 141.356 14.0764 151.129 22.2013 157.951L24.7733 154.888ZM7.9306 127.596C4.19693 115.462 2.30615 100.767 2.30615 83.4702H-1.69385C-1.69385 101.037 0.223972 116.151 4.10749 128.773L7.9306 127.596ZM2.30615 83.4702C2.30615 66.4559 4.01591 51.9252 7.39577 39.844L3.54368 38.7663C0.0387745 51.2945 -1.69385 66.2072 -1.69385 83.4702H2.30615ZM7.39363 39.8516C10.8295 27.7546 16.2923 18.6504 23.6831 12.3752L21.0942 9.326C12.9577 16.2343 7.14124 26.0999 3.54582 38.7587L7.39363 39.8516ZM23.6914 12.3681C31.0099 6.08523 40.7629 2.85303 53.1504 2.85303V-1.14697C40.0496 -1.14697 29.2948 2.28587 21.0859 9.33308L23.6914 12.3681ZM53.1504 2.85303C64.8533 2.85303 74.3321 6.03542 81.7458 12.2713L84.3206 9.21016C76.0605 2.26243 65.6174 -1.14697 53.1504 -1.14697V2.85303ZM81.7542 12.2783C89.2213 18.4893 94.8648 27.5671 98.5899 39.6736L102.413 38.4973C98.5209 25.848 92.5189 16.0293 84.3122 9.2031L81.7542 12.2783ZM98.5909 39.6768C102.324 51.7373 104.214 66.3217 104.214 83.4702H108.214C108.214 66.0484 106.296 51.043 102.412 38.4941L98.5909 39.6768ZM16.6533 83.4702C16.6533 98.4992 17.7939 111.111 20.1091 121.268L24.0091 120.379C21.7832 110.614 20.6533 98.3241 20.6533 83.4702H16.6533ZM20.1091 121.268C22.429 131.446 26.2213 139.319 31.6416 144.66L34.4493 141.811C29.7621 137.192 26.2302 130.123 24.0091 120.379L20.1091 121.268ZM31.6625 144.681C37.2231 150.003 44.4506 152.597 53.1504 152.597V148.597C45.2974 148.597 39.1216 146.283 34.4283 141.791L31.6625 144.681ZM53.1504 152.597C61.8494 152.597 69.0472 150.003 74.5388 144.671L71.7522 141.801C67.1364 146.283 61.0041 148.597 53.1504 148.597V152.597ZM74.5284 144.681C80.0371 139.408 83.8706 131.561 86.1917 121.378L82.2917 120.489C80.0718 130.228 76.5078 137.249 71.7626 141.791L74.5284 144.681ZM86.1885 121.392C88.5798 111.229 89.7573 98.5745 89.7573 83.4702H85.7573C85.7573 98.3952 84.5911 110.717 82.2949 120.476L86.1885 121.392ZM89.7573 83.4702C89.7573 68.659 88.6164 56.1926 86.3008 46.1085L82.4023 47.0038C84.6277 56.6951 85.7573 68.8381 85.7573 83.4702H89.7573ZM86.3015 46.1117C83.9816 35.934 80.1893 28.0612 74.7691 22.7195L71.9614 25.5685C76.6486 30.1878 80.1805 37.2565 82.4016 47.0006L86.3015 46.1117ZM74.7794 22.7298C69.2843 17.2346 62.0018 14.5635 53.1504 14.5635V18.5635C61.1447 18.5635 67.3388 20.946 71.951 25.5583L74.7794 22.7298ZM53.1504 14.5635C44.299 14.5635 37.0165 17.2346 31.5213 22.7298L34.3498 25.5583C38.962 20.946 45.1561 18.5635 53.1504 18.5635V14.5635ZM31.5317 22.7195C26.1114 28.0612 22.3191 35.934 19.9992 46.1117L23.8992 47.0006C26.1203 37.2565 29.6522 30.1878 34.3394 25.5685L31.5317 22.7195ZM19.9968 46.1223C17.7572 56.2007 16.6533 68.662 16.6533 83.4702H20.6533C20.6533 68.835 21.7467 56.687 23.9016 46.99L19.9968 46.1223ZM207.842 72.4839L208.946 74.1517L208.954 74.1461L208.963 74.1405L207.842 72.4839ZM190.264 79.4053L189.88 77.4425L188.264 77.7587V79.4053H190.264ZM190.264 80.2842H188.264V82.0472L190.013 82.2684L190.264 80.2842ZM218.938 92.5889L217.5 93.9789L217.508 93.9871L218.938 92.5889ZM222.015 143.236L220.309 142.192L220.305 142.198L220.301 142.204L222.015 143.236ZM202.02 160.155L202.842 161.978L202.848 161.975L202.02 160.155ZM144.012 164.11L144.389 162.146L144.381 162.144L144.373 162.143L144.012 164.11ZM123.357 157.408H121.357V158.669L122.495 159.213L123.357 157.408ZM123.357 140.27L124.244 138.477L121.357 137.049V140.27H123.357ZM145.11 148.07L144.638 150.013L144.647 150.015L144.655 150.017L145.11 148.07ZM199.603 142.137L200.93 143.633L200.94 143.625L199.603 142.137ZM203.887 101.378L202.349 102.656L202.36 102.67L202.372 102.684L203.887 101.378ZM188.287 91.9297L187.704 93.843L187.717 93.8468L187.729 93.8504L188.287 91.9297ZM147.857 88.8535H145.857V90.8535H147.857V88.8535ZM147.857 73.2529V71.2529H145.857V73.2529H147.857ZM200.042 58.6411L198.394 57.5081L198.39 57.5136L200.042 58.6411ZM196.746 23.2651L195.474 24.8084L195.48 24.8135L195.486 24.8186L196.746 23.2651ZM133.575 30.2964L131.965 31.4828L133.092 33.0126L134.677 31.9651L133.575 30.2964ZM124.346 17.772L123.121 16.1911L121.578 17.3869L122.736 18.9584L124.346 17.772ZM221.663 40.8433C221.663 47.7615 220.322 53.6539 217.719 58.5865L221.257 60.4535C224.22 54.8393 225.663 48.2805 225.663 40.8433H221.663ZM217.719 58.5865C215.091 63.5668 211.432 67.6407 206.722 70.8273L208.963 74.1405C214.213 70.5888 218.319 66.0201 221.257 60.4535L217.719 58.5865ZM206.739 70.816C202.007 73.9475 196.4 76.1669 189.88 77.4425L190.648 81.3681C197.605 80.0069 203.717 77.6121 208.946 74.1517L206.739 70.816ZM188.264 79.4053V80.2842H192.264V79.4053H188.264ZM190.013 82.2684C202.484 83.8451 211.551 87.8238 217.501 93.9789L220.376 91.1988C213.582 84.1703 203.533 79.9459 190.515 78.3L190.013 82.2684ZM217.508 93.9871C223.53 100.145 226.606 108.256 226.606 118.517H230.606C230.606 107.391 227.238 98.2159 220.368 91.1906L217.508 93.9871ZM226.606 118.517C226.606 127.49 224.491 135.361 220.309 142.192L223.72 144.28C228.327 136.756 230.606 128.147 230.606 118.517H226.606ZM220.301 142.204C216.224 148.977 209.9 154.369 201.191 158.335L202.848 161.975C212.157 157.737 219.163 151.851 223.728 144.267L220.301 142.204ZM201.198 158.331C192.606 162.205 181.45 164.197 167.632 164.197V168.197C181.793 168.197 193.562 166.162 202.842 161.978L201.198 158.331ZM167.632 164.197C159.244 164.197 151.499 163.51 144.389 162.146L143.635 166.074C151.027 167.493 159.028 168.197 167.632 168.197V164.197ZM144.373 162.143C137.369 160.856 130.653 158.677 124.22 155.604L122.495 159.213C129.246 162.438 136.299 164.727 143.65 166.077L144.373 162.143ZM125.357 157.408V140.27H121.357V157.408H125.357ZM122.471 142.062C129.279 145.429 136.67 148.077 144.638 150.013L145.583 146.126C137.877 144.254 130.766 141.702 124.244 138.477L122.471 142.062ZM144.655 150.017C152.627 151.88 160.36 152.816 167.852 152.816V148.816C160.695 148.816 153.268 147.922 145.565 146.122L144.655 150.017ZM167.852 152.816C182.681 152.816 193.867 149.903 200.93 143.633L198.275 140.641C192.301 145.944 182.32 148.816 167.852 148.816V152.816ZM200.94 143.625C207.946 137.326 211.38 128.766 211.38 118.187H207.38C207.38 127.823 204.296 135.229 198.266 140.65L200.94 143.625ZM211.38 118.187C211.38 110.869 209.447 104.764 205.402 100.072L202.372 102.684C205.651 106.487 207.38 111.589 207.38 118.187H211.38ZM205.426 100.1C201.522 95.3994 195.939 92.0687 188.844 90.009L187.729 93.8504C194.257 95.7457 199.075 98.7139 202.349 102.656L205.426 100.1ZM188.869 90.0163C181.889 87.8919 173.551 86.8535 163.897 86.8535V90.8535C173.286 90.8535 181.208 91.8659 187.704 93.843L188.869 90.0163ZM163.897 86.8535H147.857V90.8535H163.897V86.8535ZM149.857 88.8535V73.2529H145.857V88.8535H149.857ZM147.857 75.2529H164.007V71.2529H147.857V75.2529ZM164.007 75.2529C172.908 75.2529 180.586 73.9453 186.976 71.2506L185.422 67.5649C179.654 69.9971 172.537 71.2529 164.007 71.2529V75.2529ZM186.976 71.2506C193.345 68.5652 198.291 64.7542 201.694 59.7686L198.39 57.5136C195.494 61.7565 191.212 65.1233 185.422 67.5649L186.976 71.2506ZM201.69 59.7742C205.169 54.7139 206.876 48.7779 206.876 42.0518H202.876C202.876 48.0698 201.36 53.1933 198.394 57.5081L201.69 59.7742ZM206.876 42.0518C206.876 33.4303 203.974 26.5509 198.006 21.7116L195.486 24.8186C200.358 28.7684 202.876 34.4134 202.876 42.0518H206.876ZM198.018 21.7219C192.138 16.875 184.278 14.5635 174.664 14.5635V18.5635C183.653 18.5635 190.514 20.7198 195.474 24.8084L198.018 21.7219ZM174.664 14.5635C168.816 14.5635 163.45 15.163 158.578 16.381L159.548 20.2616C164.051 19.1358 169.085 18.5635 174.664 18.5635V14.5635ZM158.578 16.381C153.756 17.5864 149.224 19.247 144.985 21.3664L146.774 24.9441C150.738 22.962 154.995 21.3999 159.548 20.2616L158.578 16.381ZM144.985 21.3664C140.807 23.4555 136.636 25.8767 132.472 28.6277L134.677 31.9651C138.717 29.2962 142.749 26.9566 146.774 24.9441L144.985 21.3664ZM135.185 29.11L125.956 16.5856L122.736 18.9584L131.965 31.4828L135.185 29.11ZM125.571 19.3528C131.251 14.9513 138.216 11.12 146.498 7.87909L145.041 4.15411C136.477 7.50497 129.16 11.5106 123.121 16.1911L125.571 19.3528ZM146.498 7.87909C154.651 4.689 163.955 3.07275 174.444 3.07275V-0.927246C163.546 -0.927246 153.734 0.752411 145.041 4.15411L146.498 7.87909ZM174.444 3.07275C190.586 3.07275 202.319 6.75191 210.011 13.7575L212.705 10.8001C203.991 2.8643 191.115 -0.927246 174.444 -0.927246V3.07275ZM210.011 13.7575C217.778 20.8311 221.663 29.8065 221.663 40.8433H225.663C225.663 28.7355 221.344 18.6679 212.705 10.8001L210.011 13.7575Z" fill="#8C694F" mask="url(#path-1-outside-1_33_106)"/>
</g>
</svg>
