<svg width="239" height="167" viewBox="0 0 239 167" fill="none" xmlns="http://www.w3.org/2000/svg">
<g opacity="0.21">
<mask id="path-1-outside-1_34_115" maskUnits="userSpaceOnUse" x="-2" y="-2" width="243" height="171" fill="black">
<rect fill="white" x="-2" y="-2" width="243" height="171"/>
<path d="M106.714 83.4702C106.714 96.5073 105.726 108.153 103.748 118.407C101.771 128.661 98.6577 137.34 94.4097 144.444C90.1616 151.549 84.6685 156.969 77.9302 160.704C71.1919 164.366 63.0986 166.197 53.6504 166.197C41.7119 166.197 31.8242 162.938 23.9873 156.419C16.2236 149.901 10.4009 140.489 6.51904 128.185C2.71045 115.807 0.806152 100.902 0.806152 83.4702C0.806152 66.3315 2.52734 51.6099 5.96973 39.3052C9.48535 26.9272 15.125 17.4424 22.8887 10.8506C30.6523 4.18555 40.9062 0.853027 53.6504 0.853027C65.7354 0.853027 75.6963 4.14893 83.5332 10.7407C91.3701 17.2593 97.1929 26.7075 101.001 39.0854C104.81 51.3901 106.714 66.1851 106.714 83.4702ZM19.1533 83.4702C19.1533 98.4116 20.2886 110.863 22.5591 120.824C24.8296 130.785 28.4917 138.255 33.5454 143.236C38.6724 148.143 45.374 150.597 53.6504 150.597C61.9268 150.597 68.5918 148.143 73.6455 143.236C78.7725 138.329 82.4712 130.895 84.7417 120.934C87.0854 110.973 88.2573 98.4849 88.2573 83.4702C88.2573 68.7485 87.1221 56.4438 84.8516 46.5562C82.5811 36.5952 78.9189 29.1245 73.8652 24.144C68.8115 19.0903 62.0732 16.5635 53.6504 16.5635C45.2275 16.5635 38.4893 19.0903 33.4355 24.144C28.3818 29.1245 24.7197 36.5952 22.4492 46.5562C20.252 56.4438 19.1533 68.7485 19.1533 83.4702ZM238.115 126.756H214.055V164H196.257V126.756H118.584V111.375L195.049 2.50098H214.055V110.277H238.115V126.756ZM196.257 110.277V57.7622C196.257 53.7339 196.294 50.1084 196.367 46.8857C196.44 43.5898 196.55 40.5503 196.697 37.7671C196.843 34.9106 196.953 32.2007 197.026 29.6372C197.173 27.0737 197.283 24.5469 197.356 22.0566H196.477C195.085 24.9863 193.474 28.0991 191.643 31.395C189.885 34.6177 188.091 37.5107 186.26 40.0742L136.711 110.277H196.257Z"/>
</mask>
<path d="M77.9302 160.704L78.8852 162.461L78.8925 162.457L78.8998 162.453L77.9302 160.704ZM23.9873 156.419L22.7012 157.951L22.7084 157.957L23.9873 156.419ZM6.51904 128.185L4.60748 128.773L4.60957 128.78L4.61171 128.786L6.51904 128.185ZM5.96973 39.3052L4.04581 38.7587L4.04368 38.7663L5.96973 39.3052ZM22.8887 10.8506L24.1832 12.3752L24.1914 12.3681L22.8887 10.8506ZM83.5332 10.7407L82.2458 12.2713L82.2542 12.2783L83.5332 10.7407ZM101.001 39.0854L99.0899 39.6736L99.0909 39.6768L101.001 39.0854ZM33.5454 143.236L32.1416 144.66L32.152 144.671L32.1625 144.681L33.5454 143.236ZM73.6455 143.236L72.2626 141.791L72.2574 141.796L72.2522 141.801L73.6455 143.236ZM84.7417 120.934L82.7948 120.476L82.7917 120.489L84.7417 120.934ZM84.8516 46.5562L82.9016 47.0006L82.9023 47.0038L84.8516 46.5562ZM73.8652 24.144L72.451 25.5583L72.4562 25.5634L72.4614 25.5685L73.8652 24.144ZM33.4355 24.144L34.8394 25.5685L34.8446 25.5634L34.8498 25.5583L33.4355 24.144ZM22.4492 46.5562L20.4992 46.1117L20.4968 46.1223L22.4492 46.5562ZM104.714 83.4702C104.714 96.41 103.733 107.925 101.784 118.028L105.712 118.785C107.719 108.381 108.714 96.6046 108.714 83.4702H104.714ZM101.784 118.028C99.8398 128.111 96.795 136.558 92.6931 143.418L96.1262 145.471C100.52 138.122 103.701 129.211 105.712 118.785L101.784 118.028ZM92.6931 143.418C88.6121 150.243 83.3676 155.403 76.9605 158.955L78.8998 162.453C85.9693 158.534 91.7112 152.854 96.1262 145.471L92.6931 143.418ZM76.9752 158.947C70.5905 162.417 62.8415 164.197 53.6504 164.197V168.197C63.3558 168.197 71.7933 166.316 78.8852 162.461L76.9752 158.947ZM53.6504 164.197C42.0952 164.197 32.6843 161.052 25.2663 154.882L22.7084 157.957C30.9641 164.824 41.3286 168.197 53.6504 168.197V164.197ZM25.2733 154.888C17.8708 148.672 12.2247 139.623 8.42638 127.583L4.61171 128.786C8.57705 141.356 14.5764 151.129 22.7013 157.951L25.2733 154.888ZM8.4306 127.596C4.69693 115.462 2.80615 100.767 2.80615 83.4702H-1.19385C-1.19385 101.037 0.723972 116.151 4.60748 128.773L8.4306 127.596ZM2.80615 83.4702C2.80615 66.4559 4.51591 51.9252 7.89577 39.844L4.04368 38.7663C0.538774 51.2945 -1.19385 66.2072 -1.19385 83.4702H2.80615ZM7.89363 39.8516C11.3295 27.7546 16.7923 18.6504 24.1831 12.3752L21.5942 9.326C13.4577 16.2343 7.64124 26.0999 4.04582 38.7587L7.89363 39.8516ZM24.1914 12.3681C31.5099 6.08523 41.2629 2.85303 53.6504 2.85303V-1.14697C40.5496 -1.14697 29.7948 2.28587 21.5859 9.33308L24.1914 12.3681ZM53.6504 2.85303C65.3533 2.85303 74.8321 6.03542 82.2458 12.2713L84.8206 9.21016C76.5605 2.26243 66.1174 -1.14697 53.6504 -1.14697V2.85303ZM82.2542 12.2783C89.7213 18.4893 95.3648 27.5671 99.0899 39.6736L102.913 38.4973C99.0209 25.848 93.0189 16.0293 84.8122 9.2031L82.2542 12.2783ZM99.0909 39.6768C102.824 51.7373 104.714 66.3217 104.714 83.4702H108.714C108.714 66.0484 106.796 51.043 102.912 38.4941L99.0909 39.6768ZM17.1533 83.4702C17.1533 98.4992 18.2939 111.111 20.6091 121.268L24.5091 120.379C22.2832 110.614 21.1533 98.3241 21.1533 83.4702H17.1533ZM20.6091 121.268C22.929 131.446 26.7213 139.319 32.1416 144.66L34.9493 141.811C30.2621 137.192 26.7302 130.123 24.5091 120.379L20.6091 121.268ZM32.1625 144.681C37.7231 150.003 44.9506 152.597 53.6504 152.597V148.597C45.7974 148.597 39.6216 146.283 34.9283 141.791L32.1625 144.681ZM53.6504 152.597C62.3494 152.597 69.5472 150.003 75.0388 144.671L72.2522 141.801C67.6364 146.283 61.5041 148.597 53.6504 148.597V152.597ZM75.0284 144.681C80.5371 139.408 84.3706 131.561 86.6917 121.378L82.7917 120.489C80.5718 130.228 77.0078 137.249 72.2626 141.791L75.0284 144.681ZM86.6885 121.392C89.0798 111.229 90.2573 98.5745 90.2573 83.4702H86.2573C86.2573 98.3952 85.0911 110.717 82.7949 120.476L86.6885 121.392ZM90.2573 83.4702C90.2573 68.659 89.1164 56.1926 86.8008 46.1085L82.9023 47.0038C85.1277 56.6951 86.2573 68.8381 86.2573 83.4702H90.2573ZM86.8015 46.1117C84.4816 35.934 80.6893 28.0612 75.2691 22.7195L72.4614 25.5685C77.1486 30.1878 80.6805 37.2565 82.9016 47.0006L86.8015 46.1117ZM75.2794 22.7298C69.7843 17.2346 62.5018 14.5635 53.6504 14.5635V18.5635C61.6447 18.5635 67.8388 20.946 72.451 25.5583L75.2794 22.7298ZM53.6504 14.5635C44.799 14.5635 37.5165 17.2346 32.0213 22.7298L34.8498 25.5583C39.462 20.946 45.6561 18.5635 53.6504 18.5635V14.5635ZM32.0317 22.7195C26.6114 28.0612 22.8191 35.934 20.4992 46.1117L24.3992 47.0006C26.6203 37.2565 30.1522 30.1878 34.8394 25.5685L32.0317 22.7195ZM20.4968 46.1223C18.2572 56.2007 17.1533 68.662 17.1533 83.4702H21.1533C21.1533 68.835 22.2467 56.687 24.4016 46.99L20.4968 46.1223ZM238.115 126.756V128.756H240.115V126.756H238.115ZM214.055 126.756V124.756H212.055V126.756H214.055ZM214.055 164V166H216.055V164H214.055ZM196.257 164H194.257V166H196.257V164ZM196.257 126.756H198.257V124.756H196.257V126.756ZM118.584 126.756H116.584V128.756H118.584V126.756ZM118.584 111.375L116.947 110.226L116.584 110.743V111.375H118.584ZM195.049 2.50098V0.500977H194.009L193.412 1.3515L195.049 2.50098ZM214.055 2.50098H216.055V0.500977H214.055V2.50098ZM214.055 110.277H212.055V112.277H214.055V110.277ZM238.115 110.277H240.115V108.277H238.115V110.277ZM196.257 110.277V112.277H198.257V110.277H196.257ZM196.367 46.8857L198.367 46.9312L198.367 46.9302L196.367 46.8857ZM196.697 37.7671L198.694 37.8722L198.694 37.8695L196.697 37.7671ZM197.026 29.6372L195.03 29.5231L195.028 29.5516L195.027 29.5801L197.026 29.6372ZM197.356 22.0566L199.355 22.1154L199.416 20.0566H197.356V22.0566ZM196.477 22.0566V20.0566H195.213L194.671 21.1985L196.477 22.0566ZM191.643 31.395L189.895 30.4237L189.891 30.4305L189.887 30.4373L191.643 31.395ZM186.26 40.0742L184.632 38.9117L184.626 38.921L186.26 40.0742ZM136.711 110.277L135.077 109.124L132.852 112.277H136.711V110.277ZM238.115 124.756H214.055V128.756H238.115V124.756ZM212.055 126.756V164H216.055V126.756H212.055ZM214.055 162H196.257V166H214.055V162ZM198.257 164V126.756H194.257V164H198.257ZM196.257 124.756H118.584V128.756H196.257V124.756ZM120.584 126.756V111.375H116.584V126.756H120.584ZM120.221 112.525L196.686 3.65045L193.412 1.3515L116.947 110.226L120.221 112.525ZM195.049 4.50098H214.055V0.500977H195.049V4.50098ZM212.055 2.50098V110.277H216.055V2.50098H212.055ZM214.055 112.277H238.115V108.277H214.055V112.277ZM236.115 110.277V126.756H240.115V110.277H236.115ZM198.257 110.277V57.7622H194.257V110.277H198.257ZM198.257 57.7622C198.257 53.7455 198.294 50.1355 198.367 46.9312L194.368 46.8403C194.294 50.0813 194.257 53.7223 194.257 57.7622H198.257ZM198.367 46.9302C198.44 43.651 198.549 40.632 198.694 37.8722L194.7 37.662C194.552 40.4686 194.441 43.5287 194.368 46.8413L198.367 46.9302ZM198.694 37.8695C198.841 34.9997 198.952 32.2745 199.026 29.6943L195.027 29.5801C194.954 32.1269 194.845 34.8216 194.699 37.6647L198.694 37.8695ZM199.023 29.7513C199.171 27.17 199.281 24.6247 199.355 22.1154L195.357 21.9978C195.284 24.4691 195.175 26.9775 195.03 29.5231L199.023 29.7513ZM197.356 20.0566H196.477V24.0566H197.356V20.0566ZM194.671 21.1985C193.3 24.0843 191.708 27.1591 189.895 30.4237L193.391 32.3663C195.24 29.0391 196.871 25.8883 198.284 22.9148L194.671 21.1985ZM189.887 30.4373C188.162 33.6004 186.41 36.4235 184.632 38.9117L187.887 41.2367C189.772 38.598 191.609 35.6349 193.399 32.3527L189.887 30.4373ZM184.626 38.921L135.077 109.124L138.345 111.43L187.894 41.2275L184.626 38.921ZM136.711 112.277H196.257V108.277H136.711V112.277Z" fill="#F7F6F2" mask="url(#path-1-outside-1_34_115)"/>
</g>
</svg>
