<svg width="230" height="167" viewBox="0 0 230 167" fill="none" xmlns="http://www.w3.org/2000/svg">
<g opacity="0.29">
<mask id="path-1-outside-1_36_137" maskUnits="userSpaceOnUse" x="-2" y="-2" width="234" height="171" fill="black">
<rect fill="white" x="-2" y="-2" width="234" height="171"/>
<path d="M106.714 83.4702C106.714 96.5073 105.726 108.153 103.748 118.407C101.771 128.661 98.6577 137.34 94.4097 144.444C90.1616 151.549 84.6685 156.969 77.9302 160.704C71.1919 164.366 63.0986 166.197 53.6504 166.197C41.7119 166.197 31.8242 162.938 23.9873 156.419C16.2236 149.901 10.4009 140.489 6.51904 128.185C2.71045 115.807 0.806152 100.902 0.806152 83.4702C0.806152 66.3315 2.52734 51.6099 5.96973 39.3052C9.48535 26.9272 15.125 17.4424 22.8887 10.8506C30.6523 4.18555 40.9062 0.853027 53.6504 0.853027C65.7354 0.853027 75.6963 4.14893 83.5332 10.7407C91.3701 17.2593 97.1929 26.7075 101.001 39.0854C104.81 51.3901 106.714 66.1851 106.714 83.4702ZM19.1533 83.4702C19.1533 98.4116 20.2886 110.863 22.5591 120.824C24.8296 130.785 28.4917 138.255 33.5454 143.236C38.6724 148.143 45.374 150.597 53.6504 150.597C61.9268 150.597 68.5918 148.143 73.6455 143.236C78.7725 138.329 82.4712 130.895 84.7417 120.934C87.0854 110.973 88.2573 98.4849 88.2573 83.4702C88.2573 68.7485 87.1221 56.4438 84.8516 46.5562C82.5811 36.5952 78.9189 29.1245 73.8652 24.144C68.8115 19.0903 62.0732 16.5635 53.6504 16.5635C45.2275 16.5635 38.4893 19.0903 33.4355 24.144C28.3818 29.1245 24.7197 36.5952 22.4492 46.5562C20.252 56.4438 19.1533 68.7485 19.1533 83.4702ZM175.603 65.7822C186.516 65.7822 196.001 67.6499 204.058 71.3853C212.114 75.0474 218.34 80.394 222.734 87.4253C227.202 94.4565 229.436 102.989 229.436 113.023C229.436 124.01 227.056 133.495 222.295 141.478C217.534 149.388 210.686 155.504 201.75 159.825C192.815 164.073 182.122 166.197 169.67 166.197C161.321 166.197 153.557 165.465 146.379 164C139.202 162.535 133.159 160.338 128.252 157.408V140.05C133.599 143.272 140.081 145.836 147.698 147.74C155.315 149.645 162.712 150.597 169.89 150.597C178.02 150.597 185.125 149.315 191.204 146.751C197.356 144.115 202.117 140.16 205.486 134.886C208.928 129.54 210.649 122.838 210.649 114.781C210.649 104.088 207.354 95.8481 200.762 90.062C194.243 84.2026 183.916 81.2729 169.78 81.2729C165.239 81.2729 160.259 81.6392 154.839 82.3716C149.419 83.104 144.951 83.9097 141.436 84.7886L132.207 78.7461L138.359 3.37988H218.23V20.0791H153.96L149.895 68.5288C152.678 67.9429 156.267 67.3569 160.662 66.771C165.056 66.1118 170.037 65.7822 175.603 65.7822Z"/>
</mask>
<path d="M77.9302 160.704L78.8852 162.461L78.8925 162.457L78.8998 162.453L77.9302 160.704ZM23.9873 156.419L22.7012 157.951L22.7084 157.957L23.9873 156.419ZM6.51904 128.185L4.60748 128.773L4.60957 128.78L4.61171 128.786L6.51904 128.185ZM5.96973 39.3052L4.04581 38.7587L4.04368 38.7663L5.96973 39.3052ZM22.8887 10.8506L24.1832 12.3752L24.1914 12.3681L22.8887 10.8506ZM83.5332 10.7407L82.2458 12.2713L82.2542 12.2783L83.5332 10.7407ZM101.001 39.0854L99.0899 39.6736L99.0909 39.6768L101.001 39.0854ZM33.5454 143.236L32.1416 144.66L32.152 144.671L32.1625 144.681L33.5454 143.236ZM73.6455 143.236L72.2626 141.791L72.2574 141.796L72.2522 141.801L73.6455 143.236ZM84.7417 120.934L82.7948 120.476L82.7917 120.489L84.7417 120.934ZM84.8516 46.5562L82.9016 47.0006L82.9023 47.0038L84.8516 46.5562ZM73.8652 24.144L72.451 25.5583L72.4562 25.5634L72.4614 25.5685L73.8652 24.144ZM33.4355 24.144L34.8394 25.5685L34.8446 25.5634L34.8498 25.5583L33.4355 24.144ZM22.4492 46.5562L20.4992 46.1117L20.4968 46.1223L22.4492 46.5562ZM104.714 83.4702C104.714 96.41 103.733 107.925 101.784 118.028L105.712 118.785C107.719 108.381 108.714 96.6046 108.714 83.4702H104.714ZM101.784 118.028C99.8398 128.111 96.795 136.558 92.6931 143.418L96.1262 145.471C100.52 138.122 103.701 129.211 105.712 118.785L101.784 118.028ZM92.6931 143.418C88.6121 150.243 83.3676 155.403 76.9605 158.955L78.8998 162.453C85.9693 158.534 91.7112 152.854 96.1262 145.471L92.6931 143.418ZM76.9752 158.947C70.5905 162.417 62.8415 164.197 53.6504 164.197V168.197C63.3558 168.197 71.7933 166.316 78.8852 162.461L76.9752 158.947ZM53.6504 164.197C42.0952 164.197 32.6843 161.052 25.2663 154.882L22.7084 157.957C30.9641 164.824 41.3286 168.197 53.6504 168.197V164.197ZM25.2733 154.888C17.8708 148.672 12.2247 139.623 8.42638 127.583L4.61171 128.786C8.57705 141.356 14.5764 151.129 22.7013 157.951L25.2733 154.888ZM8.4306 127.596C4.69693 115.462 2.80615 100.767 2.80615 83.4702H-1.19385C-1.19385 101.037 0.723972 116.151 4.60748 128.773L8.4306 127.596ZM2.80615 83.4702C2.80615 66.4559 4.51591 51.9252 7.89577 39.844L4.04368 38.7663C0.538774 51.2945 -1.19385 66.2072 -1.19385 83.4702H2.80615ZM7.89363 39.8516C11.3295 27.7546 16.7923 18.6504 24.1831 12.3752L21.5942 9.326C13.4577 16.2343 7.64124 26.0999 4.04582 38.7587L7.89363 39.8516ZM24.1914 12.3681C31.5099 6.08523 41.2629 2.85303 53.6504 2.85303V-1.14697C40.5496 -1.14697 29.7948 2.28587 21.5859 9.33308L24.1914 12.3681ZM53.6504 2.85303C65.3533 2.85303 74.8321 6.03542 82.2458 12.2713L84.8206 9.21016C76.5605 2.26243 66.1174 -1.14697 53.6504 -1.14697V2.85303ZM82.2542 12.2783C89.7213 18.4893 95.3648 27.5671 99.0899 39.6736L102.913 38.4973C99.0209 25.848 93.0189 16.0293 84.8122 9.2031L82.2542 12.2783ZM99.0909 39.6768C102.824 51.7373 104.714 66.3217 104.714 83.4702H108.714C108.714 66.0484 106.796 51.043 102.912 38.4941L99.0909 39.6768ZM17.1533 83.4702C17.1533 98.4992 18.2939 111.111 20.6091 121.268L24.5091 120.379C22.2832 110.614 21.1533 98.3241 21.1533 83.4702H17.1533ZM20.6091 121.268C22.929 131.446 26.7213 139.319 32.1416 144.66L34.9493 141.811C30.2621 137.192 26.7302 130.123 24.5091 120.379L20.6091 121.268ZM32.1625 144.681C37.7231 150.003 44.9506 152.597 53.6504 152.597V148.597C45.7974 148.597 39.6216 146.283 34.9283 141.791L32.1625 144.681ZM53.6504 152.597C62.3494 152.597 69.5472 150.003 75.0388 144.671L72.2522 141.801C67.6364 146.283 61.5041 148.597 53.6504 148.597V152.597ZM75.0284 144.681C80.5371 139.408 84.3706 131.561 86.6917 121.378L82.7917 120.489C80.5718 130.228 77.0078 137.249 72.2626 141.791L75.0284 144.681ZM86.6885 121.392C89.0798 111.229 90.2573 98.5745 90.2573 83.4702H86.2573C86.2573 98.3952 85.0911 110.717 82.7949 120.476L86.6885 121.392ZM90.2573 83.4702C90.2573 68.659 89.1164 56.1926 86.8008 46.1085L82.9023 47.0038C85.1277 56.6951 86.2573 68.8381 86.2573 83.4702H90.2573ZM86.8015 46.1117C84.4816 35.934 80.6893 28.0612 75.2691 22.7195L72.4614 25.5685C77.1486 30.1878 80.6805 37.2565 82.9016 47.0006L86.8015 46.1117ZM75.2794 22.7298C69.7843 17.2346 62.5018 14.5635 53.6504 14.5635V18.5635C61.6447 18.5635 67.8388 20.946 72.451 25.5583L75.2794 22.7298ZM53.6504 14.5635C44.799 14.5635 37.5165 17.2346 32.0213 22.7298L34.8498 25.5583C39.462 20.946 45.6561 18.5635 53.6504 18.5635V14.5635ZM32.0317 22.7195C26.6114 28.0612 22.8191 35.934 20.4992 46.1117L24.3992 47.0006C26.6203 37.2565 30.1522 30.1878 34.8394 25.5685L32.0317 22.7195ZM20.4968 46.1223C18.2572 56.2007 17.1533 68.662 17.1533 83.4702H21.1533C21.1533 68.835 22.2467 56.687 24.4016 46.99L20.4968 46.1223ZM204.058 71.3853L203.216 73.1997L203.223 73.2029L203.23 73.206L204.058 71.3853ZM222.734 87.4253L221.038 88.4853L221.042 88.4916L221.046 88.4979L222.734 87.4253ZM222.295 141.478L224.009 142.509L224.013 142.502L222.295 141.478ZM201.75 159.825L202.609 161.632L202.621 161.626L201.75 159.825ZM128.252 157.408H126.252V158.543L127.227 159.125L128.252 157.408ZM128.252 140.05L129.284 138.337L126.252 136.509V140.05H128.252ZM191.204 146.751L191.981 148.594L191.991 148.59L191.204 146.751ZM205.486 134.886L203.804 133.804L203.8 133.809L205.486 134.886ZM200.762 90.062L199.425 91.5494L199.433 91.5573L199.442 91.5651L200.762 90.062ZM141.436 84.7886L140.34 86.4618L141.072 86.941L141.921 86.7289L141.436 84.7886ZM132.207 78.7461L130.214 78.5834L130.117 79.7682L131.111 80.4193L132.207 78.7461ZM138.359 3.37988V1.37988H136.516L136.366 3.21716L138.359 3.37988ZM218.23 3.37988H220.23V1.37988H218.23V3.37988ZM218.23 20.0791V22.0791H220.23V20.0791H218.23ZM153.96 20.0791V18.0791H152.121L151.967 19.9119L153.96 20.0791ZM149.895 68.5288L147.902 68.3616L147.677 71.0395L150.307 70.4859L149.895 68.5288ZM160.662 66.771L160.926 68.7534L160.942 68.7513L160.958 68.7489L160.662 66.771ZM175.603 67.7822C186.291 67.7822 195.477 69.6113 203.216 73.1997L204.899 69.5708C196.525 65.6885 186.742 63.7822 175.603 63.7822V67.7822ZM203.23 73.206C210.954 76.7169 216.867 81.8103 221.038 88.4853L224.43 86.3653C219.813 78.9778 213.275 73.3778 204.885 69.5645L203.23 73.206ZM221.046 88.4979C225.272 95.1482 227.436 103.291 227.436 113.023H231.436C231.436 102.688 229.132 93.7649 224.422 86.3527L221.046 88.4979ZM227.436 113.023C227.436 123.715 225.122 132.832 220.577 140.454L224.013 142.502C228.989 134.157 231.436 124.304 231.436 113.023H227.436ZM220.581 140.447C216.036 147.999 209.493 153.859 200.88 158.025L202.621 161.626C211.879 157.149 219.032 150.778 224.008 142.509L220.581 140.447ZM200.892 158.019C192.285 162.111 181.899 164.197 169.67 164.197V168.197C182.344 168.197 193.345 166.036 202.609 161.631L200.892 158.019ZM169.67 164.197C161.437 164.197 153.809 163.475 146.779 162.04L145.979 165.96C153.306 167.455 161.205 168.197 169.67 168.197V164.197ZM146.779 162.04C139.763 160.609 133.945 158.478 129.277 155.691L127.227 159.125C132.373 162.198 138.64 164.462 145.979 165.96L146.779 162.04ZM130.252 157.408V140.05H126.252V157.408H130.252ZM127.22 141.763C132.774 145.11 139.45 147.74 147.213 149.681L148.183 145.8C140.711 143.932 134.424 141.435 129.284 138.337L127.22 141.763ZM147.213 149.681C154.974 151.621 162.534 152.597 169.89 152.597V148.597C162.89 148.597 155.656 147.668 148.183 145.8L147.213 149.681ZM169.89 152.597C178.227 152.597 185.606 151.283 191.981 148.594L190.427 144.909C184.643 147.347 177.813 148.597 169.89 148.597V152.597ZM191.991 148.59C198.486 145.807 203.571 141.599 207.171 135.963L203.8 133.809C200.663 138.721 196.226 142.423 190.416 144.913L191.991 148.59ZM207.167 135.969C210.867 130.223 212.649 123.12 212.649 114.781H208.649C208.649 122.556 206.99 128.856 203.804 133.804L207.167 135.969ZM212.649 114.781C212.649 103.65 209.199 94.8068 202.081 88.5589L199.442 91.5651C205.508 96.8895 208.649 104.526 208.649 114.781H212.649ZM202.099 88.5746C195.045 82.2342 184.124 79.2729 169.78 79.2729V83.2729C183.708 83.2729 193.441 86.171 199.425 91.5494L202.099 88.5746ZM169.78 79.2729C165.134 79.2729 160.062 79.6475 154.571 80.3896L155.107 84.3536C160.455 83.6308 165.345 83.2729 169.78 83.2729V79.2729ZM154.571 80.3896C149.111 81.1275 144.564 81.9449 140.95 82.8483L141.921 86.7289C145.338 85.8744 149.727 85.0805 155.107 84.3536L154.571 80.3896ZM142.531 83.1153L133.303 77.0729L131.111 80.4193L140.34 86.4618L142.531 83.1153ZM134.2 78.9088L140.353 3.54261L136.366 3.21716L130.214 78.5834L134.2 78.9088ZM138.359 5.37988H218.23V1.37988H138.359V5.37988ZM216.23 3.37988V20.0791H220.23V3.37988H216.23ZM218.23 18.0791H153.96V22.0791H218.23V18.0791ZM151.967 19.9119L147.902 68.3616L151.888 68.696L155.953 20.2463L151.967 19.9119ZM150.307 70.4859C153.022 69.9143 156.557 69.336 160.926 68.7534L160.397 64.7885C155.977 65.3779 152.334 65.9715 149.483 66.5717L150.307 70.4859ZM160.958 68.7489C165.234 68.1076 170.112 67.7822 175.603 67.7822V63.7822C169.961 63.7822 164.879 64.1161 160.365 64.7931L160.958 68.7489Z" fill="#F7F6F2" mask="url(#path-1-outside-1_36_137)"/>
</g>
</svg>
