<svg width="149" height="36" viewBox="0 0 149 36" fill="none" xmlns="http://www.w3.org/2000/svg">
<path d="M18 25.9051L24.225 29.6701C25.365 30.3601 26.76 29.3401 26.46 28.0501L24.81 20.9701L30.315 16.2001C31.32 15.3301 30.78 13.6801 29.46 13.5751L22.215 12.9601L19.38 6.27014C18.87 5.05514 17.13 5.05514 16.62 6.27014L13.785 12.9451L6.54 13.5601C5.22 13.6651 4.68 15.3151 5.685 16.1851L11.19 20.9551L9.54 28.0351C9.24 29.3251 10.635 30.3451 11.775 29.6551L18 25.9051Z" fill="#F0ECE6"/>
<path d="M57 25.9051L63.225 29.6701C64.365 30.3601 65.76 29.3401 65.46 28.0501L63.81 20.9701L69.315 16.2001C70.32 15.3301 69.78 13.6801 68.46 13.5751L61.215 12.9601L58.38 6.27014C57.87 5.05514 56.13 5.05514 55.62 6.27014L52.785 12.9451L45.54 13.5601C44.22 13.6651 43.68 15.3151 44.685 16.1851L50.19 20.9551L48.54 28.0351C48.24 29.3251 49.635 30.3451 50.775 29.6551L57 25.9051Z" fill="#F0ECE6"/>
<path d="M96 25.9051L102.225 29.6701C103.365 30.3601 104.76 29.3401 104.46 28.0501L102.81 20.9701L108.315 16.2001C109.32 15.3301 108.78 13.6801 107.46 13.5751L100.215 12.9601L97.38 6.27014C96.87 5.05514 95.13 5.05514 94.62 6.27014L91.785 12.9451L84.54 13.5601C83.22 13.6651 82.68 15.3151 83.685 16.1851L89.19 20.9551L87.54 28.0351C87.24 29.3251 88.635 30.3451 89.775 29.6551L96 25.9051Z" fill="#F0ECE6"/>
<path d="M131.03 25.6537L136.92 29.2151C137.998 29.8677 139.318 28.9029 139.034 27.6827L137.473 20.9856L142.682 16.4736C143.633 15.6507 143.122 14.0899 141.873 13.9906L135.018 13.4089L132.336 7.08071C131.853 5.93143 130.207 5.93143 129.725 7.08071L127.042 13.3947L120.188 13.9764C118.939 14.0757 118.428 15.6365 119.379 16.4594L124.587 20.9714L123.026 27.6685C122.742 28.8887 124.062 29.8535 125.141 29.2009L131.03 25.6537Z" fill="#F0ECE6"/>
</svg>
