<svg width="50" height="50" viewBox="0 0 50 50" fill="none" xmlns="http://www.w3.org/2000/svg">
<path d="M36.9896 29.1668C38.2321 29.1679 39.4233 29.6623 40.3015 30.5412C41.1796 31.4202 41.6729 32.6118 41.6729 33.8543V35.7668C41.6729 36.9606 41.3 38.1245 40.6063 39.096C37.3854 43.6043 32.1271 45.8356 25.0021 45.8356C17.8729 45.8356 12.6167 43.6022 9.40417 39.0939C8.71277 38.1231 8.34136 36.9608 8.34168 35.7689V33.8522C8.34223 32.6098 8.83604 31.4183 9.71461 30.5398C10.5932 29.6612 11.7846 29.1674 13.0271 29.1668H36.9896ZM25 4.17725C26.3679 4.17725 27.7225 4.44668 28.9863 4.97017C30.2501 5.49365 31.3984 6.26094 32.3657 7.22822C33.333 8.19549 34.1003 9.34382 34.6238 10.6076C35.1472 11.8714 35.4167 13.226 35.4167 14.5939C35.4167 15.9618 35.1472 17.3164 34.6238 18.5802C34.1003 19.844 33.333 20.9923 32.3657 21.9596C31.3984 22.9269 30.2501 23.6942 28.9863 24.2177C27.7225 24.7411 26.3679 25.0106 25 25.0106C22.2373 25.0106 19.5878 23.9131 17.6343 21.9596C15.6808 20.0061 14.5833 17.3566 14.5833 14.5939C14.5833 11.8312 15.6808 9.18172 17.6343 7.22822C19.5878 5.27471 22.2373 4.17725 25 4.17725Z" fill="#8C694F"/>
</svg>
