<svg width="1023" height="95" viewBox="0 0 1023 95" fill="none" xmlns="http://www.w3.org/2000/svg">
<g opacity="0.2">
<mask id="path-1-outside-1_299_5" maskUnits="userSpaceOnUse" x="-2" y="-2" width="1027" height="99" fill="black">
<rect fill="white" x="-2" y="-2" width="1027" height="99"/>
<path d="M24.7325 1.625C36.5241 1.625 45.1283 3.9375 50.545 8.5625C56.0033 13.1458 58.7325 19.7292 58.7325 28.3125C58.7325 32.1875 58.0866 35.875 56.795 39.375C55.545 42.8333 53.5033 45.8958 50.67 48.5625C47.8366 51.1875 44.1075 53.2708 39.4825 54.8125C34.8991 56.3125 29.2741 57.0625 22.6075 57.0625H11.4825V93H0.857483V1.625H24.7325ZM23.7325 10.6875H11.4825V47.9375H21.42C27.2533 47.9375 32.1075 47.3125 35.9825 46.0625C39.8991 44.8125 42.8366 42.7917 44.795 40C46.7533 37.1667 47.7325 33.4167 47.7325 28.75C47.7325 22.6667 45.795 18.1458 41.92 15.1875C38.045 12.1875 31.9825 10.6875 23.7325 10.6875ZM200.627 47.1875C200.627 54.2292 199.732 60.6458 197.94 66.4375C196.148 72.1875 193.482 77.1458 189.94 81.3125C186.44 85.4375 182.086 88.625 176.877 90.875C171.669 93.125 165.627 94.25 158.752 94.25C151.669 94.25 145.482 93.125 140.19 90.875C134.94 88.625 130.565 85.4167 127.065 81.25C123.607 77.0833 121.002 72.1042 119.252 66.3125C117.544 60.5208 116.69 54.1042 116.69 47.0625C116.69 37.7292 118.232 29.5417 121.315 22.5C124.398 15.4583 129.065 9.97917 135.315 6.0625C141.607 2.14583 149.482 0.1875 158.94 0.1875C167.982 0.1875 175.586 2.125 181.752 6C187.961 9.875 192.648 15.3333 195.815 22.375C199.023 29.375 200.627 37.6458 200.627 47.1875ZM127.877 47.1875C127.877 54.9375 128.982 61.6458 131.19 67.3125C133.398 72.9792 136.773 77.3542 141.315 80.4375C145.898 83.5208 151.711 85.0625 158.752 85.0625C165.836 85.0625 171.627 83.5208 176.127 80.4375C180.669 77.3542 184.023 72.9792 186.19 67.3125C188.357 61.6458 189.44 54.9375 189.44 47.1875C189.44 35.3958 186.961 26.1875 182.002 19.5625C177.086 12.8958 169.398 9.5625 158.94 9.5625C151.857 9.5625 146.023 11.0833 141.44 14.125C136.857 17.1667 133.44 21.5 131.19 27.125C128.982 32.7083 127.877 39.3958 127.877 47.1875ZM289.21 1.625C296.71 1.625 302.897 2.5625 307.772 4.4375C312.689 6.27083 316.356 9.08333 318.772 12.875C321.189 16.6667 322.397 21.5 322.397 27.375C322.397 32.2083 321.522 36.25 319.772 39.5C318.022 42.7083 315.731 45.3125 312.897 47.3125C310.064 49.3125 307.043 50.8542 303.835 51.9375L328.897 93H316.522L294.147 54.875H275.147V93H264.522V1.625H289.21ZM288.585 10.8125H275.147V45.875H289.647C297.106 45.875 302.585 44.3542 306.085 41.3125C309.627 38.2708 311.397 33.7917 311.397 27.875C311.397 21.6667 309.522 17.2708 305.772 14.6875C302.064 12.1042 296.335 10.8125 288.585 10.8125ZM415.105 93H404.417V11H375.667V1.625H443.73V11H415.105V93ZM511.688 93H501.062V1.625H551.938V11H511.688V44.5H549.5V53.8125H511.688V93ZM689.957 47.1875C689.957 54.2292 689.062 60.6458 687.27 66.4375C685.478 72.1875 682.812 77.1458 679.27 81.3125C675.77 85.4375 671.416 88.625 666.207 90.875C660.999 93.125 654.957 94.25 648.082 94.25C640.999 94.25 634.812 93.125 629.52 90.875C624.27 88.625 619.895 85.4167 616.395 81.25C612.937 77.0833 610.332 72.1042 608.582 66.3125C606.874 60.5208 606.02 54.1042 606.02 47.0625C606.02 37.7292 607.562 29.5417 610.645 22.5C613.728 15.4583 618.395 9.97917 624.645 6.0625C630.937 2.14583 638.812 0.1875 648.27 0.1875C657.312 0.1875 664.916 2.125 671.082 6C677.291 9.875 681.978 15.3333 685.145 22.375C688.353 29.375 689.957 37.6458 689.957 47.1875ZM617.207 47.1875C617.207 54.9375 618.312 61.6458 620.52 67.3125C622.728 72.9792 626.103 77.3542 630.645 80.4375C635.228 83.5208 641.041 85.0625 648.082 85.0625C655.166 85.0625 660.957 83.5208 665.457 80.4375C669.999 77.3542 673.353 72.9792 675.52 67.3125C677.687 61.6458 678.77 54.9375 678.77 47.1875C678.77 35.3958 676.291 26.1875 671.332 19.5625C666.416 12.8958 658.728 9.5625 648.27 9.5625C641.187 9.5625 635.353 11.0833 630.77 14.125C626.187 17.1667 622.77 21.5 620.52 27.125C618.312 32.7083 617.207 39.3958 617.207 47.1875ZM753.852 93V1.625H764.477V83.5H805.04V93H753.852ZM864.247 93V1.625H874.872V93H864.247ZM1022.77 47.1875C1022.77 54.2292 1021.87 60.6458 1020.08 66.4375C1018.29 72.1875 1015.62 77.1458 1012.08 81.3125C1008.58 85.4375 1004.23 88.625 999.018 90.875C993.809 93.125 987.768 94.25 980.893 94.25C973.809 94.25 967.622 93.125 962.33 90.875C957.08 88.625 952.705 85.4167 949.205 81.25C945.747 77.0833 943.143 72.1042 941.393 66.3125C939.684 60.5208 938.83 54.1042 938.83 47.0625C938.83 37.7292 940.372 29.5417 943.455 22.5C946.538 15.4583 951.205 9.97917 957.455 6.0625C963.747 2.14583 971.622 0.1875 981.08 0.1875C990.122 0.1875 997.726 2.125 1003.89 6C1010.1 9.875 1014.79 15.3333 1017.96 22.375C1021.16 29.375 1022.77 37.6458 1022.77 47.1875ZM950.018 47.1875C950.018 54.9375 951.122 61.6458 953.33 67.3125C955.538 72.9792 958.913 77.3542 963.455 80.4375C968.038 83.5208 973.851 85.0625 980.893 85.0625C987.976 85.0625 993.768 83.5208 998.268 80.4375C1002.81 77.3542 1006.16 72.9792 1008.33 67.3125C1010.5 61.6458 1011.58 54.9375 1011.58 47.1875C1011.58 35.3958 1009.1 26.1875 1004.14 19.5625C999.226 12.8958 991.538 9.5625 981.08 9.5625C973.997 9.5625 968.163 11.0833 963.58 14.125C958.997 17.1667 955.58 21.5 953.33 27.125C951.122 32.7083 950.018 39.3958 950.018 47.1875Z"/>
</mask>
<path d="M50.545 8.5625L49.2463 10.0835L49.2526 10.0888L49.2589 10.0941L50.545 8.5625ZM56.795 39.375L54.9186 38.6825L54.9141 38.6952L56.795 39.375ZM50.67 48.5625L52.0292 50.0296L52.035 50.0243L52.0407 50.0189L50.67 48.5625ZM39.4825 54.8125L40.1046 56.7133L40.1149 56.7099L39.4825 54.8125ZM11.4825 57.0625V55.0625H9.48248V57.0625H11.4825ZM11.4825 93V95H13.4825V93H11.4825ZM0.857483 93H-1.14252V95H0.857483V93ZM0.857483 1.625V-0.375H-1.14252V1.625H0.857483ZM11.4825 10.6875V8.6875H9.48248V10.6875H11.4825ZM11.4825 47.9375H9.48248V49.9375H11.4825V47.9375ZM35.9825 46.0625L35.3744 44.1572L35.3685 44.1591L35.9825 46.0625ZM44.795 40L46.4323 41.1486L46.4402 41.1372L44.795 40ZM41.92 15.1875L40.6956 16.769L40.7064 16.7772L41.92 15.1875ZM24.7325 3.625C36.3375 3.625 44.3636 5.91439 49.2463 10.0835L51.8437 7.04151C45.8931 1.96061 36.7108 -0.375 24.7325 -0.375V3.625ZM49.2589 10.0941C54.1719 14.2196 56.7325 20.1873 56.7325 28.3125H60.7325C60.7325 19.2711 57.8347 12.0721 51.8311 7.03086L49.2589 10.0941ZM56.7325 28.3125C56.7325 31.9605 56.1254 35.4128 54.9187 38.6826L58.6713 40.0674C60.0479 36.3372 60.7325 32.4145 60.7325 28.3125H56.7325ZM54.9141 38.6952C53.777 41.841 51.9176 44.6418 49.2993 47.1061L52.0407 50.0189C55.0891 47.1499 57.313 43.8256 58.6759 40.0548L54.9141 38.6952ZM49.3107 47.0954C46.7335 49.4831 43.2734 51.4407 38.85 52.9151L40.1149 56.7099C44.9415 55.101 48.9398 52.8919 52.0292 50.0296L49.3107 47.0954ZM38.8604 52.9117C34.5383 54.3262 29.1375 55.0625 22.6075 55.0625V59.0625C29.4108 59.0625 35.26 58.2988 40.1046 56.7133L38.8604 52.9117ZM22.6075 55.0625H11.4825V59.0625H22.6075V55.0625ZM9.48248 57.0625V93H13.4825V57.0625H9.48248ZM11.4825 91H0.857483V95H11.4825V91ZM2.85748 93V1.625H-1.14252V93H2.85748ZM0.857483 3.625H24.7325V-0.375H0.857483V3.625ZM23.7325 8.6875H11.4825V12.6875H23.7325V8.6875ZM9.48248 10.6875V47.9375H13.4825V10.6875H9.48248ZM11.4825 49.9375H21.42V45.9375H11.4825V49.9375ZM21.42 49.9375C27.3796 49.9375 32.4576 49.301 36.5965 47.9659L35.3685 44.1591C31.7573 45.324 27.1271 45.9375 21.42 45.9375V49.9375ZM36.5906 47.9678C40.8357 46.613 44.1745 44.3672 46.4323 41.1486L43.1577 38.8514C41.4988 41.2161 38.9626 43.012 35.3744 44.1572L36.5906 47.9678ZM46.4402 41.1372C48.6986 37.8698 49.7325 33.6819 49.7325 28.75H45.7325C45.7325 33.1514 44.8081 36.4635 43.1497 38.8628L46.4402 41.1372ZM49.7325 28.75C49.7325 22.2141 47.6259 17.0274 43.1336 13.5978L40.7064 16.7772C43.9641 19.2643 45.7325 23.1192 45.7325 28.75H49.7325ZM43.1443 13.6061C38.7501 10.2041 32.1502 8.6875 23.7325 8.6875V12.6875C31.8148 12.6875 37.3398 14.1709 40.6956 16.7689L43.1443 13.6061ZM197.94 66.4375L199.849 67.0325L199.851 67.0286L197.94 66.4375ZM189.94 81.3125L188.416 80.0172L188.415 80.0185L189.94 81.3125ZM140.19 90.875L139.402 92.7133L139.407 92.7155L140.19 90.875ZM127.065 81.25L125.526 82.5274L125.534 82.5364L127.065 81.25ZM119.252 66.3125L117.334 66.8783L117.338 66.891L119.252 66.3125ZM135.315 6.0625L134.258 4.3646L134.253 4.36777L135.315 6.0625ZM181.752 6L180.688 7.69343L180.694 7.69664L181.752 6ZM195.815 22.375L193.991 23.1953L193.994 23.2018L193.997 23.2083L195.815 22.375ZM141.315 80.4375L140.192 82.0922L140.199 82.0969L141.315 80.4375ZM176.127 80.4375L175.004 78.7828L174.997 78.7876L176.127 80.4375ZM182.002 19.5625L180.393 20.7496L180.401 20.7609L182.002 19.5625ZM141.44 14.125L140.334 12.4586L141.44 14.125ZM131.19 27.125L129.333 26.3822L129.33 26.3894L131.19 27.125ZM198.627 47.1875C198.627 54.0604 197.753 60.2742 196.029 65.8464L199.851 67.0286C201.71 61.0175 202.627 54.398 202.627 47.1875H198.627ZM196.031 65.8425C194.311 71.3617 191.767 76.0756 188.416 80.0172L191.464 82.6078C195.197 78.2161 197.986 73.0133 199.849 67.0325L196.031 65.8425ZM188.415 80.0185C185.124 83.8975 181.024 86.9049 176.084 89.039L177.671 92.711C183.147 90.3451 187.756 86.9775 191.465 82.6065L188.415 80.0185ZM176.084 89.039C171.174 91.1605 165.411 92.25 158.752 92.25V96.25C165.844 96.25 172.165 95.0895 177.671 92.711L176.084 89.039ZM158.752 92.25C151.877 92.25 145.967 91.1579 140.973 89.0345L139.407 92.7155C144.997 95.0921 151.461 96.25 158.752 96.25V92.25ZM140.978 89.0367C136.001 86.9037 131.885 83.8787 128.596 79.9636L125.534 82.5364C129.245 86.9546 133.879 90.3463 139.402 92.7133L140.978 89.0367ZM128.604 79.9727C125.335 76.0344 122.849 71.3 121.167 65.734L117.338 66.891C119.156 72.9083 121.878 78.1323 125.526 82.5273L128.604 79.9727ZM121.171 65.7467C119.525 60.1663 118.69 53.9436 118.69 47.0625H114.69C114.69 54.2647 115.564 60.8754 117.334 66.8783L121.171 65.7467ZM118.69 47.0625C118.69 37.9475 120.196 30.0429 123.147 23.3022L119.483 21.6978C116.268 29.0405 114.69 37.5109 114.69 47.0625H118.69ZM123.147 23.3022C126.076 16.6122 130.482 11.4512 136.377 7.75723L134.253 4.36777C127.648 8.50718 122.72 14.3045 119.483 21.6978L123.147 23.3022ZM136.372 7.76039C142.27 4.0889 149.753 2.1875 158.94 2.1875V-1.8125C149.21 -1.8125 140.944 0.202763 134.258 4.36461L136.372 7.76039ZM158.94 2.1875C167.696 2.1875 174.909 4.06207 180.688 7.69342L182.817 4.30658C176.262 0.18793 168.267 -1.8125 158.94 -1.8125V2.1875ZM180.694 7.69664C186.547 11.3499 190.977 16.4941 193.991 23.1953L197.639 21.5547C194.319 14.1725 189.375 8.40007 182.811 4.30336L180.694 7.69664ZM193.997 23.2083C197.06 29.8921 198.627 37.8664 198.627 47.1875H202.627C202.627 37.4252 200.986 28.8579 197.633 21.5417L193.997 23.2083ZM125.877 47.1875C125.877 55.1207 127.007 62.0867 129.326 68.0387L133.053 66.5863C130.956 61.205 129.877 54.7543 129.877 47.1875H125.877ZM129.326 68.0387C131.665 74.0402 135.279 78.7571 140.192 82.0922L142.438 78.7828C138.268 75.9512 135.131 71.9181 133.053 66.5863L129.326 68.0387ZM140.199 82.0969C145.192 85.4561 151.422 87.0625 158.752 87.0625V83.0625C152 83.0625 146.605 81.5856 142.431 78.7781L140.199 82.0969ZM158.752 87.0625C166.12 87.0625 172.339 85.4581 177.258 82.0874L174.997 78.7876C170.916 81.5836 165.552 83.0625 158.752 83.0625V87.0625ZM177.251 82.0922C182.167 78.7549 185.761 74.0337 188.058 68.0268L184.322 66.5982C182.285 71.9246 179.172 75.9534 175.004 78.7828L177.251 82.0922ZM188.058 68.0268C190.332 62.0786 191.44 55.1169 191.44 47.1875H187.44C187.44 54.7581 186.381 61.2131 184.322 66.5982L188.058 68.0268ZM191.44 47.1875C191.44 35.1417 188.91 25.4545 183.604 18.3641L180.401 20.7609C185.011 26.9205 187.44 35.6499 187.44 47.1875H191.44ZM183.612 18.3754C178.221 11.065 169.849 7.5625 158.94 7.5625V11.5625C168.948 11.5625 175.951 14.7266 180.393 20.7496L183.612 18.3754ZM158.94 7.5625C151.575 7.5625 145.328 9.14465 140.334 12.4586L142.546 15.7914C146.719 13.022 152.138 11.5625 158.94 11.5625V7.5625ZM140.334 12.4586C135.378 15.7474 131.718 20.4202 129.333 26.3822L133.047 27.8678C135.162 22.5798 138.335 18.5859 142.546 15.7914L140.334 12.4586ZM129.33 26.3894C127.006 32.2652 125.877 39.2153 125.877 47.1875H129.877C129.877 39.5763 130.957 33.1515 133.05 27.8606L129.33 26.3894ZM307.772 4.4375L307.055 6.30419L307.064 6.30788L307.074 6.31146L307.772 4.4375ZM319.772 39.5L321.528 40.4577L321.533 40.4482L319.772 39.5ZM303.835 51.9375L303.195 50.0426L300.824 50.8433L302.128 52.9795L303.835 51.9375ZM328.897 93V95H332.461L330.605 91.958L328.897 93ZM316.522 93L314.798 94.0123L315.377 95H316.522V93ZM294.147 54.875L295.872 53.8627L295.293 52.875H294.147V54.875ZM275.147 54.875V52.875H273.147V54.875H275.147ZM275.147 93V95H277.147V93H275.147ZM264.522 93H262.522V95H264.522V93ZM264.522 1.625V-0.375H262.522V1.625H264.522ZM275.147 10.8125V8.8125H273.147V10.8125H275.147ZM275.147 45.875H273.147V47.875H275.147V45.875ZM306.085 41.3125L304.782 39.7952L304.773 39.8029L306.085 41.3125ZM305.772 14.6875L304.629 16.3286L304.638 16.3345L305.772 14.6875ZM289.21 3.625C296.563 3.625 302.485 4.54675 307.055 6.30419L308.49 2.57081C303.31 0.578248 296.857 -0.375 289.21 -0.375V3.625ZM307.074 6.31146C311.654 8.01924 314.94 10.5838 317.086 13.9499L320.459 11.8001C317.771 7.58291 313.725 4.52243 308.471 2.56354L307.074 6.31146ZM317.086 13.9499C319.244 17.3358 320.397 21.7661 320.397 27.375H324.397C324.397 21.2339 323.134 15.9976 320.459 11.8001L317.086 13.9499ZM320.397 27.375C320.397 31.9764 319.564 35.6695 318.012 38.5518L321.533 40.4482C323.481 36.8305 324.397 32.4403 324.397 27.375H320.397ZM318.017 38.5423C316.405 41.4969 314.314 43.8644 311.744 45.6786L314.051 48.9464C317.147 46.7606 319.64 43.9197 321.528 40.4577L318.017 38.5423ZM311.744 45.6786C309.065 47.57 306.216 49.0225 303.195 50.0426L304.475 53.8324C307.87 52.6858 311.064 51.055 314.051 48.9464L311.744 45.6786ZM302.128 52.9795L327.19 94.042L330.605 91.958L305.542 50.8955L302.128 52.9795ZM328.897 91H316.522V95H328.897V91ZM318.247 91.9877L295.872 53.8627L292.423 55.8873L314.798 94.0123L318.247 91.9877ZM294.147 52.875H275.147V56.875H294.147V52.875ZM273.147 54.875V93H277.147V54.875H273.147ZM275.147 91H264.522V95H275.147V91ZM266.522 93V1.625H262.522V93H266.522ZM264.522 3.625H289.21V-0.375H264.522V3.625ZM288.585 8.8125H275.147V12.8125H288.585V8.8125ZM273.147 10.8125V45.875H277.147V10.8125H273.147ZM275.147 47.875H289.647V43.875H275.147V47.875ZM289.647 47.875C297.312 47.875 303.368 46.3233 307.397 42.8221L304.773 39.8029C301.802 42.385 296.9 43.875 289.647 43.875V47.875ZM307.388 42.8298C311.485 39.3108 313.397 34.2068 313.397 27.875H309.397C309.397 33.3766 307.768 37.2308 304.782 39.7952L307.388 42.8298ZM313.397 27.875C313.397 21.2699 311.383 16.1241 306.907 13.0405L304.638 16.3345C307.662 18.4176 309.397 22.0634 309.397 27.875H313.397ZM306.916 13.0464C302.708 10.1151 296.483 8.8125 288.585 8.8125V12.8125C296.187 12.8125 301.42 14.0932 304.629 16.3286L306.916 13.0464ZM415.105 93V95H417.105V93H415.105ZM404.417 93H402.417V95H404.417V93ZM404.417 11H406.417V9H404.417V11ZM375.667 11H373.667V13H375.667V11ZM375.667 1.625V-0.375H373.667V1.625H375.667ZM443.73 1.625H445.73V-0.375H443.73V1.625ZM443.73 11V13H445.73V11H443.73ZM415.105 11V9H413.105V11H415.105ZM415.105 91H404.417V95H415.105V91ZM406.417 93V11H402.417V93H406.417ZM404.417 9H375.667V13H404.417V9ZM377.667 11V1.625H373.667V11H377.667ZM375.667 3.625H443.73V-0.375H375.667V3.625ZM441.73 1.625V11H445.73V1.625H441.73ZM443.73 9H415.105V13H443.73V9ZM413.105 11V93H417.105V11H413.105ZM511.688 93V95H513.688V93H511.688ZM501.062 93H499.062V95H501.062V93ZM501.062 1.625V-0.375H499.062V1.625H501.062ZM551.938 1.625H553.938V-0.375H551.938V1.625ZM551.938 11V13H553.938V11H551.938ZM511.688 11V9H509.688V11H511.688ZM511.688 44.5H509.688V46.5H511.688V44.5ZM549.5 44.5H551.5V42.5H549.5V44.5ZM549.5 53.8125V55.8125H551.5V53.8125H549.5ZM511.688 53.8125V51.8125H509.688V53.8125H511.688ZM511.688 91H501.062V95H511.688V91ZM503.062 93V1.625H499.062V93H503.062ZM501.062 3.625H551.938V-0.375H501.062V3.625ZM549.938 1.625V11H553.938V1.625H549.938ZM551.938 9H511.688V13H551.938V9ZM509.688 11V44.5H513.688V11H509.688ZM511.688 46.5H549.5V42.5H511.688V46.5ZM547.5 44.5V53.8125H551.5V44.5H547.5ZM549.5 51.8125H511.688V55.8125H549.5V51.8125ZM509.688 53.8125V93H513.688V53.8125H509.688ZM687.27 66.4375L689.179 67.0325L689.181 67.0286L687.27 66.4375ZM679.27 81.3125L677.746 80.0172L677.745 80.0185L679.27 81.3125ZM629.52 90.875L628.732 92.7133L628.737 92.7155L629.52 90.875ZM616.395 81.25L614.856 82.5274L614.864 82.5364L616.395 81.25ZM608.582 66.3125L606.664 66.8783L606.668 66.891L608.582 66.3125ZM624.645 6.0625L623.588 4.3646L623.583 4.36777L624.645 6.0625ZM671.082 6L670.018 7.69343L670.023 7.69664L671.082 6ZM685.145 22.375L683.321 23.1953L683.324 23.2018L683.327 23.2083L685.145 22.375ZM630.645 80.4375L629.522 82.0922L629.529 82.0969L630.645 80.4375ZM665.457 80.4375L664.334 78.7828L664.327 78.7876L665.457 80.4375ZM671.332 19.5625L669.723 20.7496L669.731 20.7609L671.332 19.5625ZM630.77 14.125L629.664 12.4586L630.77 14.125ZM620.52 27.125L618.663 26.3822L618.66 26.3894L620.52 27.125ZM687.957 47.1875C687.957 54.0604 687.083 60.2742 685.359 65.8464L689.181 67.0286C691.04 61.0175 691.957 54.398 691.957 47.1875H687.957ZM685.361 65.8425C683.641 71.3617 681.096 76.0756 677.746 80.0172L680.794 82.6078C684.527 78.2161 687.316 73.0133 689.179 67.0325L685.361 65.8425ZM677.745 80.0185C674.454 83.8975 670.354 86.9049 665.414 89.039L667.001 92.711C672.477 90.3451 677.086 86.9775 680.795 82.6065L677.745 80.0185ZM665.414 89.039C660.504 91.1605 654.741 92.25 648.082 92.25V96.25C655.174 96.25 661.495 95.0895 667.001 92.711L665.414 89.039ZM648.082 92.25C641.207 92.25 635.296 91.1579 630.303 89.0345L628.737 92.7155C634.327 95.0921 640.791 96.25 648.082 96.25V92.25ZM630.308 89.0367C625.331 86.9037 621.215 83.8787 617.926 79.9636L614.864 82.5364C618.575 86.9546 623.209 90.3463 628.732 92.7133L630.308 89.0367ZM617.934 79.9727C614.665 76.0344 612.179 71.3 610.497 65.734L606.668 66.891C608.486 72.9083 611.208 78.1323 614.856 82.5273L617.934 79.9727ZM610.501 65.7467C608.855 60.1663 608.02 53.9436 608.02 47.0625H604.02C604.02 54.2647 604.894 60.8754 606.664 66.8783L610.501 65.7467ZM608.02 47.0625C608.02 37.9475 609.525 30.0429 612.477 23.3022L608.813 21.6978C605.598 29.0405 604.02 37.5109 604.02 47.0625H608.02ZM612.477 23.3022C615.406 16.6122 619.812 11.4512 625.707 7.75723L623.583 4.36777C616.977 8.50718 612.05 14.3045 608.813 21.6978L612.477 23.3022ZM625.702 7.76039C631.6 4.0889 639.083 2.1875 648.27 2.1875V-1.8125C638.54 -1.8125 630.274 0.202763 623.588 4.36461L625.702 7.76039ZM648.27 2.1875C657.026 2.1875 664.239 4.06207 670.018 7.69342L672.147 4.30658C665.592 0.18793 657.597 -1.8125 648.27 -1.8125V2.1875ZM670.023 7.69664C675.877 11.3499 680.307 16.4941 683.321 23.1953L686.969 21.5547C683.649 14.1725 678.705 8.40007 672.141 4.30336L670.023 7.69664ZM683.327 23.2083C686.39 29.8921 687.957 37.8664 687.957 47.1875H691.957C691.957 37.4252 690.316 28.8579 686.963 21.5417L683.327 23.2083ZM615.207 47.1875C615.207 55.1207 616.337 62.0867 618.656 68.0387L622.383 66.5863C620.286 61.205 619.207 54.7543 619.207 47.1875H615.207ZM618.656 68.0387C620.995 74.0402 624.609 78.7571 629.522 82.0922L631.768 78.7828C627.597 75.9512 624.461 71.9181 622.383 66.5863L618.656 68.0387ZM629.529 82.0969C634.522 85.4561 640.752 87.0625 648.082 87.0625V83.0625C641.33 83.0625 635.935 81.5856 631.761 78.7781L629.529 82.0969ZM648.082 87.0625C655.45 87.0625 661.668 85.4581 666.588 82.0874L664.327 78.7876C660.246 81.5836 654.882 83.0625 648.082 83.0625V87.0625ZM666.581 82.0922C671.497 78.7549 675.091 74.0337 677.388 68.0268L673.652 66.5982C671.615 71.9246 668.502 75.9534 664.334 78.7828L666.581 82.0922ZM677.388 68.0268C679.662 62.0786 680.77 55.1169 680.77 47.1875H676.77C676.77 54.7581 675.711 61.2131 673.652 66.5982L677.388 68.0268ZM680.77 47.1875C680.77 35.1417 678.24 25.4545 672.934 18.3641L669.731 20.7609C674.341 26.9205 676.77 35.6499 676.77 47.1875H680.77ZM672.942 18.3754C667.551 11.065 659.179 7.5625 648.27 7.5625V11.5625C658.278 11.5625 665.281 14.7266 669.723 20.7496L672.942 18.3754ZM648.27 7.5625C640.905 7.5625 634.658 9.14465 629.664 12.4586L631.876 15.7914C636.049 13.022 641.468 11.5625 648.27 11.5625V7.5625ZM629.664 12.4586C624.708 15.7474 621.048 20.4202 618.663 26.3822L622.377 27.8678C624.492 22.5798 627.665 18.5859 631.876 15.7914L629.664 12.4586ZM618.66 26.3894C616.336 32.2652 615.207 39.2153 615.207 47.1875H619.207C619.207 39.5763 620.287 33.1515 622.38 27.8606L618.66 26.3894ZM753.852 93H751.852V95H753.852V93ZM753.852 1.625V-0.375H751.852V1.625H753.852ZM764.477 1.625H766.477V-0.375H764.477V1.625ZM764.477 83.5H762.477V85.5H764.477V83.5ZM805.04 83.5H807.04V81.5H805.04V83.5ZM805.04 93V95H807.04V93H805.04ZM755.852 93V1.625H751.852V93H755.852ZM753.852 3.625H764.477V-0.375H753.852V3.625ZM762.477 1.625V83.5H766.477V1.625H762.477ZM764.477 85.5H805.04V81.5H764.477V85.5ZM803.04 83.5V93H807.04V83.5H803.04ZM805.04 91H753.852V95H805.04V91ZM864.247 93H862.247V95H864.247V93ZM864.247 1.625V-0.375H862.247V1.625H864.247ZM874.872 1.625H876.872V-0.375H874.872V1.625ZM874.872 93V95H876.872V93H874.872ZM866.247 93V1.625H862.247V93H866.247ZM864.247 3.625H874.872V-0.375H864.247V3.625ZM872.872 1.625V93H876.872V1.625H872.872ZM874.872 91H864.247V95H874.872V91ZM1020.08 66.4375L1021.99 67.0325L1021.99 67.0286L1020.08 66.4375ZM1012.08 81.3125L1010.56 80.0172L1010.56 80.0185L1012.08 81.3125ZM962.33 90.875L961.542 92.7133L961.547 92.7155L962.33 90.875ZM949.205 81.25L947.666 82.5274L947.674 82.5364L949.205 81.25ZM941.393 66.3125L939.474 66.8783L939.478 66.891L941.393 66.3125ZM957.455 6.0625L956.398 4.3646L956.393 4.36777L957.455 6.0625ZM1003.89 6L1002.83 7.69343L1002.83 7.69664L1003.89 6ZM1017.96 22.375L1016.13 23.1953L1016.13 23.2018L1016.14 23.2083L1017.96 22.375ZM963.455 80.4375L962.332 82.0922L962.339 82.0969L963.455 80.4375ZM998.268 80.4375L997.144 78.7828L997.137 78.7876L998.268 80.4375ZM1004.14 19.5625L1002.53 20.7496L1002.54 20.7609L1004.14 19.5625ZM963.58 14.125L962.474 12.4586L963.58 14.125ZM953.33 27.125L951.473 26.3822L951.47 26.3894L953.33 27.125ZM1020.77 47.1875C1020.77 54.0604 1019.89 60.2742 1018.17 65.8464L1021.99 67.0286C1023.85 61.0175 1024.77 54.398 1024.77 47.1875H1020.77ZM1018.17 65.8425C1016.45 71.3617 1013.91 76.0756 1010.56 80.0172L1013.6 82.6078C1017.34 78.2161 1020.13 73.0133 1021.99 67.0325L1018.17 65.8425ZM1010.56 80.0185C1007.26 83.8975 1003.16 86.9049 998.224 89.039L999.811 92.711C1005.29 90.3451 1009.9 86.9775 1013.61 82.6065L1010.56 80.0185ZM998.224 89.039C993.314 91.1605 987.551 92.25 980.893 92.25V96.25C987.984 96.25 994.305 95.0895 999.811 92.711L998.224 89.039ZM980.893 92.25C974.018 92.25 968.107 91.1579 963.113 89.0345L961.547 92.7155C967.137 95.0921 973.601 96.25 980.893 96.25V92.25ZM963.118 89.0367C958.141 86.9037 954.025 83.8787 950.736 79.9636L947.674 82.5364C951.385 86.9546 956.019 90.3463 961.542 92.7133L963.118 89.0367ZM950.744 79.9727C947.475 76.0344 944.989 71.3 943.307 65.734L939.478 66.891C941.296 72.9083 944.018 78.1323 947.666 82.5273L950.744 79.9727ZM943.311 65.7467C941.665 60.1663 940.83 53.9436 940.83 47.0625H936.83C936.83 54.2647 937.704 60.8754 939.474 66.8783L943.311 65.7467ZM940.83 47.0625C940.83 37.9475 942.336 30.0429 945.287 23.3022L941.623 21.6978C938.408 29.0405 936.83 37.5109 936.83 47.0625H940.83ZM945.287 23.3022C948.217 16.6122 952.623 11.4512 958.517 7.75723L956.393 4.36777C949.788 8.50718 944.86 14.3045 941.623 21.6978L945.287 23.3022ZM958.512 7.76039C964.41 4.0889 971.893 2.1875 981.08 2.1875V-1.8125C971.35 -1.8125 963.084 0.202763 956.398 4.36461L958.512 7.76039ZM981.08 2.1875C989.836 2.1875 997.05 4.06207 1002.83 7.69342L1004.96 4.30658C998.402 0.18793 990.408 -1.8125 981.08 -1.8125V2.1875ZM1002.83 7.69664C1008.69 11.3499 1013.12 16.4941 1016.13 23.1953L1019.78 21.5547C1016.46 14.1725 1011.52 8.40007 1004.95 4.30336L1002.83 7.69664ZM1016.14 23.2083C1019.2 29.8921 1020.77 37.8664 1020.77 47.1875H1024.77C1024.77 37.4252 1023.13 28.8579 1019.77 21.5417L1016.14 23.2083ZM948.018 47.1875C948.018 55.1207 949.147 62.0867 951.467 68.0387L955.194 66.5863C953.096 61.205 952.018 54.7543 952.018 47.1875H948.018ZM951.467 68.0387C953.805 74.0402 957.419 78.7571 962.332 82.0922L964.578 78.7828C960.408 75.9512 957.271 71.9181 955.194 66.5863L951.467 68.0387ZM962.339 82.0969C967.332 85.4561 973.562 87.0625 980.893 87.0625V83.0625C974.14 83.0625 968.745 81.5856 964.571 78.7781L962.339 82.0969ZM980.893 87.0625C988.26 87.0625 994.479 85.4581 999.398 82.0874L997.137 78.7876C993.057 81.5836 987.692 83.0625 980.893 83.0625V87.0625ZM999.391 82.0922C1004.31 78.7549 1007.9 74.0337 1010.2 68.0268L1006.46 66.5982C1004.43 71.9246 1001.31 75.9534 997.144 78.7828L999.391 82.0922ZM1010.2 68.0268C1012.47 62.0786 1013.58 55.1169 1013.58 47.1875H1009.58C1009.58 54.7581 1008.52 61.2131 1006.46 66.5982L1010.2 68.0268ZM1013.58 47.1875C1013.58 35.1417 1011.05 25.4545 1005.74 18.3641L1002.54 20.7609C1007.15 26.9205 1009.58 35.6499 1009.58 47.1875H1013.58ZM1005.75 18.3754C1000.36 11.065 991.989 7.5625 981.08 7.5625V11.5625C991.088 11.5625 998.091 14.7266 1002.53 20.7496L1005.75 18.3754ZM981.08 7.5625C973.716 7.5625 967.468 9.14465 962.474 12.4586L964.686 15.7914C968.859 13.022 974.278 11.5625 981.08 11.5625V7.5625ZM962.474 12.4586C957.518 15.7474 953.858 20.4202 951.473 26.3822L955.187 27.8678C957.302 22.5798 960.475 18.5859 964.686 15.7914L962.474 12.4586ZM951.47 26.3894C949.146 32.2652 948.018 39.2153 948.018 47.1875H952.018C952.018 39.5763 953.097 33.1515 955.19 27.8606L951.47 26.3894Z" fill="#F0ECE6" mask="url(#path-1-outside-1_299_5)"/>
</g>
</svg>
