<svg width="1158" height="95" viewBox="0 0 1158 95" fill="none" xmlns="http://www.w3.org/2000/svg">
<g opacity="0.2">
<mask id="path-1-outside-1_8_109" maskUnits="userSpaceOnUse" x="-2" y="-2" width="1162" height="99" fill="black">
<rect fill="white" x="-2" y="-2" width="1162" height="99"/>
<path d="M0.482483 93V1.625H68.545V93H58.045V11H11.1075V93H0.482483ZM216.502 47.1875C216.502 54.2292 215.607 60.6458 213.815 66.4375C212.023 72.1875 209.357 77.1458 205.815 81.3125C202.315 85.4375 197.961 88.625 192.752 90.875C187.544 93.125 181.502 94.25 174.627 94.25C167.544 94.25 161.357 93.125 156.065 90.875C150.815 88.625 146.44 85.4167 142.94 81.25C139.482 77.0833 136.877 72.1042 135.127 66.3125C133.419 60.5208 132.565 54.1042 132.565 47.0625C132.565 37.7292 134.107 29.5417 137.19 22.5C140.273 15.4583 144.94 9.97917 151.19 6.0625C157.482 2.14583 165.357 0.1875 174.815 0.1875C183.857 0.1875 191.461 2.125 197.627 6C203.836 9.875 208.523 15.3333 211.69 22.375C214.898 29.375 216.502 37.6458 216.502 47.1875ZM143.752 47.1875C143.752 54.9375 144.857 61.6458 147.065 67.3125C149.273 72.9792 152.648 77.3542 157.19 80.4375C161.773 83.5208 167.586 85.0625 174.627 85.0625C181.711 85.0625 187.502 83.5208 192.002 80.4375C196.544 77.3542 199.898 72.9792 202.065 67.3125C204.232 61.6458 205.315 54.9375 205.315 47.1875C205.315 35.3958 202.836 26.1875 197.877 19.5625C192.961 12.8958 185.273 9.5625 174.815 9.5625C167.732 9.5625 161.898 11.0833 157.315 14.125C152.732 17.1667 149.315 21.5 147.065 27.125C144.857 32.7083 143.752 39.3958 143.752 47.1875ZM304.272 1.625C316.064 1.625 324.668 3.9375 330.085 8.5625C335.543 13.1458 338.272 19.7292 338.272 28.3125C338.272 32.1875 337.627 35.875 336.335 39.375C335.085 42.8333 333.043 45.8958 330.21 48.5625C327.377 51.1875 323.647 53.2708 319.022 54.8125C314.439 56.3125 308.814 57.0625 302.147 57.0625H291.022V93H280.397V1.625H304.272ZM303.272 10.6875H291.022V47.9375H300.96C306.793 47.9375 311.647 47.3125 315.522 46.0625C319.439 44.8125 322.377 42.7917 324.335 40C326.293 37.1667 327.272 33.4167 327.272 28.75C327.272 22.6667 325.335 18.1458 321.46 15.1875C317.585 12.1875 311.522 10.6875 303.272 10.6875ZM428.98 93H418.292V11H389.542V1.625H457.605V11H428.98V93ZM558.625 0.3125V11.5625C568.292 11.7292 575.979 13.3125 581.688 16.3125C587.396 19.3125 591.5 23.3333 594 28.375C596.5 33.4167 597.75 39.125 597.75 45.5C597.75 49.8333 597.083 54.0417 595.75 58.125C594.417 62.2083 592.25 65.8958 589.25 69.1875C586.25 72.4375 582.229 75.0625 577.188 77.0625C572.188 79.0208 566 80.0625 558.625 80.1875V94.25H548.125V80.1875C540.583 80.0625 534.292 78.9792 529.25 76.9375C524.208 74.8958 520.208 72.2292 517.25 68.9375C514.292 65.6458 512.167 61.9792 510.875 57.9375C509.625 53.8958 509 49.7917 509 45.625C509 41 509.688 36.6667 511.062 32.625C512.438 28.5417 514.646 24.9583 517.688 21.875C520.771 18.75 524.812 16.2917 529.812 14.5C534.812 12.6667 540.917 11.6875 548.125 11.5625V0.3125H558.625ZM548.125 20.5625C541.208 20.7292 535.667 21.8542 531.5 23.9375C527.375 25.9792 524.396 28.8333 522.562 32.5C520.729 36.1667 519.812 40.5 519.812 45.5C519.812 50.75 520.812 55.2917 522.812 59.125C524.854 62.9167 527.958 65.875 532.125 68C536.333 70.0833 541.667 71.2292 548.125 71.4375V20.5625ZM558.625 20.5625V71.4375C565.292 71.2292 570.708 70.0417 574.875 67.875C579.042 65.7083 582.104 62.7083 584.062 58.875C586.021 55.0417 587 50.5417 587 45.375C587 40.3333 586.083 36 584.25 32.375C582.417 28.7083 579.417 25.875 575.25 23.875C571.125 21.8333 565.583 20.7292 558.625 20.5625ZM739.707 47.1875C739.707 54.2292 738.812 60.6458 737.02 66.4375C735.228 72.1875 732.562 77.1458 729.02 81.3125C725.52 85.4375 721.166 88.625 715.957 90.875C710.749 93.125 704.707 94.25 697.832 94.25C690.749 94.25 684.562 93.125 679.27 90.875C674.02 88.625 669.645 85.4167 666.145 81.25C662.687 77.0833 660.082 72.1042 658.332 66.3125C656.624 60.5208 655.77 54.1042 655.77 47.0625C655.77 37.7292 657.312 29.5417 660.395 22.5C663.478 15.4583 668.145 9.97917 674.395 6.0625C680.687 2.14583 688.562 0.1875 698.02 0.1875C707.062 0.1875 714.666 2.125 720.832 6C727.041 9.875 731.728 15.3333 734.895 22.375C738.103 29.375 739.707 37.6458 739.707 47.1875ZM666.957 47.1875C666.957 54.9375 668.062 61.6458 670.27 67.3125C672.478 72.9792 675.853 77.3542 680.395 80.4375C684.978 83.5208 690.791 85.0625 697.832 85.0625C704.916 85.0625 710.707 83.5208 715.207 80.4375C719.749 77.3542 723.103 72.9792 725.27 67.3125C727.437 61.6458 728.52 54.9375 728.52 47.1875C728.52 35.3958 726.041 26.1875 721.082 19.5625C716.166 12.8958 708.478 9.5625 698.02 9.5625C690.937 9.5625 685.103 11.0833 680.52 14.125C675.937 17.1667 672.52 21.5 670.27 27.125C668.062 32.7083 666.957 39.3958 666.957 47.1875ZM868.602 93H857.977V11H828.352C827.769 15.6667 827.144 20.5417 826.477 25.625C825.811 30.7083 825.123 35.7708 824.415 40.8125C823.707 45.8542 822.998 50.625 822.29 55.125C821.582 59.625 820.873 63.625 820.165 67.125C819.082 72.9167 817.727 77.8542 816.102 81.9375C814.519 85.9792 812.394 89.0833 809.727 91.25C807.102 93.375 803.623 94.4375 799.29 94.4375C797.832 94.4375 796.373 94.2917 794.915 94C793.498 93.7083 792.248 93.3542 791.165 92.9375V84C792.123 84.4167 793.186 84.7708 794.352 85.0625C795.561 85.3542 796.832 85.5 798.165 85.5C800.79 85.5 802.852 84.4583 804.352 82.375C805.894 80.25 807.102 77.5625 807.977 74.3125C808.894 71.0625 809.686 67.7292 810.352 64.3125C810.894 61.4792 811.519 57.8958 812.227 53.5625C812.936 49.2292 813.686 44.3125 814.477 38.8125C815.269 33.2708 816.082 27.3542 816.915 21.0625C817.79 14.7708 818.644 8.29167 819.477 1.625H868.602V93ZM937.247 1.625H947.185V54.4375C947.185 56.4375 947.164 58.625 947.122 61C947.081 63.3333 947.018 65.625 946.935 67.875C946.852 70.125 946.747 72.1667 946.622 74C946.539 75.8333 946.456 77.25 946.372 78.25H946.872L997.747 1.625H1009.43V93H999.497V40.8125C999.497 38.6042 999.539 36.2708 999.622 33.8125C999.706 31.3125 999.789 28.8958 999.872 26.5625C999.997 24.2292 1000.12 22.1458 1000.25 20.3125C1000.37 18.4375 1000.46 17 1000.5 16H999.935L948.997 93H937.247V1.625ZM1157.14 47.1875C1157.14 54.2292 1156.25 60.6458 1154.46 66.4375C1152.66 72.1875 1150 77.1458 1146.46 81.3125C1142.96 85.4375 1138.6 88.625 1133.39 90.875C1128.18 93.125 1122.14 94.25 1115.27 94.25C1108.18 94.25 1102 93.125 1096.71 90.875C1091.46 88.625 1087.08 85.4167 1083.58 81.25C1080.12 77.0833 1077.52 72.1042 1075.77 66.3125C1074.06 60.5208 1073.21 54.1042 1073.21 47.0625C1073.21 37.7292 1074.75 29.5417 1077.83 22.5C1080.91 15.4583 1085.58 9.97917 1091.83 6.0625C1098.12 2.14583 1106 0.1875 1115.46 0.1875C1124.5 0.1875 1132.1 2.125 1138.27 6C1144.48 9.875 1149.16 15.3333 1152.33 22.375C1155.54 29.375 1157.14 37.6458 1157.14 47.1875ZM1084.39 47.1875C1084.39 54.9375 1085.5 61.6458 1087.71 67.3125C1089.91 72.9792 1093.29 77.3542 1097.83 80.4375C1102.41 83.5208 1108.23 85.0625 1115.27 85.0625C1122.35 85.0625 1128.14 83.5208 1132.64 80.4375C1137.18 77.3542 1140.54 72.9792 1142.71 67.3125C1144.87 61.6458 1145.96 54.9375 1145.96 47.1875C1145.96 35.3958 1143.48 26.1875 1138.52 19.5625C1133.6 12.8958 1125.91 9.5625 1115.46 9.5625C1108.37 9.5625 1102.54 11.0833 1097.96 14.125C1093.37 17.1667 1089.96 21.5 1087.71 27.125C1085.5 32.7083 1084.39 39.3958 1084.39 47.1875Z"/>
</mask>
<path d="M0.482483 93H-1.51752V95H0.482483V93ZM0.482483 1.625V-0.375H-1.51752V1.625H0.482483ZM68.545 1.625H70.545V-0.375H68.545V1.625ZM68.545 93V95H70.545V93H68.545ZM58.045 93H56.045V95H58.045V93ZM58.045 11H60.045V9H58.045V11ZM11.1075 11V9H9.10748V11H11.1075ZM11.1075 93V95H13.1075V93H11.1075ZM2.48248 93V1.625H-1.51752V93H2.48248ZM0.482483 3.625H68.545V-0.375H0.482483V3.625ZM66.545 1.625V93H70.545V1.625H66.545ZM68.545 91H58.045V95H68.545V91ZM60.045 93V11H56.045V93H60.045ZM58.045 9H11.1075V13H58.045V9ZM9.10748 11V93H13.1075V11H9.10748ZM11.1075 91H0.482483V95H11.1075V91ZM213.815 66.4375L215.724 67.0325L215.726 67.0286L213.815 66.4375ZM205.815 81.3125L204.291 80.0172L204.29 80.0185L205.815 81.3125ZM156.065 90.875L155.277 92.7133L155.282 92.7155L156.065 90.875ZM142.94 81.25L141.401 82.5274L141.409 82.5364L142.94 81.25ZM135.127 66.3125L133.209 66.8783L133.213 66.891L135.127 66.3125ZM151.19 6.0625L150.133 4.3646L150.128 4.36777L151.19 6.0625ZM197.627 6L196.563 7.69343L196.569 7.69664L197.627 6ZM211.69 22.375L209.866 23.1953L209.869 23.2018L209.872 23.2083L211.69 22.375ZM157.19 80.4375L156.067 82.0922L156.074 82.0969L157.19 80.4375ZM192.002 80.4375L190.879 78.7828L190.872 78.7876L192.002 80.4375ZM197.877 19.5625L196.268 20.7496L196.276 20.7609L197.877 19.5625ZM157.315 14.125L156.209 12.4586L157.315 14.125ZM147.065 27.125L145.208 26.3822L145.205 26.3894L147.065 27.125ZM214.503 47.1875C214.503 54.0604 213.628 60.2742 211.904 65.8464L215.726 67.0286C217.585 61.0175 218.503 54.398 218.503 47.1875H214.503ZM211.906 65.8425C210.186 71.3617 207.642 76.0756 204.291 80.0172L207.339 82.6078C211.072 78.2161 213.861 73.0133 215.724 67.0325L211.906 65.8425ZM204.29 80.0185C200.999 83.8975 196.899 86.9049 191.959 89.039L193.546 92.711C199.022 90.3451 203.631 86.9775 207.34 82.6065L204.29 80.0185ZM191.959 89.039C187.049 91.1605 181.286 92.25 174.627 92.25V96.25C181.719 96.25 188.04 95.0895 193.546 92.711L191.959 89.039ZM174.627 92.25C167.753 92.25 161.842 91.1579 156.848 89.0345L155.282 92.7155C160.872 95.0921 167.336 96.25 174.627 96.25V92.25ZM156.853 89.0367C151.876 86.9037 147.76 83.8787 144.471 79.9636L141.409 82.5364C145.12 86.9546 149.754 90.3463 155.277 92.7133L156.853 89.0367ZM144.479 79.9727C141.21 76.0344 138.724 71.3 137.042 65.734L133.213 66.891C135.031 72.9083 137.753 78.1323 141.401 82.5273L144.479 79.9727ZM137.046 65.7467C135.4 60.1663 134.565 53.9436 134.565 47.0625H130.565C130.565 54.2647 131.439 60.8754 133.209 66.8783L137.046 65.7467ZM134.565 47.0625C134.565 37.9475 136.071 30.0429 139.022 23.3022L135.358 21.6978C132.143 29.0405 130.565 37.5109 130.565 47.0625H134.565ZM139.022 23.3022C141.951 16.6122 146.357 11.4512 152.252 7.75723L150.128 4.36777C143.523 8.50718 138.595 14.3045 135.358 21.6978L139.022 23.3022ZM152.247 7.76039C158.145 4.08891 165.628 2.1875 174.815 2.1875V-1.8125C165.085 -1.8125 156.819 0.202763 150.133 4.36461L152.247 7.76039ZM174.815 2.1875C183.571 2.1875 190.784 4.06207 196.563 7.69342L198.692 4.30658C192.137 0.187931 184.142 -1.8125 174.815 -1.8125V2.1875ZM196.569 7.69664C202.422 11.3499 206.852 16.4941 209.866 23.1953L213.514 21.5547C210.194 14.1725 205.25 8.40007 198.686 4.30336L196.569 7.69664ZM209.872 23.2083C212.935 29.8921 214.503 37.8664 214.503 47.1875H218.503C218.503 37.4252 216.861 28.8579 213.508 21.5417L209.872 23.2083ZM141.752 47.1875C141.752 55.1207 142.882 62.0867 145.201 68.0387L148.928 66.5863C146.831 61.205 145.752 54.7543 145.752 47.1875H141.752ZM145.201 68.0387C147.54 74.0402 151.154 78.7571 156.067 82.0922L158.313 78.7828C154.143 75.9512 151.006 71.9181 148.928 66.5863L145.201 68.0387ZM156.074 82.0969C161.067 85.4561 167.297 87.0625 174.627 87.0625V83.0625C167.875 83.0625 162.48 81.5856 158.306 78.7781L156.074 82.0969ZM174.627 87.0625C181.995 87.0625 188.214 85.4581 193.133 82.0874L190.872 78.7876C186.791 81.5836 181.427 83.0625 174.627 83.0625V87.0625ZM193.126 82.0922C198.042 78.7549 201.636 74.0337 203.933 68.0268L200.197 66.5982C198.16 71.9246 195.047 75.9534 190.879 78.7828L193.126 82.0922ZM203.933 68.0268C206.207 62.0786 207.315 55.1169 207.315 47.1875H203.315C203.315 54.7581 202.256 61.2131 200.197 66.5982L203.933 68.0268ZM207.315 47.1875C207.315 35.1417 204.785 25.4545 199.479 18.3641L196.276 20.7609C200.886 26.9205 203.315 35.6499 203.315 47.1875H207.315ZM199.487 18.3754C194.096 11.065 185.724 7.5625 174.815 7.5625V11.5625C184.823 11.5625 191.826 14.7266 196.268 20.7496L199.487 18.3754ZM174.815 7.5625C167.45 7.5625 161.203 9.14465 156.209 12.4586L158.421 15.7914C162.594 13.022 168.013 11.5625 174.815 11.5625V7.5625ZM156.209 12.4586C151.253 15.7474 147.593 20.4202 145.208 26.3822L148.922 27.8678C151.037 22.5798 154.21 18.5859 158.421 15.7914L156.209 12.4586ZM145.205 26.3894C142.881 32.2652 141.752 39.2153 141.752 47.1875H145.752C145.752 39.5763 146.832 33.1515 148.925 27.8606L145.205 26.3894ZM330.085 8.5625L328.786 10.0835L328.793 10.0888L328.799 10.0941L330.085 8.5625ZM336.335 39.375L334.459 38.6825L334.454 38.6952L336.335 39.375ZM330.21 48.5625L331.569 50.0296L331.575 50.0243L331.581 50.0189L330.21 48.5625ZM319.022 54.8125L319.645 56.7133L319.655 56.7099L319.022 54.8125ZM291.022 57.0625V55.0625H289.022V57.0625H291.022ZM291.022 93V95H293.022V93H291.022ZM280.397 93H278.397V95H280.397V93ZM280.397 1.625V-0.375H278.397V1.625H280.397ZM291.022 10.6875V8.6875H289.022V10.6875H291.022ZM291.022 47.9375H289.022V49.9375H291.022V47.9375ZM315.522 46.0625L314.914 44.1572L314.908 44.1591L315.522 46.0625ZM324.335 40L325.972 41.1486L325.98 41.1372L324.335 40ZM321.46 15.1875L320.236 16.769L320.246 16.7772L321.46 15.1875ZM304.272 3.625C315.878 3.625 323.904 5.91439 328.786 10.0835L331.384 7.04151C325.433 1.96061 316.251 -0.375 304.272 -0.375V3.625ZM328.799 10.0941C333.712 14.2196 336.272 20.1873 336.272 28.3125H340.272C340.272 19.2711 337.375 12.0721 331.371 7.03086L328.799 10.0941ZM336.272 28.3125C336.272 31.9605 335.665 35.4128 334.459 38.6826L338.211 40.0674C339.588 36.3372 340.272 32.4145 340.272 28.3125H336.272ZM334.454 38.6952C333.317 41.841 331.458 44.6418 328.839 47.1061L331.581 50.0189C334.629 47.1499 336.853 43.8256 338.216 40.0548L334.454 38.6952ZM328.851 47.0954C326.273 49.4831 322.813 51.4407 318.39 52.9151L319.655 56.7099C324.482 55.101 328.48 52.8919 331.569 50.0296L328.851 47.0954ZM318.4 52.9117C314.078 54.3262 308.677 55.0625 302.147 55.0625V59.0625C308.951 59.0625 314.8 58.2988 319.645 56.7133L318.4 52.9117ZM302.147 55.0625H291.022V59.0625H302.147V55.0625ZM289.022 57.0625V93H293.022V57.0625H289.022ZM291.022 91H280.397V95H291.022V91ZM282.397 93V1.625H278.397V93H282.397ZM280.397 3.625H304.272V-0.375H280.397V3.625ZM303.272 8.6875H291.022V12.6875H303.272V8.6875ZM289.022 10.6875V47.9375H293.022V10.6875H289.022ZM291.022 49.9375H300.96V45.9375H291.022V49.9375ZM300.96 49.9375C306.92 49.9375 311.998 49.301 316.137 47.9659L314.908 44.1591C311.297 45.324 306.667 45.9375 300.96 45.9375V49.9375ZM316.131 47.9678C320.376 46.613 323.714 44.3672 325.972 41.1486L322.698 38.8514C321.039 41.2161 318.503 43.012 314.914 44.1572L316.131 47.9678ZM325.98 41.1372C328.239 37.8698 329.272 33.6819 329.272 28.75H325.272C325.272 33.1515 324.348 36.4635 322.69 38.8628L325.98 41.1372ZM329.272 28.75C329.272 22.2141 327.166 17.0274 322.674 13.5978L320.246 16.7772C323.504 19.2643 325.272 23.1192 325.272 28.75H329.272ZM322.684 13.6061C318.29 10.2041 311.69 8.6875 303.272 8.6875V12.6875C311.355 12.6875 316.88 14.1709 320.236 16.7689L322.684 13.6061ZM428.98 93V95H430.98V93H428.98ZM418.292 93H416.292V95H418.292V93ZM418.292 11H420.292V9H418.292V11ZM389.542 11H387.542V13H389.542V11ZM389.542 1.625V-0.375H387.542V1.625H389.542ZM457.605 1.625H459.605V-0.375H457.605V1.625ZM457.605 11V13H459.605V11H457.605ZM428.98 11V9H426.98V11H428.98ZM428.98 91H418.292V95H428.98V91ZM420.292 93V11H416.292V93H420.292ZM418.292 9H389.542V13H418.292V9ZM391.542 11V1.625H387.542V11H391.542ZM389.542 3.625H457.605V-0.375H389.542V3.625ZM455.605 1.625V11H459.605V1.625H455.605ZM457.605 9H428.98V13H457.605V9ZM426.98 11V93H430.98V11H426.98ZM558.625 0.3125H560.625V-1.6875H558.625V0.3125ZM558.625 11.5625H556.625V13.5283L558.591 13.5622L558.625 11.5625ZM594 28.375L592.208 29.2635L594 28.375ZM589.25 69.1875L590.72 70.5441L590.728 70.5347L589.25 69.1875ZM577.188 77.0625L577.917 78.9248L577.925 78.9216L577.188 77.0625ZM558.625 80.1875L558.591 78.1878L556.625 78.2211V80.1875H558.625ZM558.625 94.25V96.25H560.625V94.25H558.625ZM548.125 94.25H546.125V96.25H548.125V94.25ZM548.125 80.1875H550.125V78.2204L548.158 78.1878L548.125 80.1875ZM529.25 76.9375L528.499 78.7913L529.25 76.9375ZM510.875 57.9375L508.964 58.5284L508.967 58.5374L508.97 58.5463L510.875 57.9375ZM511.062 32.625L512.956 33.2692L512.958 33.2633L511.062 32.625ZM517.688 21.875L516.264 20.4703L516.264 20.4704L517.688 21.875ZM529.812 14.5L530.487 16.3828L530.494 16.3803L530.501 16.3778L529.812 14.5ZM548.125 11.5625L548.16 13.5622L550.125 13.5281V11.5625H548.125ZM548.125 0.3125V-1.6875H546.125V0.3125H548.125ZM548.125 20.5625H550.125V18.5137L548.077 18.5631L548.125 20.5625ZM531.5 23.9375L532.387 25.73L532.394 25.7264L531.5 23.9375ZM522.562 32.5L524.351 33.3944L522.562 32.5ZM522.812 59.125L521.039 60.0501L521.045 60.0617L521.052 60.0732L522.812 59.125ZM532.125 68L531.216 69.7817L531.227 69.7871L531.238 69.7924L532.125 68ZM548.125 71.4375L548.061 73.4365L550.125 73.5031V71.4375H548.125ZM558.625 20.5625L558.673 18.5631L556.625 18.514V20.5625H558.625ZM558.625 71.4375H556.625V73.501L558.688 73.4365L558.625 71.4375ZM584.25 32.375L582.461 33.2694L582.465 33.2776L584.25 32.375ZM575.25 23.875L574.363 25.6675L574.374 25.6728L574.385 25.678L575.25 23.875ZM556.625 0.3125V11.5625H560.625V0.3125H556.625ZM558.591 13.5622C568.088 13.7259 575.429 15.2827 580.757 18.0829L582.618 14.5421C576.529 11.3423 568.496 9.73239 558.659 9.5628L558.591 13.5622ZM580.757 18.0829C586.149 20.9167 589.922 24.6526 592.208 29.2635L595.792 27.4865C593.078 22.0141 588.643 17.7083 582.618 14.5421L580.757 18.0829ZM592.208 29.2635C594.554 33.9943 595.75 39.392 595.75 45.5H599.75C599.75 38.858 598.446 32.839 595.792 27.4865L592.208 29.2635ZM595.75 45.5C595.75 49.6244 595.116 53.6231 593.849 57.5042L597.651 58.7458C599.051 54.4603 599.75 50.0423 599.75 45.5H595.75ZM593.849 57.5042C592.607 61.3082 590.588 64.7502 587.772 67.8403L590.728 70.5347C593.912 67.0415 596.227 63.1085 597.651 58.7458L593.849 57.5042ZM587.78 67.8309C585.024 70.8166 581.275 73.2894 576.45 75.2034L577.925 78.9216C583.183 76.8356 587.476 74.0584 590.72 70.5441L587.78 67.8309ZM576.458 75.2002C571.746 77.0459 565.811 78.0654 558.591 78.1878L558.659 82.1872C566.189 82.0596 572.629 80.9958 577.917 78.9248L576.458 75.2002ZM556.625 80.1875V94.25H560.625V80.1875H556.625ZM558.625 92.25H548.125V96.25H558.625V92.25ZM550.125 94.25V80.1875H546.125V94.25H550.125ZM548.158 78.1878C540.774 78.0654 534.745 77.0048 530.001 75.0837L528.499 78.7913C533.839 80.9535 540.392 82.0596 548.092 82.1872L548.158 78.1878ZM530.001 75.0837C525.177 73.1305 521.452 70.6204 518.738 67.6006L515.762 70.2744C518.965 73.8379 523.239 76.6611 528.499 78.7913L530.001 75.0837ZM518.738 67.6006C515.96 64.5101 513.982 61.0892 512.78 57.3287L508.97 58.5463C510.351 62.8691 512.623 66.7816 515.762 70.2744L518.738 67.6006ZM512.786 57.3466C511.594 53.4933 511 49.5882 511 45.625H507C507 49.9951 507.656 54.2983 508.964 58.5284L512.786 57.3466ZM511 45.625C511 41.2009 511.657 37.0868 512.956 33.2692L509.169 31.9808C507.718 36.2465 507 40.7991 507 45.625H511ZM512.958 33.2633C514.235 29.4694 516.282 26.1478 519.111 23.2796L516.264 20.4704C513.01 23.7689 510.64 27.6139 509.167 31.9867L512.958 33.2633ZM519.111 23.2797C521.944 20.4083 525.711 18.0942 530.487 16.3828L529.138 12.6172C523.914 14.4892 519.597 17.0917 516.264 20.4703L519.111 23.2797ZM530.501 16.3778C535.232 14.6431 541.101 13.6846 548.16 13.5622L548.09 9.5628C540.732 9.6904 534.393 10.6902 529.124 12.6222L530.501 16.3778ZM550.125 11.5625V0.3125H546.125V11.5625H550.125ZM548.125 2.3125H558.625V-1.6875H548.125V2.3125ZM548.077 18.5631C540.997 18.7337 535.131 19.8857 530.606 22.1486L532.394 25.7264C536.202 23.8226 541.42 22.7246 548.173 22.5619L548.077 18.5631ZM530.613 22.145C526.148 24.355 522.825 27.502 520.774 31.6056L524.351 33.3944C525.966 30.1647 528.602 27.6033 532.387 25.73L530.613 22.145ZM520.774 31.6056C518.774 35.6044 517.812 40.2567 517.812 45.5H521.812C521.812 40.7433 522.684 36.729 524.351 33.3944L520.774 31.6056ZM517.812 45.5C517.812 51.0039 518.862 55.8763 521.039 60.0501L524.586 58.1999C522.763 54.7071 521.812 50.4961 521.812 45.5H517.812ZM521.052 60.0732C523.303 64.2539 526.72 67.4886 531.216 69.7817L533.034 66.2183C529.196 64.2614 526.406 61.5794 524.573 58.1768L521.052 60.0732ZM531.238 69.7924C535.78 72.0409 541.417 73.2222 548.061 73.4365L548.189 69.4385C541.916 69.2362 536.887 68.1258 533.012 66.2076L531.238 69.7924ZM550.125 71.4375V20.5625H546.125V71.4375H550.125ZM556.625 20.5625V71.4375H560.625V20.5625H556.625ZM558.688 73.4365C565.537 73.2225 571.277 72.0001 575.798 69.6494L573.952 66.1006C570.14 68.0832 565.047 69.2358 558.562 69.4385L558.688 73.4365ZM575.798 69.6494C580.298 67.3092 583.679 64.0226 585.844 59.7849L582.281 57.9651C580.53 61.3941 577.785 64.1074 573.952 66.1006L575.798 69.6494ZM585.844 59.7849C587.972 55.6188 589 50.7952 589 45.375H585C585 50.2881 584.07 54.4645 582.281 57.9651L585.844 59.7849ZM589 45.375C589 40.0938 588.04 35.4366 586.035 31.4724L582.465 33.2776C584.127 36.5634 585 40.5728 585 45.375H589ZM586.039 31.4806C583.982 27.3668 580.629 24.2382 576.115 22.072L574.385 25.678C578.205 27.5118 580.851 30.0498 582.461 33.2694L586.039 31.4806ZM576.137 22.0825C571.652 19.8625 565.787 18.7335 558.673 18.5631L558.577 22.5619C565.38 22.7249 570.598 23.8042 574.363 25.6675L576.137 22.0825ZM737.02 66.4375L738.929 67.0325L738.931 67.0286L737.02 66.4375ZM729.02 81.3125L727.496 80.0172L727.495 80.0185L729.02 81.3125ZM679.27 90.875L678.482 92.7133L678.487 92.7155L679.27 90.875ZM666.145 81.25L664.606 82.5274L664.614 82.5364L666.145 81.25ZM658.332 66.3125L656.414 66.8783L656.418 66.891L658.332 66.3125ZM674.395 6.0625L673.338 4.3646L673.333 4.36777L674.395 6.0625ZM720.832 6L719.768 7.69343L719.773 7.69664L720.832 6ZM734.895 22.375L733.071 23.1953L733.074 23.2018L733.077 23.2083L734.895 22.375ZM680.395 80.4375L679.272 82.0922L679.279 82.0969L680.395 80.4375ZM715.207 80.4375L714.084 78.7828L714.077 78.7876L715.207 80.4375ZM721.082 19.5625L719.473 20.7496L719.481 20.7609L721.082 19.5625ZM680.52 14.125L679.414 12.4586L680.52 14.125ZM670.27 27.125L668.413 26.3822L668.41 26.3894L670.27 27.125ZM737.707 47.1875C737.707 54.0604 736.833 60.2742 735.109 65.8464L738.931 67.0286C740.79 61.0175 741.707 54.398 741.707 47.1875H737.707ZM735.111 65.8425C733.391 71.3617 730.846 76.0756 727.496 80.0172L730.544 82.6078C734.277 78.2161 737.066 73.0133 738.929 67.0325L735.111 65.8425ZM727.495 80.0185C724.204 83.8975 720.104 86.9049 715.164 89.039L716.751 92.711C722.227 90.3451 726.836 86.9775 730.545 82.6065L727.495 80.0185ZM715.164 89.039C710.254 91.1605 704.491 92.25 697.832 92.25V96.25C704.924 96.25 711.245 95.0895 716.751 92.711L715.164 89.039ZM697.832 92.25C690.957 92.25 685.046 91.1579 680.053 89.0345L678.487 92.7155C684.077 95.0921 690.541 96.25 697.832 96.25V92.25ZM680.058 89.0367C675.081 86.9037 670.965 83.8787 667.676 79.9636L664.614 82.5364C668.325 86.9546 672.959 90.3463 678.482 92.7133L680.058 89.0367ZM667.684 79.9727C664.415 76.0344 661.929 71.3 660.247 65.734L656.418 66.891C658.236 72.9083 660.958 78.1323 664.606 82.5273L667.684 79.9727ZM660.251 65.7467C658.605 60.1663 657.77 53.9436 657.77 47.0625H653.77C653.77 54.2647 654.643 60.8754 656.414 66.8783L660.251 65.7467ZM657.77 47.0625C657.77 37.9475 659.276 30.0429 662.227 23.3022L658.563 21.6978C655.348 29.0405 653.77 37.5109 653.77 47.0625H657.77ZM662.227 23.3022C665.156 16.6122 669.562 11.4512 675.457 7.75723L673.333 4.36777C666.727 8.50718 661.8 14.3045 658.563 21.6978L662.227 23.3022ZM675.452 7.76039C681.35 4.08891 688.833 2.1875 698.02 2.1875V-1.8125C688.29 -1.8125 680.023 0.202763 673.338 4.36461L675.452 7.76039ZM698.02 2.1875C706.776 2.1875 713.989 4.06207 719.768 7.69342L721.897 4.30658C715.342 0.187931 707.347 -1.8125 698.02 -1.8125V2.1875ZM719.773 7.69664C725.627 11.3499 730.057 16.4941 733.071 23.1953L736.719 21.5547C733.399 14.1725 728.455 8.40007 721.891 4.30336L719.773 7.69664ZM733.077 23.2083C736.14 29.8921 737.707 37.8664 737.707 47.1875H741.707C741.707 37.4252 740.066 28.8579 736.713 21.5417L733.077 23.2083ZM664.957 47.1875C664.957 55.1207 666.087 62.0867 668.406 68.0387L672.133 66.5863C670.036 61.205 668.957 54.7543 668.957 47.1875H664.957ZM668.406 68.0387C670.745 74.0402 674.359 78.7571 679.272 82.0922L681.518 78.7828C677.347 75.9512 674.211 71.9181 672.133 66.5863L668.406 68.0387ZM679.279 82.0969C684.272 85.4561 690.502 87.0625 697.832 87.0625V83.0625C691.08 83.0625 685.685 81.5856 681.511 78.7781L679.279 82.0969ZM697.832 87.0625C705.2 87.0625 711.419 85.4581 716.338 82.0874L714.077 78.7876C709.996 81.5836 704.632 83.0625 697.832 83.0625V87.0625ZM716.331 82.0922C721.247 78.7549 724.841 74.0337 727.138 68.0268L723.402 66.5982C721.365 71.9246 718.252 75.9534 714.084 78.7828L716.331 82.0922ZM727.138 68.0268C729.412 62.0786 730.52 55.1169 730.52 47.1875H726.52C726.52 54.7581 725.461 61.2131 723.402 66.5982L727.138 68.0268ZM730.52 47.1875C730.52 35.1417 727.99 25.4545 722.684 18.3641L719.481 20.7609C724.091 26.9205 726.52 35.6499 726.52 47.1875H730.52ZM722.692 18.3754C717.301 11.065 708.929 7.5625 698.02 7.5625V11.5625C708.028 11.5625 715.031 14.7266 719.473 20.7496L722.692 18.3754ZM698.02 7.5625C690.655 7.5625 684.408 9.14465 679.414 12.4586L681.626 15.7914C685.799 13.022 691.218 11.5625 698.02 11.5625V7.5625ZM679.414 12.4586C674.458 15.7474 670.798 20.4202 668.413 26.3822L672.127 27.8678C674.242 22.5798 677.415 18.5859 681.626 15.7914L679.414 12.4586ZM668.41 26.3894C666.086 32.2652 664.957 39.2153 664.957 47.1875H668.957C668.957 39.5763 670.037 33.1515 672.13 27.8606L668.41 26.3894ZM868.602 93V95H870.602V93H868.602ZM857.977 93H855.977V95H857.977V93ZM857.977 11H859.977V9H857.977V11ZM828.352 11V9H826.587L826.368 10.7519L828.352 11ZM826.477 25.625L824.494 25.3649L826.477 25.625ZM820.165 67.125L818.205 66.7283L818.202 66.7428L818.199 66.7573L820.165 67.125ZM816.102 81.9375L814.244 81.198L814.24 81.208L816.102 81.9375ZM809.727 91.25L810.986 92.8045L810.989 92.8022L809.727 91.25ZM794.915 94L794.512 95.9589L794.523 95.9612L794.915 94ZM791.165 92.9375H789.165V94.3111L790.447 94.8042L791.165 92.9375ZM791.165 84L791.962 82.1659L789.165 80.9496V84H791.165ZM794.352 85.0625L793.867 87.0028L793.875 87.0048L793.883 87.0067L794.352 85.0625ZM804.352 82.375L802.734 81.2005L802.729 81.2064L804.352 82.375ZM807.977 74.3125L806.053 73.7696L806.049 73.781L806.046 73.7926L807.977 74.3125ZM810.352 64.3125L812.315 64.6955L812.317 64.688L810.352 64.3125ZM814.477 38.8125L816.457 39.0974L816.457 39.0953L814.477 38.8125ZM816.915 21.0625L814.934 20.787L814.932 20.7999L816.915 21.0625ZM819.477 1.625V-0.375H817.712L817.493 1.37693L819.477 1.625ZM868.602 1.625H870.602V-0.375H868.602V1.625ZM868.602 91H857.977V95H868.602V91ZM859.977 93V11H855.977V93H859.977ZM857.977 9H828.352V13H857.977V9ZM826.368 10.7519C825.785 15.4143 825.161 20.2852 824.494 25.3649L828.461 25.8851C829.128 20.7981 829.753 15.9191 830.337 11.2481L826.368 10.7519ZM824.494 25.3649C823.829 30.4422 823.142 35.4987 822.434 40.5342L826.396 41.0908C827.105 36.043 827.793 30.9744 828.461 25.8851L824.494 25.3649ZM822.434 40.5342C821.727 45.5662 821.021 50.3261 820.314 54.814L824.266 55.436C824.976 50.9239 825.686 46.1421 826.396 41.0908L822.434 40.5342ZM820.314 54.814C819.609 59.2927 818.906 63.2632 818.205 66.7283L822.125 67.5217C822.841 63.9868 823.554 59.9573 824.266 55.436L820.314 54.814ZM818.199 66.7573C817.132 72.4618 815.808 77.2675 814.244 81.198L817.961 82.677C819.647 78.4409 821.031 73.3715 822.131 67.4927L818.199 66.7573ZM814.24 81.208C812.75 85.0114 810.803 87.799 808.466 89.6978L810.989 92.8022C813.985 90.3676 816.288 86.947 817.965 82.667L814.24 81.208ZM808.469 89.6955C806.291 91.459 803.297 92.4375 799.29 92.4375V96.4375C803.95 96.4375 807.914 95.291 810.986 92.8045L808.469 89.6955ZM799.29 92.4375C797.966 92.4375 796.639 92.3052 795.307 92.0388L794.523 95.9612C796.108 96.2781 797.697 96.4375 799.29 96.4375V92.4375ZM795.318 92.0411C793.984 91.7664 792.843 91.44 791.883 91.0708L790.447 94.8042C791.654 95.2683 793.013 95.6503 794.512 95.9589L795.318 92.0411ZM793.165 92.9375V84H789.165V92.9375H793.165ZM790.368 85.8341C791.441 86.3007 792.609 86.6883 793.867 87.0028L794.838 83.1222C793.762 82.8534 792.806 82.5326 791.962 82.1659L790.368 85.8341ZM793.883 87.0067C795.256 87.338 796.685 87.5 798.165 87.5V83.5C796.978 83.5 795.866 83.3703 794.822 83.1183L793.883 87.0067ZM798.165 87.5C801.416 87.5 804.09 86.1628 805.976 83.5436L802.729 81.2064C801.615 82.7539 800.164 83.5 798.165 83.5V87.5ZM805.971 83.5495C807.69 81.1802 808.987 78.2545 809.909 74.8324L806.046 73.7926C805.218 76.8705 804.098 79.3198 802.734 81.2005L805.971 83.5495ZM809.902 74.8554C810.834 71.5511 811.639 68.1643 812.315 64.6955L808.39 63.9295C807.733 67.294 806.954 70.5739 806.053 73.7696L809.902 74.8554ZM812.317 64.688C812.863 61.8306 813.491 58.2281 814.201 53.8851L810.254 53.2399C809.547 57.5636 808.925 61.1277 808.388 63.937L812.317 64.688ZM814.201 53.8851C814.912 49.5365 815.664 44.6069 816.457 39.0974L812.498 38.5276C811.708 44.0181 810.96 48.9218 810.254 53.2399L814.201 53.8851ZM816.457 39.0953C817.25 33.5461 818.064 27.6227 818.898 21.3251L814.932 20.7999C814.1 27.0857 813.288 32.9956 812.498 38.5297L816.457 39.0953ZM818.896 21.338C819.772 15.0367 820.628 8.54837 821.462 1.87307L817.493 1.37693C816.661 8.03497 815.808 14.505 814.934 20.787L818.896 21.338ZM819.477 3.625H868.602V-0.375H819.477V3.625ZM866.602 1.625V93H870.602V1.625H866.602ZM937.247 1.625V-0.375H935.247V1.625H937.247ZM947.185 1.625H949.185V-0.375H947.185V1.625ZM947.122 61L949.122 61.0357V61.0351L947.122 61ZM946.622 74L944.627 73.864L944.626 73.8866L944.625 73.9092L946.622 74ZM946.372 78.25L944.379 78.0839L944.199 80.25H946.372V78.25ZM946.872 78.25V80.25H947.945L948.539 79.3563L946.872 78.25ZM997.748 1.625V-0.375H996.675L996.081 0.518738L997.748 1.625ZM1009.44 1.625H1011.44V-0.375H1009.44V1.625ZM1009.44 93V95H1011.44V93H1009.44ZM999.498 93H997.498V95H999.498V93ZM999.623 33.8125L1001.62 33.8803V33.8791L999.623 33.8125ZM999.873 26.5625L997.875 26.4555L997.874 26.4733L997.874 26.4911L999.873 26.5625ZM1000.25 20.3125L1002.24 20.4485L1002.24 20.4455L1000.25 20.3125ZM1000.5 16L1002.5 16.0833L1002.58 14H1000.5V16ZM999.935 16V14H998.86L998.267 14.8965L999.935 16ZM948.997 93V95H950.072L950.666 94.1035L948.997 93ZM937.247 93H935.247V95H937.247V93ZM937.247 3.625H947.185V-0.375H937.247V3.625ZM945.185 1.625V54.4375H949.185V1.625H945.185ZM945.185 54.4375C945.185 56.4239 945.164 58.5995 945.123 60.9649L949.122 61.0351C949.164 58.6505 949.185 56.4511 949.185 54.4375H945.185ZM945.123 60.9643C945.081 63.2853 945.019 65.5642 944.936 67.801L948.934 67.949C949.017 65.6858 949.08 63.3814 949.122 61.0357L945.123 60.9643ZM944.936 67.801C944.854 70.0347 944.75 72.0552 944.627 73.864L948.618 74.136C948.745 72.2781 948.85 70.2153 948.934 67.949L944.936 67.801ZM944.625 73.9092C944.542 75.7343 944.46 77.1215 944.379 78.0839L948.366 78.4161C948.452 77.3785 948.537 75.9324 948.62 74.0908L944.625 73.9092ZM946.372 80.25H946.872V76.25H946.372V80.25ZM948.539 79.3563L999.414 2.73126L996.081 0.518738L945.206 77.1437L948.539 79.3563ZM997.748 3.625H1009.44V-0.375H997.748V3.625ZM1007.44 1.625V93H1011.44V1.625H1007.44ZM1009.44 91H999.498V95H1009.44V91ZM1001.5 93V40.8125H997.498V93H1001.5ZM1001.5 40.8125C1001.5 38.6291 1001.54 36.3185 1001.62 33.8803L997.624 33.7447C997.54 36.2232 997.498 38.5792 997.498 40.8125H1001.5ZM1001.62 33.8791C1001.7 31.3806 1001.79 28.9655 1001.87 26.6339L997.874 26.4911C997.79 28.8261 997.707 31.2444 997.624 33.7459L1001.62 33.8791ZM1001.87 26.6695C1001.99 24.3434 1002.12 22.27 1002.24 20.4485L998.252 20.1765C998.126 22.0216 998.001 24.1149 997.875 26.4555L1001.87 26.6695ZM1002.24 20.4455C1002.37 18.5656 1002.45 17.1084 1002.5 16.0833L998.499 15.9167C998.459 16.8916 998.377 18.3094 998.252 20.1795L1002.24 20.4455ZM1000.5 14H999.935V18H1000.5V14ZM998.267 14.8965L947.329 91.8965L950.666 94.1035L1001.6 17.1035L998.267 14.8965ZM948.997 91H937.247V95H948.997V91ZM939.247 93V1.625H935.247V93H939.247ZM1154.46 66.4375L1156.36 67.0325L1156.37 67.0286L1154.46 66.4375ZM1146.46 81.3125L1144.93 80.0172L1144.93 80.0185L1146.46 81.3125ZM1096.71 90.875L1095.92 92.7133L1095.92 92.7155L1096.71 90.875ZM1083.58 81.25L1082.04 82.5274L1082.05 82.5364L1083.58 81.25ZM1075.77 66.3125L1073.85 66.8783L1073.85 66.891L1075.77 66.3125ZM1091.83 6.0625L1090.77 4.3646L1090.77 4.36777L1091.83 6.0625ZM1138.27 6L1137.2 7.69343L1137.21 7.69664L1138.27 6ZM1152.33 22.375L1150.51 23.1953L1150.51 23.2018L1150.51 23.2083L1152.33 22.375ZM1097.83 80.4375L1096.71 82.0922L1096.71 82.0969L1097.83 80.4375ZM1132.64 80.4375L1131.52 78.7828L1131.51 78.7876L1132.64 80.4375ZM1138.52 19.5625L1136.91 20.7496L1136.92 20.7609L1138.52 19.5625ZM1097.96 14.125L1096.85 12.4586L1097.96 14.125ZM1087.71 27.125L1085.85 26.3822L1085.85 26.3894L1087.71 27.125ZM1155.14 47.1875C1155.14 54.0604 1154.27 60.2742 1152.54 65.8464L1156.37 67.0286C1158.23 61.0175 1159.14 54.398 1159.14 47.1875H1155.14ZM1152.55 65.8425C1150.83 71.3617 1148.28 76.0756 1144.93 80.0172L1147.98 82.6078C1151.71 78.2161 1154.5 73.0133 1156.36 67.0325L1152.55 65.8425ZM1144.93 80.0185C1141.64 83.8975 1137.54 86.9049 1132.6 89.039L1134.19 92.711C1139.66 90.3451 1144.27 86.9775 1147.98 82.6065L1144.93 80.0185ZM1132.6 89.039C1127.69 91.1605 1121.93 92.25 1115.27 92.25V96.25C1122.36 96.25 1128.68 95.0895 1134.19 92.711L1132.6 89.039ZM1115.27 92.25C1108.39 92.25 1102.48 91.1579 1097.49 89.0345L1095.92 92.7155C1101.51 95.0921 1107.98 96.25 1115.27 96.25V92.25ZM1097.49 89.0367C1092.52 86.9037 1088.4 83.8787 1085.11 79.9636L1082.05 82.5364C1085.76 86.9546 1090.39 90.3463 1095.92 92.7133L1097.49 89.0367ZM1085.12 79.9727C1081.85 76.0344 1079.36 71.3 1077.68 65.734L1073.85 66.891C1075.67 72.9083 1078.39 78.1323 1082.04 82.5273L1085.12 79.9727ZM1077.69 65.7467C1076.04 60.1663 1075.21 53.9436 1075.21 47.0625H1071.21C1071.21 54.2647 1072.08 60.8754 1073.85 66.8783L1077.69 65.7467ZM1075.21 47.0625C1075.21 37.9475 1076.71 30.0429 1079.66 23.3022L1076 21.6978C1072.78 29.0405 1071.21 37.5109 1071.21 47.0625H1075.21ZM1079.66 23.3022C1082.59 16.6122 1087 11.4512 1092.89 7.75723L1090.77 4.36777C1084.16 8.50718 1079.24 14.3045 1076 21.6978L1079.66 23.3022ZM1092.89 7.76039C1098.78 4.08891 1106.27 2.1875 1115.46 2.1875V-1.8125C1105.73 -1.8125 1097.46 0.202763 1090.77 4.36461L1092.89 7.76039ZM1115.46 2.1875C1124.21 2.1875 1131.42 4.06207 1137.2 7.69342L1139.33 4.30658C1132.78 0.187931 1124.78 -1.8125 1115.46 -1.8125V2.1875ZM1137.21 7.69664C1143.06 11.3499 1147.49 16.4941 1150.51 23.1953L1154.15 21.5547C1150.83 14.1725 1145.89 8.40007 1139.33 4.30336L1137.21 7.69664ZM1150.51 23.2083C1153.58 29.8921 1155.14 37.8664 1155.14 47.1875H1159.14C1159.14 37.4252 1157.5 28.8579 1154.15 21.5417L1150.51 23.2083ZM1082.39 47.1875C1082.39 55.1207 1083.52 62.0867 1085.84 68.0387L1089.57 66.5863C1087.47 61.205 1086.39 54.7543 1086.39 47.1875H1082.39ZM1085.84 68.0387C1088.18 74.0402 1091.79 78.7571 1096.71 82.0922L1098.95 78.7828C1094.78 75.9512 1091.65 71.9181 1089.57 66.5863L1085.84 68.0387ZM1096.71 82.0969C1101.71 85.4561 1107.94 87.0625 1115.27 87.0625V83.0625C1108.51 83.0625 1103.12 81.5856 1098.95 78.7781L1096.71 82.0969ZM1115.27 87.0625C1122.63 87.0625 1128.85 85.4581 1133.77 82.0874L1131.51 78.7876C1127.43 81.5836 1122.07 83.0625 1115.27 83.0625V87.0625ZM1133.77 82.0922C1138.68 78.7549 1142.28 74.0337 1144.57 68.0268L1140.84 66.5982C1138.8 71.9246 1135.69 75.9534 1131.52 78.7828L1133.77 82.0922ZM1144.57 68.0268C1146.85 62.0786 1147.96 55.1169 1147.96 47.1875H1143.96C1143.96 54.7581 1142.9 61.2131 1140.84 66.5982L1144.57 68.0268ZM1147.96 47.1875C1147.96 35.1417 1145.43 25.4545 1140.12 18.3641L1136.92 20.7609C1141.53 26.9205 1143.96 35.6499 1143.96 47.1875H1147.96ZM1140.13 18.3754C1134.74 11.065 1126.36 7.5625 1115.46 7.5625V11.5625C1125.46 11.5625 1132.47 14.7266 1136.91 20.7496L1140.13 18.3754ZM1115.46 7.5625C1108.09 7.5625 1101.84 9.14465 1096.85 12.4586L1099.06 15.7914C1103.23 13.022 1108.65 11.5625 1115.46 11.5625V7.5625ZM1096.85 12.4586C1091.89 15.7474 1088.23 20.4202 1085.85 26.3822L1089.56 27.8678C1091.68 22.5798 1094.85 18.5859 1099.06 15.7914L1096.85 12.4586ZM1085.85 26.3894C1083.52 32.2652 1082.39 39.2153 1082.39 47.1875H1086.39C1086.39 39.5763 1087.47 33.1515 1089.56 27.8606L1085.85 26.3894Z" fill="#F0ECE6" mask="url(#path-1-outside-1_8_109)"/>
</g>
</svg>
