<svg width="28" height="51" viewBox="0 0 28 51" fill="none" xmlns="http://www.w3.org/2000/svg">
<path d="M1.65897 46.0797C1.43567 46.3205 1.262 46.6029 1.14785 46.9108C1.0337 47.2187 0.981319 47.5461 0.993694 47.8743C1.00607 48.2024 1.08295 48.5249 1.21996 48.8234C1.35698 49.1218 1.55142 49.3903 1.79221 49.6136C2.033 49.8369 2.31542 50.0106 2.62332 50.1247C2.93123 50.2389 3.25861 50.2913 3.58676 50.2789C3.91491 50.2665 4.23742 50.1896 4.53586 50.0526C4.8343 49.9156 5.10283 49.7212 5.32612 49.4804L26.3635 26.7815C26.798 26.3132 27.0367 25.6964 27.0307 25.0576C27.0247 24.4189 26.7744 23.8066 26.3312 23.3466L4.87048 1.04501C4.64414 0.80322 4.37201 0.608818 4.0699 0.473093C3.76779 0.337363 3.44173 0.263023 3.11065 0.254377C2.77956 0.24573 2.45006 0.302959 2.14128 0.422732C1.8325 0.542505 1.5506 0.722438 1.31195 0.952079C1.0733 1.18172 0.882654 1.45649 0.751093 1.76044C0.619529 2.06438 0.549672 2.39143 0.545577 2.72261C0.54148 3.05378 0.603226 3.38246 0.727231 3.68956C0.851236 3.99667 1.03503 4.27607 1.26793 4.51155L21.0926 25.1135L1.65897 46.0797Z" fill="#B0947B"/>
</svg>
